<mxfile host="app.diagrams.net" agent="Mozilla/5.0 (Windows NT 10.0; Win64; x64) AppleWebKit/537.36 (KHTML, like Gecko) Chrome/129.0.0.0 Safari/537.36" version="24.7.16">
  <diagram name="Page-1" id="-HYkqFa515XEyrCf5AIA">
    <mxGraphModel dx="1909" dy="964" grid="1" gridSize="10" guides="1" tooltips="1" connect="1" arrows="1" fold="1" page="1" pageScale="1" pageWidth="827" pageHeight="1169" math="0" shadow="0">
      <root>
        <mxCell id="0" />
        <mxCell id="1" parent="0" />
        <mxCell id="Vr-pFTC_d2zy_DVTNNrB-1" value="" style="shape=image;verticalLabelPosition=bottom;labelBackgroundColor=default;verticalAlign=top;aspect=fixed;imageAspect=0;image=data:image/png,iVBORw0KGgoAAAANSUhEUgAAA+MAAANLCAYAAAAqy0xTAAAAAXNSR0IArs4c6QAAIABJREFUeF7snQd81PX9/183Mi57EbLYey9BloBMFUQciLYutNrWWq3aX11t1Sqi1tlaba0T21q3oKAIOBAQi2wQBNkQZiCBkIQkd/n/X5/L5/jecXe5y7y7vD+Ppgl3n+9nvD7f73nPz3t8TFVVVVWQIgqIAqKAKCAKNGMFHnzwQTzwwAPNWAGZejAK8F65//77g7lE6jaRAiaTqYl6lm5FgfpRwOFw1E9DzbCVcHj+TQLjzfDOlCmLAqKAKCAKuClAGF90oALn/PxeUUYU8KvA1/94BGOyogTGw+Q+4Zfxe1efDJPRyjC9K1AFNFPT4SP9EyAwXvvnQmC89trJlaKAKCAKiAKiQKMpIDDeaFKHfUcC4+G1hALjYbBe4qTrc5FmDkiE3W4Pg0UM7yE2JbSLZTy87x0ZvSggCogCokA9KBCpMF6wcys+uOtqpdDFj72B9LadvKpVeaoUC564S7037rePwRpjC1jVJf98FHvXfIOLHnkVtuS0gK8L14oC4+G1cs0JxvXzPvja29HzgmlqoTxf47O+fNazGHD5TYiKtbk99wc2rcGs6WNxzasLYUvJUJ8dxrZqs/L8bCjM3+0aj2qjRvhupmZwLwI/elYyKioqaiO9XONHgUDgO5A69SGywHh9qChtiAKigCggCoS1ApEK4xvmvYU5912v1mbyjFfcvxAbVqwuMB7WC1+LwQuM10K0JrxEYNy5Iaeh2t/mGcFZw3he3yF1XjW3jYDzL/fRnhfwrhHW6zy0sGngsUGpKCsrC5vxhsJAA4Fob3V8XRdIe3WZt8B4XdSTa0UBUUAUEAUiQoFIhHEN2KdOHFdrFJOY5Gb1Li06itn3Tsf2ZQvRfcJUtzqbF83B8tefVtazTx7+tXrv/N//FQc2r8Hqd19G+6FjXZZw45f7gh0/qC/zrLvy7RdxaMt6v5sA4XjzCIyH16oJjJ+Gca6c3pzL7NwLFz70Ela986JaUHrE+LOMa7DmM81C67kGduOmH9ulF05carrr84X1R9z8Bwz/2V3Y8Mlb+Oj3P1Nt9Lvseoy9fab6e9HT9wAwYcztM1BRVoqP/ngj8noPxtDrf4t9677Fv2+6AMN/fg+W/GOm+j10+m/D60as5WgfH5yOkpKSWl7dfC+rCaBrgvGa3q9PZQXG61NNaUsUEAVEAVEgLBWIRBg3WqW4KIRro6s6IXrzwg/Vayy0nuX2HqS+lBPG+aWd1vSuYyYrV1ZCuNF9tevYKRh+493wBuPqi7fHe5Hiwi4wHl6PuMC4b8t4oG7q+jNAQzvd3HVoSsmxAnz99xmYcM9T6sbgBl9yThuMu/NRFO3fiw/uvsZplT//cuxd+w3+dcMEXPXSfKS366ygPLfPYJx91S1Y9PR96voxv3lYwfjH9/8cub3PxtDpdyoY/88vJmH4TXdjyHV3hNcNWMfRPjGsJY4fd26oSglcAe8wboLxcAVjHc/6+t+NAeUC44Gvq9QUBUQBUUAUiFAFIhHGaa3SAK5hW7uqaqs4LVuEZk83dW0Z1/BuBG79hVtf6w3GtUu8cQy+4tXD7ZYSGA+vFRMYrz8Y54Zcv8tu8JpXwmgdV3WqYfzDe67F4Gt+gx7nTcXSlx/HvrXLceFD/1T5JZa9/GcUH96PEb/8PRa/8DAN4xh960MKxuc++Evk9hqEIdfdjn3r/4f/3nwRrvjbbOT0Guh2A0b6wXVPjsjBsWPHwuuhC5HRuoP06TuFQO4Ntj1faywgFxgPkRtGhiEKiAKigCjQdApEGox7wjWVNSZo45ddWrAaCsa1C6vAeNPd09KzUwGB8brDOJPB6XhyfV9pKNeu7fz3qF/djy//9qCq4g7jt6HLuZOw6Ol7seb916pByGmlbDf4XEy4+xl88/pTZHGc++sHFYzPe+hXyO01UIF8/voV+O8tl2Dac+8jp+dZrls70kGcE3363NY4fPiwPM61UsB5h3izhruDtvNeDATGfVnQazW86osExuuinlwrCogCooAoEBEKRBqMe35xNi4SQTm9XZfT7qS/fUy9bYT1ulrGBcYj4rGIiEk0JxjXHi89J/7EZzZ1oydLoG7qOjM7bwhjrgl6wBTu2+F0WZ/xijM7+5N3V8P4TOWmPvue63D2Nbehx4TLsOyVJ5TL+aQH/4HYxBSmVVcAzs3DL/96v7pu1C33Kxj/dMatCrwHXXUr9m/4Dm/fNhWXP/sOsnsMUNc0l/LsuPbYv39/c5luPc+zZhh3wjph3PlD9wzn386hnH79NKzr1/Vga4pPr2lSAuM1KSTviwKigCggCkS8ApEG48Z4cO0ermPIjbHe/mLGjTHmwbqpC4xH/CMTNhNsTjCuPWKK8ne5Eix6eqfUBsY7DBvn5kljzLpemL8Ly19/Bhc/OgulRUfwxvXj0e/S6zH2zmoYv3c6zr7qVvSYcGl17PeF+MkLc5DWpuNp6/fVt+HbN/6C/A3f4bx7n8Gx3T/i3dunYfC1v8Ggn96iXn/vzitx6ZNvKhhXMBQ2d2DdBvrc+V2wa9euujXSbK92h/EzY8Sd4G02G13YT4O5O6S7g7knkNcFzAXGm+0NKhMXBUQBUUAU0ApEEoxry5VKomQ4M9zzi7q2ijEO1Fc29drGjAuMy7MVKgo0Jxin5kbLtV4DY+Zzo9fMT/8xF98veF9VCzabus6Orvq773rs+GYRmEk9Pj0TZpNJZWqPio3F50/fh7Ufvo4+U67F6FsfxNavPsEnD9+iIKjXhVdh1M2/hyU6BkV7d2D53/6IRJRj2EVXIM5chTadu6Fj30FwFB/FoY3foXXfwYhNokW9+RTqOn78+OYz4XqeaVX1MXn8rX8cDof62+HgsXpVBvd0s8td3QjiJpP760bwro8EbwLj9bzo0pwoIAqIAqJA+CkQSTAefuqH14glgVt4rVdzg/FGWx23s8CrzwpXv6oA/Z767YQgU/Xf6r3qv80A0mPNyIi1IC3WgpQYC5KiLYi3mhFrNSHWYkaM1YQoswkWWjCbizm80RaxeXTkDcidMO5w+1H3qcFl3fi32Uwg15Z27dLuPREcVQ3GdV1gvHnchzJLUUAUEAVEAT8KCIzL7RGoAgLjgSoVGvUExhtgHWoE8WrgrrZGmjSgE3ZQBZvFhLRYM9JjLciJj0J2vBUtbFYkRJmVVV2KKNBYChDI7Xa7+tFwruHdG4x7wroRvM90gw9sFgLjgekktUQBUUAUEAUiWAGB8Qhe3HqemsB4PQvawM0JjNezwEGAOC3gVVUOBeD8X6wZSIo2ISfeiq6pseicGoNoi6nZxH/X80pIc/WsAGG8oqISlZUVCsydxZnMTVvGnS7rzjhzb8ndagPkAuP1vJDSnCggCogCokD4KSAwHn5r1lQjFhhvKuVr16/AeO1083pVgCBe5dAAri3kDkSZgK6pMRiQaUO75GhYxee8HhdGmqpPBWgZr6ioUD+VlZXV8G0OGsgDdVUXGK/P1ZO2RAFRQBQQBcJSAYHxsFy2Jhm0wHiTyF7rTgXGay3dmRe6YNxLjHiVMymWig2vdk/n7yhzFTJjLRiWE4fWiVFIjLYoEBdn9HpcF2mq3hXQMeWE8fLycue9bSKQ0yrutI47LeSn/+YgjHHlxn/7G6DAeL0vnzQoCogCooAoEG4KEMYfeOCBcBu2jLeJFOC9cv/9znORpYS2AoFap0J7FqEzOl/HPXnCCSElLy8PEyZMwNSpU9G1a1ckJyfDarWGzmRkJKJADQromHJayRlX7gRsdyj3BuTBuKsLjMttKAqIAqKAKNDsFRDLeLO/BQIWQCzjAUsVEhXFMl4Py+Dpnm7Mmq4s4Q5XhnRUu6i3tFnQLTUa3dJiVYy4bIrUwzpIE02mAC3kTrd1Arkz6zohXIN4XYBcYLzJllU6FgVEAVFAFAgVBQTGQ2UlQn8cAuOhv0bGEQqM13G9/IE4s7LxrGYN41UOmOFAVpwVvdNj0SM9BmmxYgmv4wrI5SGiAC3jOo5cH4PmC8g93dWdFnXvwRkC4yGywDIMUUAUEAVEgaZTQGC86bQPt54FxsNrxQTG67heRhg3nhXuOq6s2irO7NNVDrSItWBodpyyiCdG8yTxwIvd4cCpikqUnipHWUUFyivtqFRHTjnPKmch/FgtZkRZLIiJioItJgq26Gj1mhRRoKEVoNs6Y8gJ5RqwTwO5031dW831WLyBuduGYZW+uxt69NK+KCAKiAKigCgQogoIjIfowoTgsATGQ3BR/AxJYLwO6+WZsI1NVbulq7eqAZwQbkYVYsxVmNQuCZ1TYhAfFTgcq7hcRxWKTpZg24HD2Lg7H9sPHEZ+QSGOFp9ESVk5Ku0OnjIFW0w00uLj0DI1CW0y09E1Lxs9WucgLTEeUVaLOqdcXOLrsOZyaY0KaCA/deqUy1Xd6aZ+ZoK3QIBcLOM1Si4VRAFRQBQQBSJdAYHxSF/h+pufwHj9adkYLQmM11LlAOPE1TniDgcSooAxefHKIp4QZVFnMwdSKirtWL9zL5Zt2oa1O/ficNEJZQXPSU9By+QkBdnxsTHKEm532HGqwo5jxSdxqPA4DhadQHFpmbKMd2+dgxE9OqF3uzykJyUE0rXUEQVqrQCBnDBOC7kxftxfDDk787ZRJDBe62WQC0UBUUAUEAUiRQGB8UhZyYafh8B4w2tcnz0IjNdSTT/u6TxHnBZyU3WseFIU0D01BqPy4hEfRet0zX2WlVdg894D+HztJmzNPwS6qGelJqNzbku0y8pAki0W0dHRiImyIqba4k1IpwW9vLISpeUVOF5SigNHi/DD3gPYcfAIHFVVaNUiDYM6t8PZndshJSGu5oFU16Dr8eHDh5ULcnZ2NmJjY9U7jBMuKSnBrl270Lp1ayQmJtZoeec1uq20tDQkJNRtc6CwsBDFxcWIj49Hamqq25y2bNmCuLg4lbleSuMqQCAvLS0Ff/tL6FbTcWcC4427btKbKCAKiAKiQAgqECyML/nno0jJbYeuYyZjwRN3odfEK5HXd4jXmRXs3Iqv/z4DE+55CrbkNJ+zZ73PHr8T43/3JNLbdnLV0331vGAaNsx7C4X7dmD4jXdj75pvsH7umxj328ewfNazAY/Hn/zG9kNwmUJiSALjIbEMAQ9CYDxgqdwrGl3UPbKnVzns6jxxWsVjzUDH5CiMyI1HbkJUjeeHE7oPHCvCtz/sUD9HTxSjdYt0dG2VhbzMFohLTIE9Og6FFSbEW01ok2BGkhUorgRaxJpQVM6zy4HDZVUoKLPD6iiHveQ4Dh09ih/27Mf2A0eUVb5Hmxyc06MTOmRnKqt6TaWoqAirV6/GsWPHMHjwYLRs2VK5IJ88eRJbt27Fpk2bcPbZZyvo5SaBv0Jr6fbt2xVAE+BbtGhRU/d+3z9+/LgaB6E7KipKjTE3N1dd89VXXyElJQV9+vSpUx9yce0U4FpzA4dArq3iFgs9Q2o+g1z3KDBeO+3lKlFAFBAFRIEIUqC2ME5Arqk0FIwb+zUCe03jERivi0KAwHjd9GvsqwXGa6M4M6Tr6/j36R/llq6zpzscaJ1gxaCWNvTNtNUI4nRJpwV72aYfsfyHHbCYTBjQsQ26t2+LxJR0HK+Kxr5SB/aXOFBiB3qlmNEuke7pVThZCQxMt2DxoUq0iTfjeEUVfjzhQKm9CrlxZmTFmlBRfAxbdu3G6h934WDhcXTOycToPt3QJS8LiTanpdtXOXLkCL744gsFvQMGDED79u2VJZoW7q+//hp8f9iwYcjKylLuySdOnFDwRRDmD632BHpasXkMFuuzdOrUSUE0AZrgRlAj6NtsNgVsbIuwTet5TEyMuk63S8Dbv3+/eo/Ap/vYsWMHunTpotrh2Lg50LFjR9U++8rMzJTz3Gtz29fiGq6JTujGv3UyN2OWda6z/nEBuCGOQ2C8FsLLJaKAKCAKiAKRpUBtYdxoGc/q1ldZyVe/+7ISZ/KMV9Bh2DjMvnc6ti9biPZDx+KiR15FVKzNrd41ry5UVvWaLOMpOa0xa/pY1faIm/+AtgNH+rWMexuP3jygBXzOfdertjI798LFj72B0sIjbu1r67vus99lNygrvDXGBiP8V54qdXkH6D5PnSjC9/PfBefGotvQGvjzEAj1O0tgPNRXyH18wcC43jiLSUxyPcf6+WSr9EbxfB74Op/7rK59sfLtF3Foy3r17NODZfHzD7me+7C6592s4tUgXn2MmRPGnVbxeAswqGUshmbTPd1/wjYmYNtx8DA+/W4DVmzdicyUJFw0uB/atW6FA+VWrC+0K7gmZFtMQM8UC0a1tOJYeRW+L7IjyWrChXlR+POmU+ifZkHHRDN2FTuw6EAlTlZWoV2CGX1TLWhtq8LRI4fw1dqNyvLermUGLhrSFz3b5PoFckLw4sWLlRs47xlCNKF23759WLp0qQJeWp/pvn7gwAHk5+erG40g3q9fP+XKvnPnThw6dEi9TiBnW4RkvkdLOWGNgN2zZ0+XKzwhnZZ39sWf7777TgF79+7dlYs8+yZ4E9r5b9anlZ7j6927t6pfVlam+mI/VqsVw4cPD8idPrye5NAdrd3ODOvO+HFvMK4t5pyB1yPPJJt66C6ujEwUEAVEAVGgcRSoDxgvzN/tciEvLTqKL597AKNueQAlxwrc3NQJsiwadj+debuCYZb6dFP3NZ6CHT8omObGAAHBOB6jm7pxcyA5O08BR2Jmjhp3TTCu61GH+TPvwDm/uE+53rN9lkA8Chpn5YPvRWA8eM2a8opgYfyDu67G4GtvV/co7/MTh/LVJlTR/r3ge+fd8zT0phPv88HX3KaeDRbWO7BpjQJ2ArnerGvVb1h43fPeYFwBOOPE7U5LucOBHmlRODsrDh2SY2pcYlqqX/lsCVZv342ebfJw9ZihSElOxfz9ldhQaEdRRfXRZSYgwQr8rGMMKhxVWHzIjt0nHeiXasGkvCg8sqEMDgBjs6LQOt6Eb49UYskhuzLkE+J7JFswpIUFLcxl+Hz1Bvx38Qq0b5mBy4afhbO7tPd5BBphfMmSJQpw161bpwCY7uV79uxRluuCggIF0bRGazd1WtE/+OADXHDBBQq2CWMEcwL7t99+q8CMlmqCOa9hmwRvWtUJ07Sy829C/NGjR9GuXTvlKk/o5vt0SWf/jGHnGNg3QX3lypW49NJLlebz5s1TAE5rPu91jue8885Tdfm6lMZRgNZx7b1gPOrMYmGW9dOWcYHxxlkP6UUUEAVEAVEgzBSobxg3Tt/ops7XaSkn0NIabrQq21IyGgzG/S2HEcA9/96zeqnLGu4tRp3A4s0yruHDE8bD7LbwOlyB8fBaxWBh3LghZrznCdk6RwO9Q/geYX3i/S+o3/qe9wxLqa8QksZR3Yt7OjvWx5kxUZVyUXcg2lSF89skok8LG2JIwT6KcuOttOPpDxZg3c69OLtLO5x/dj/AloyP8+04WFqFMkcVHNVu8UlRJozOsqJ3qhkL99ux9pgdPK7cCONHy6vQJcmCwRkWJEeb8O8dFTh6ygF7FVQ8ebbNjL4pJpyVbMfC1d/j4/+tRasWqbjo7L4Y2Lmd15ESxmmF7t+/P3788UdlaaYVm5DcrVs3ZYHmb8IwLeMHDx5U7xOWL774YgXjdDMfMmSIgu/NmzermHFtzaYLO93eCWwZGRno1auXAma+T9BftGgRWrVqpdonoBPsk5KSFLBTQ47PG4zPnz9fWecHDhyoruO/Bw0apACe45HSOAro4864vjzijBDu6arOf7Oc4bIulvHGWSTpRRQQBUQBUSB0FfAH4/xyTYsY3U+1S/emBe95TZjGL950TWUxup/rBG4axum2biy0omV371+vME7Y9zYeDc/anZ7joNs7Nwg8YVy7suuxajdzuuMygZ0vGDcmtDPqZ3R1D927wf/IBMbDa+X8wbjx+eAz0G3cpW5eLEYY37xoDoybUxq6x9zxiHrO9D0f1jDuLYO6m3u6M4s6HHZ0S43GOTnxaJ0U7TdWnBnP565Yj4/+txZndWqLkb27w5TUAksLqrCz2IEKNll9SxHq6W5+ZdsoZS1fdtiO/aUOJEeZ3GD8yKkqxFn5mhnDWlixrdiBFQV2HCh1oNzhBPLMWLqtm9E9tgwLvluDlVt3qSzt00YMQusWZybS1DBOCzMzZBO2CcmM12bits8//xxdu3ZVrxOg27Rpo+oxznzixIkq2zqhmZZxWsEJ7/w3reQayul6TlCnxZqwT6s562iIZru0vtPtnBZ09j169Gjl+s7YcZ1Ujm1fdtllCuo+++wz1RZhnNZz/ptzyMnJERhv5I8qbqAwnMDhqHKDce2m7hk77rKSC4w38kpJd6KAKCAKiAIhp0B9WMaN2dSNFmFO1gjjRrdtoxDerMganLXVrbbZ1I1t7/9+lRtU+LOM68ztngtmtPaxbW3t1+67vrLLR0K2doHxkHt8/Q4oWMu48eSDYCzjEQfjRGRX4jYHjMeZ0Tp+UfvE6jPFfceKl5wqx/e78/HXjz5Hdloypgzph5ZZudhaYlFx4JX0NzcUWrm7JplVorb5+ZXYU+JAmR1IjDKhS5IZwzOteHVbucqozpIbZ8KANCsyYkzYddKBzccdOFzmBHKrGUiPMWFEphWlRQWYu3w1th04hMFdOuAnowbB6pFhnRZwun/TTZ3J1b7//ntlFSd0M+6bLuz8TWhnkjaCNCGL0ExgZry2BnW6lxOMk5OTFUATxmlNJ1zzfqTVmvHh7IeF8L1mzRoF3eyfgE7rPKF95MiRCsT5Xnp6urKcr1q1SrVLt/YNGza4LO2Eeu1qTxf7mrK+h9eTHPqjNVrHeW9wrbydO248a1wBusB46C+ujFAUEAVEAVGgYRWoDxjfueIrl7U40JhxbTX2jEOllZqFMKBjynXMdaBHm/kaz7alC1wwXlFWqkCaGwmelnHPhHLG+FkepaZjaXWMLD0BPGHc00ooMeMNex9L62cqUF8wXlPMeGTBeLW7Ol3SlWXcoQCR7umWKgdSok24sksKsuKi/J4pvvPgEcxevgaL1m7CzRPPVTHblVYb8kudWdA9S4LVpFzMGTO+6ThB3FknxmxCWowJreLMWFdod70eazEhIxrIsVSgorAI+6OTcAzROFXt887zznNtFmTEAKu2bMfHK9ahsLgEt0wajU65mW5ATis3k7XRLZygvXfvXgXJhF5CNDOY071cn0dO2KbVm7owvpvgTBgnOLPwPHL+8Bq2zfYI5YQzfdyZdiOnRZzgz+Rs2vrNf7OwLiGb13JcBLzdu3erzO0dOnRQ0M9+dJZ3xp/TKq7rymdC4ynAe0GfS8/PHU8Y95XITWC88dZIehIFRAFRQBQIUQXqA8bT23VxZU7nNLWburYc8zVv2dTpoq4Tmnm6kGu3eH3uuM7mHEg29ZrGozO89596I7Yt/cwt+ZR2WzdmjzZmQtdzYhuDr/0NTp08odx0vVnGjZnbxU29aR4A7RrbNL03ba/1BeM6TtxXNvWIgnHlrl79Q7CtjhOndTzWXIXe6TE4Ny8ByTG+z+8uK6/A0u9/xCsLlqBzbktcf965sNjilaXbW4mzmJAYBeXyfqDMHdStJqgzxwnke086UFnFJG8mJFmrYC0pRsnmzSjZuhWJAwYgpm1blFljVBZ2WshZGNJutZ/C8g3f46Nv16Jv+9a4ftwwJMbVfBxb09690nu4KUDrOL0kfB1zZowb59zEMh5uKyzjFQVEAVFAFGgQBYKF8QYZhDQaFgpoN/XXX39dWctCvdCVlePkl0Ba+GjFu/LKK3HnnXeG+tDrZXzBwHi9dBiujXiLF3dlUHcmbaOFPMFahYvaJaJDSgxiLL5d1LftP4SP/7cO32zejvt/eiGq4tLx2cEqFd/trfROteDsDIvyjH/px3K3KqnR7jHjJyqqMCjdgqEJp5C0dQP2PPEETu3fjxaXXILkiZOwo0UHLDjkUG7u3EsgyF+Qa0VK6SF8tHw1Vm3bhSdvuBx5GalnuKuH6/LJuENDAUI448YZP87PHn/njusRi2U8NNZORiEKiAKigCjQhAoIjDeh+GHWdbjGjDMGlhmbZ8+ejWXLlql40j/96U+49dZbw2wFghuuwHiAehlh3CNe3Omm7oDJ4VBx2Df2TEN8lMWvi/oClcV8HVISbPj9FZPwzm47NhQ5QJD2LCYTMCbLip7JFqw8asfXhyp9wvjMjWXokWLBwPgKxK/6Bodefw2lW7aomHZzXBzSJpyHxIum4GBeF8zeU4EDZU4g59nkfZMqcXjfTjz5/nxMHzccY/p0Q0ZSQoACSTVRoGYFtKs6QxNYtKu6t9hxgfGa9ZQaooAoIAqIAs1EAYHxZrLQ9TDNcIVxz6nfdNNNeOmll3D11VeDVv5ILQLjAa6sp2XcEC+ujzaLMVWhTYIVP+2aAisDsn2U4tJTeOvrFfj2h+04f2BvDOvbG69uq1CZ0b2Eiiv383FZVgX6c/ZWYG+JO7Bry/hFraLwxcFKtI+pRNzyr1A050OcXLcOjlOnXCOJyshA8siRSLhkKg5ltccn+RXIL3EgKdqEIRlm5NmP4pkPFyA1IQ4/m3AOOmZn4vDhwyr7OTerWPhM8BgznQCNls7Fixers8P59/DhwzH6rLNw4rvv4CgrQ/I55yAq7cwM7QEqXy/VmMjtP//5j4ppv+KKK9T4eZQaY9i5+fbNN9+c0Q/j3BnTzuPYmMWdCedCpbz44ovYtm0bevTogXHjxiGLsffbtqF49Wok9O2LuC5dgOqjwkJlzHocBHKeQe/LVV1bzAXGQ23lZDyigCggCogCTaaAwHiTSR92HUcKjFN4fnm/6qqrlIX897//fditRSADFhgPRKXqs8RVVWMWdfd48eQooE96DMa3SfJrFd+af0jBeMHxYtw0aSwKLMn4NL8SRV6s4uyRZ4YPa2FRMd7v7C7HKY+4cgXjaRZMaRWFIydOwb70KxR/MhfFa9byRmwjAAAgAElEQVTAfvLkGROMzs5WgJx8yWXYlpSLr48CB0qr0DPFjIHxpfjsfyvx9cat+O0lE9C/Q2sUnzihgPWJJ55QZ4f/8pe/xLnnngtmJGdh8rRnn30W//vf/xS8Tpk8GaM7dkT+P/6BqspK5N16K2ydOsHkkaE9QOXrpRqzqD/yyCMq6dxdd92ljmPj+eMMUfnwww8xZ84c1Q8BnFZazpOwSGBv3769Oiu9b9++6mzzUCj/93//pzLMDxs2TG2OtG3ZEofefBNFy5YhfeJEpI4dC2tKSigM1esYCOPUuKYzx3mxuKmH7DLKwEQBUUAUEAUaSwGB8cZSOvz7iSQY52rwS+9zzz2nMj5HYhEYD3BVddI2ZZR2P9ZMu6lnxpowPDsO/TPj/ML4F+t+wKcr1yMlPg4/u3A8PtrncMuO7jmioS2s6JFsRn5pFebuqzhjwDk2niduxvAUB45/8w0Ov/ceTq5fD3txsffJmUyghTx1/HgkT7oQ6205WFlsgc1iwllJlSg6tAd/fu9TleH9nB6dER8TpY4ye/jhh9XRZePHj8dFF12kzhUnUPG1u+++W2VEP+ecczB50iR0iItD/ptvqv5zr7oKcW3bwmS1qvq0njPbOf+mdZ3Aq48xY33GEzPrtoZjAjILEy3yx/N1/puQzcRgvJb1mf+BbetjsgKBcWZd5znoPFaNFnTOa+3atardCy+8EJMmTVI5JVg4PmZqZz3CO7Oz80f3x7lxLPxNV2yOiUe+cUzMMs9/cy7cyODYWYfX8z3+bSw6Azk/g3gdNxG4oeAG41lZyP/gA5Rs3IjUc85B6tChiKqGcW4qcKzUnf2zH60n++JRc6zD8XC87IPzIDBzDhwT9WShFvxhHbZT2+PhOBf2p63gxszqZ5w3LkebBfghJdVEAVFAFBAFIlYBgfGIXdp6n1ikwTgFSktLw7XXXounn3663vVq6gYFxgNcAS8wXqUyqdvBc8WZwC03zoLxrRPQITkGjPP2Vf67eAVWbt2Jbq1zMOmcoXh+SzkKy727qLONC3KsyIkzY1ORA0sPu8eLM2t6z2QTRiVVIHn3Fux74QWU/vAD7CUlqnsCsDU5GZbERFQcPnzaUs7kWbGxaHnllYgfOx4bE3Kxp9yK7NgqtDUX47YX38TEgb0xYUAPtMpIU8eFvfLKK8qdu23btrjmmmuUVZYgybPE7733XvU3rbQXXHABiRprly1TY+g1dCjSMzMVfBFwt2/frtrjvwniPFecR5TxNyGPx4/x3HECGl/Ly8tT7eTn56vj1QiM+hpCJF9ne7yGYyA88gg0HmHG3wT9mmD8o48+QqtWrfCb3/xGATkhm/OixZ/joTv45ZdfjkGDBqmj1Hbt2qX6JExzzDzjPDc3V/XJOfF11mFdgizHtHnzZnUuO3847j179qg2CMq6DV7PuRG4WQjEnDPb4nFubKdLly5qg/CHH35wWcZb5eVhzXffoXj3buR27Yq8zp0VLBPA2Q9d2rkBwg0HasJj47gWHDe1p6bcTOGGAT/vCOF04Sd4899MdMm+qQnPdCeEUy96DdTGW0AnceMcfSVxU/evnDMe4AeUVBMFRAFRQBSIaAUExiN6eet1cpEI49dddx2++uqrsMgOH+xiNjSM8/i/Jf98VB1baEtu2rjhYLVxq+8Vxh0uEGeCtHaJVlzUIQktbFZ1BJmv8sLcL7Hj4BEM6d4J/Xr1wlPfn1IHpfkqU9tEIdFqUsnb1h477aMeZQZ6p1gwLLkSOfk/Yu8zz6hjzBzlzmzrJrNZWcBTzj0XCQMG4PDbbztjyKvfV3Wio5E9fboC8v2pOThYbkL/RDt+8bc30KddK1w4qDe6tspWZ3wzLvyf//ynsgrTVX3ixIkK3hYuXKjyKhBCf/GLXyjrOF3W//CHP6hx8L8fZ511ljpn/NNPP1Vu4doiSiAnNA4ePBg33HCDcnOfNWsWPvvsMwWMBPvLLrtMtUNg5rUE5fPOO0+dekAL6/PPP4/ly5crqCXAEyz5w3FMmzZNwevSpUv9uql7wjj7I4wybwQ3IAis7K9Pnz4qNv4f//iHAm5tCedvQjY3IwYOHIgff/xRhbnQo4CAzUKQvfTSS9W4CPhvvvmm2kjQlmkCeseOHZUF/vzzz1fXrFy5Eu+++y5Wr16tdNcQTC3ZP+Pz2Wdqaqo6AYLgzutpyWe/7OeZZ55Rn13UmtcT9BliwDh6uuv/9Kc/VZsY7733HlatWqXi4zl3rjmhmbHyjLFne1988YVac31+PPVlyEKwhWvIHxZn8jaz+m2x8G+Tm67iph6sulJfFBAFRAFRIOIUqC8Y55nahft2YPiNd/vVyFiPX+bXz31TnfPNs4y9lWDrR9wChdCEIhHGCSFjxoxR1qJIKw0J45WnSrH4hYfRZ8p1SG/rdO8N23IGjPMos9Mx43RV75BsxeUdk5EQ7ft8cc7/8fc+xZHjxRjbvxdy2nTEP7a6H1XmqdE17aNB8F5yyI4fjp+G8YHpFgxJBTJ+WI3Dr7+mYsQZo60SygGIzspC6pgxyPrZz2COjsaJb7/FobfewvH//c9VhyZ8S1ISMi6+GEmTJsOU2wpmRwXue/19lcTtwrP7qrhxghwtp3fccYeCMSZBo6s6Ie61115TsEuwo/WY7usEViOMM976888/x6uvvqramjBhggLCdevWYdOmTcq6Soi85JJL8O9//zsgGGccNy3e3AggOBK6acElqBKgCbk333wzRo8erdzN/cWMe8I4wZfWZF5DwNWWcVrZ2R9BloDevXt3Zb3esmWL0oXQet999ynIJoxzk0C7ndP6zY0FWqMJvdSIED106FBlQSe4c+y0zP/xj39UwPvYY4+pugTVrKwspRkt7ARx6jhy5EifMM5nm8DPjURuTtCKzQ0OWrYLCgrU5xmT0xlhnOPlOOmOz3HT24B1qSUt49SBCf04P46PmxPUKNjCsfPeYRvsR2A8WAWlviggCogCokCzUqApYTwQoQOF/EDakjp1UyASYZyK8IstYYSuqJFUGhLGI0knJ+ASvjmragj3gPHOKVG4snMKoi3+7OLAQ29+jOKyMkwa3B85eW3x5UF313NP3UZnWVW3GwsdOFTmPIc8L86MLgmAbeVSnJjzIYpXrXJL1hbTqpUC8YwpUxBT7eZtP3ECJ1aswJGPPkLRkiVuQE5wTxkzFhmXXQpktsSzsxfgVIUd55/VE4M6t1PQRMvzjBkzsHHjRmX9JYzT0spYcgIeLdsEX8KmJ4x37twZn3zyCd544w1lQSe00wJLyzZdsAm0BEBaev/1r38FDOOER2Z6p7W3V69eynpLC/Tjjz+uYHX69OkK/AnLNSVw47g4Jo6f4+KcaOGmBVdbm9km50EYJgjTGs7xL1iwQM2Z8eZ0bSdUE8aZ+I6v0VKtrct0G+fmAOGdcMtx0wX9rbfeUpsIfI0JI2nVpicC61MXbj5wM4Awrq3qvmCcXgvcoJg5c6b6zTj/ESNGKJjn+nFsdFOnR4IRxqkl3c9/9rOfKS8Feihwo4IwzrVl5nZeRw+HFStWoEOHDmBm92CLEcadbuoWsYwHK6LUFwVEAVFAFGg+CgQL4wU7t+KDu67GoS3rkdm5Fy5+7A2UFh7BrOljlWgjbv6Dso4Toufcd716zVe9tgNHuizjRfv31tiusT7bXfDEXVj97svod9kNiIlPRGbn3ug6ZrJ6vdfEK5HXdwhKi45i/sw7cM4v7lMWPFrj9Vh5nbbKe5tX2Fv86vk2jlQYp7WI7rijRo2qZ8WatrlgYJz3/9d/n4GcngOw8Mm7Xc+sfma+fnEmThYcQm7vQeqZObBpzRnPkX4mEzNzsPj5h9w+D/gP4zPWfuhYl3u79pDhM7z89WfA9/gZ8unM29XnzOQZr6DnBdMaTkw/MM4zxmkZ75oShau6pvpN3sYBPvifOSgtr8Alw85C5zat1Vnf/kquzaxg/Fh5FcrsVTCbTEizOlD13bc4PvcjZem2Hz/uaoLZ0tPGj0fa+efD1qEDd5Jc71UeO4YTK1ei4OOPnUCui9msoD119GikXnwJ1hWVYM3OvRjYuR0GdGyjatGSSZfpjz/+WFmyCWYEV1pvCeWMG+/fv7+CKk8YJ+QSWGlVJogRvAmpBGC2RQCk9ZzW30Dd1OkiTeilKzettbRms226WBNq+W/meqBLO6G6JhjnuAm7tNSyHUI4n3tavwnCtALzNVrFacWmpZj/5hjYPi3o1INu8xrG6a7P65ngjvNl27Q0E6i5acDr+QwSxtkuN/xYnwnaOAe65dOqzY0PbmBwjIz95n+TCdU6m7qnm/rYsWPVeAjj3Ej53e9+pyzw1Jqx5oz/p26ebupMCsc1vOWWW9RacL25HlxfbrbQxZ6bCNwMmDdvnsofQG+HYAvXhhsep483c8K42Wyqdlt33rMSMx6sslJfFBAFRAFRICIVCAbG6ZpqBF1+id654isXfGs3dc9YUsaVsmhIN9ajm/q5v34QX/z1fhdA+2tXu7VvXjQHe1YvVWCgQX7wtbf7hXGO4bPH78T43z2J5Ow8NReCw+BrbvM5r4hc9FpOKlJhnHGRtFbRXT2SSrAwzk22rmOnuJ5T/XwRvAnG3HgjnBOq/T1H1FADu74uLjUds++djp4Tf6LAmp8JJw7lu4H9Na8uRFa3vupZLMrfpWC9YMcPDR+X7g/GHc4Ebt1So3B119Qab48/vfkRSsrKcdHQAWjXug2+L7L7jRlnJnUCOGE81lKFvBjg5KqVOPLBB+osbwK2sSSPGIHMadOQNGiQG4jrOhUFBSj86ivsffppdQ64dmvn0WO0kKdNmoT4seOw6eQpZGdmoE1murqUgEqI/Mtf/qKsxnSnpiX67bffVlbf2267TVlK6f7sCeMDBgxQ8ElLK63UvJ7JwQh5TFhG6zAttwRyWs+9xYzPnj0b/GH7BOypU6cqCOYmGV3KCXe04LIwSRzjnZloLlAY58YA58GEZSwEccIrX+vdu7eyvtNK/fXXXyvXcUKx08XapACVc+K1L7zwggvGCbf0InjggQdcS8SkbbQq84ebCBwzNwEIz/w3YZzwzM2L+fPnq5jtKVOmKOu8Ltz44Bho2fYWM85NQ1rsn3rqKXXJo48+qrSlmzrjx//73/+qc+OZkM5oGafFntB+4403qs2D999/X60Htbj11lvBdaSHBC3rtJjXBca5ucONBqNlXGC8xo8PqSAKiAKigCjQHBWoC4wb9fLnTm58z1sMuCeM+2pXW9B0/Vb9hrksZvxyn5Lbzi+M7/9+lQvgGaPu2Z62pjfH+yCQOUcqjBMa6J7a3GFcAzaB2+hRQs8XY6I2PsMa1L09R/q5NLbB+4uW9wn3PKWSvRmB3rN9/SwT2rXFXl8XyH0adJ0ALeM/7ZqKGrzUMfPteThWXIJxA/ugRV57vPyj/5jxn7aLQrzVpM4CzzCVo0vhbux/6SWcoGu6wSKu50TrdvqFFyKhXz9Yqo+k0u8x0VzFoUPKKp7/97+jktdzM6G6MOkbY8izrr0WtuHnwJabg6joaPUurZgEKLql06pKKzBdmQnZBGO6RhPgvME4YZbX0vWaFmC6OhNe+ZtWYcIewZBHCRIUCaGEVCYyo0WYhdZYPoMcBwGbyd1olWVMNEGaEMsfXsfEa3QlJ6gGCuMMQbnpppuUqzoBWx+RppO00Yr95Zdf4u9//7uK8SZkMz6eIE0rNSHdE8Y5VwLzPffc49KYEPvBBx+o+TPOndrQM4DwTbd7DeNMlsb5EqAJ47TOs3CTgfH4Gpy9wThdymllp7s+9SK80wrObOrcDKG1m315WsbZJl3iaQVvChiXBG5BfzLJBaKAKCAKiALNQQF/MO7NdVtbuLYvW6jcSXUmZSNkaws6Xch1Mbqve1rGaUWrKCtVljN/7fqD50BhXLvO63HpOfDf3vpvDvdAoHMUGA9UqdCo588yzufF6ErebdylbrDsCePGRIvGEBTjczTx/hcUtHsLEfEEbn/thxKM0ypOoO2UHIVpnZNhs5r9Lu6zcxZi35FjGNG7G7p06Y6/bvafTf2S1lFon2BGjNmEtOOHkP/88yj88ku3GHG3Dk0mpIwahRaXXYbEAQPU8WbVNI3KwkIcW7gQB2bNQvn+/d7HSRBNTETru+9G0tChZwD9yy+/rKzRhEnePwQ8wiEtyARTbzBOCzqt6rRY82gtgjQt2XTFZlt0nWbyNVrdCat0hSf80t2a7ugESp01neBNwObGGN2/mUyMceHcDGAMNzcHbr/9dmV1DdRN3Vs2dU9xuHFA12wmrOM8OVYCPK3zHC9h2huMM0kax6kLYZ4WZx7Z9qtf/UrpRss6dWWSO+2mrmO76dZOvQjdtCLTsk6LN7X0FzNOK/uf/vQnpTO1oWZcB2ZmZ5w33/eMGW8sGJcEbqHx+S+jEAVEAVFAFAgTBYKxjHtOyZgNnW7jGrI9LWc1WcY9s6n7arc2lnGjBY6W8UAyvgeS5T1MlrdehykwXq9yNnhjwbqpGy3jnpZrTxj39hx5hrEEYxk3th8KMM5zxvUZ44Tx9klWXNoxGckxFr9Hm722cBk27t6H/h3a4NyzB6qjzRgL7ut4s3HZVvRIsSA92oTEU8XKqr33L39BxZEjp5OwedwpppgYJA0ejKzrrkNCr17qXbqkH/nwQxx+7z2c2rULtJJ7K4T3+F69kHfrrYjr3h10XzcWZjB/5513VCZ0WqGZVfzPf/6zcuPm/eQLxul6PmfOHHXu9uTJk11HbzGuWmcsp9WdSc/o+k4LLuGRx6LRpZ31CK0EYA3jzFxOCzCBlu7VPCaN46ObPEt9wjgToRHGaXXnvHWSM50ZnRb+QGCcSdkI49zEYNw9E7ZxvJwfs5fT2k43dVrE6V7O+HQmXiOkUw/Wpbs8PQ38ZVPnZgQt4Mx0Tys/Nyro4UMI5w/f98ym3lgwznuEFn7Jpt7gH/HSgSggCogCokAkKBAMjHtLhuYtZtwI49rizWRqvmLGh994FxY9dZ9bkjVfsejGmPENc/+jLPMlxwpU8jdjzDhjwXV/y19/WsW7shiBQ8et+us/Eta4vuYgMF5fSjZOO8HCuH6G6B5ufIYZM26EZSOo06VdP0ee4SbGz4uaYsZDC8arQBhHld0F5K3jLZjYNhG5idF+YXzeivVYtG4TctNScO0F4/DGjgrsOWlHuY88bjzCbEC6BSlRZpRVVKKNoxgF8+apmPGyXbt8AjndzROYFI3niHfpohK9HX7nHRxfsQJVhrPGjXea2WZDXJcuyPn5z2Hr2g2WhHjXmc+6HpOTEUhp0SZ8EggZY0xrMYsvN3XCOyGUrtt0cSdsEshouaWVmO7oTBBGqGWcMt3P+R6hlfDLa5icTVvGmaGcFmm2STBlPf4QOGlNpiWblnWCP/8dzNFm3p4+WnMJwnSN1xZ+PS6Ok5sH3Ayga7g+t5tz9bSM86hEuqnT8s0NDF5DHTlvasvEaXQTZyI1akCrPfujXtSYmxncnODmAN3MfZ0zTg8EeglQSx4fx6Rp7Itx8Ew+x/FybD/5yU9c420sGNfnjGsYd8aNO3/knPHG+eyXXkQBUUAUEAXCSIFgYJzTMmYj98yIzCzldEcfcPlNbi7f/afeiG1LP3NL1sR6xuzoxuzMvto11mesqna1Zf3knDbQsapG9/qxdz6K/A0rvWZT99YP52h8PYyWssGHKjDe4BLXawfBwjhjumMSk9QJBd6ynRs9WLx9DkTF2vyeZFBTNnXdftNbxgni+ogzJnCzI9tmwbl58eieFmtMYH7Geq3ZvgfvL1uFiv+f+fvnF47HxjIblhyqRHGld9t42wQzRmZakRxlwoZCOwa3sCD56AEcX7gAR+fPR+nWrd6BnGeIE1AHDEDLn/wEpqgoHPvsMxxduFDFjXsWxpfH9+iBFtOmIa5/f1htcWAMuSEZuwu2aQ2mezbhjpnRac2l9ZWFFle6jjO+moWJ2ZikjYm/CIB0SScoE24JzgRRJn5jEjcmK+P1dGnnD13hWQiorEcAJbCxPuOtaUlmIjRax3kdLci0nPOoNCZY4988Vo0bBLS48zct6HydcEtLO8dDaGXfjFsnxPoqHPf69evV2NgHYZpJzDh3joG/OV8+V2yXFmhuNBB6dWEbhGNavBl7TrimhoRljpma0FpOt30COutRN+pHvTlvwj5j4qkrY9wJ10zIxvY6duyo2uPGhD6/nJsY3Pjg9QRhJpbjxgITvXETRGdZ52YA49eZOZ6bHpwD50vNGSPPdeD13EjgmDh/Y2K5QD+cOP6Kikp1bxlBXGA8UAWlniggCogCokCzUiBYGA9VcYxf4EN1jOE+LoHx8FrB2sB4gyZKC1X5zkjgZoDxKody+U6PMWFQpg3DcuL9Hm92uOgE/rt4BTbt2Y/LR56NVq3b4987ynHklHdX9QSrCXRVz40zYelhO1KjTRiTZUX0gb04tmABjhHIt23zqZyJwMtjyCZNUhbxY19+qWLOjVnYLfHxyjU9ffJkJI8ahf3HTyI9KQG2aGd2cs9CsNPHchFqdRZzXY+gTestCwFQZx3n6wREAinhk9cRggl1GuZ5DS2mhE0CKAut4gQ1wjTfI7Dyh4XtEdIJ44RKtsXxsS9ew3q8z/VRWrQusy++xmu0lZZjJNTyt7/C+oRszo9j5w/7Yftsk3rosXIMnCPbNRbCKDcCNIxzfixsm4XjYztsj3PRddkOgZg6sG1jPY6H82F/2h2dGxDsi5pwA4KATis7zzTnZsqll16qYJrvebbJOXA87J/j0NpQf6NmhPZgS0lJKex2wrjzKDNvlnGdOM9UxR6liAKigCggCogCzVgBgfFmvPhBTl1gPEjBmri6wHiAC+DCAUI4aZHW8GrLeDWMJ1iBrinRuKhDst+M6o6qKsxZvgbzV21Et9Y5uPG8UXh9RwW2FTtQZvc+nhGZVvRONWPnySpsLrLjipaVSCk/icojh3F8+XIcmT0b5fn5PidDqzgzrPP88arKSuXmXvT11yoJnDk6GvE9e6pzyZOHD0fFyRLssANtslogweYOkQGqJdVCQAFa3//2t78p6zbj+nm0GTcOCOPMpM5NCWaPZxI3nlPeWIVoffJkCaqq9LFmZ7qoE851ERhvrJWRfkQBUUAUEAVCVoFIgfGQFTiCBiYwHl6LGQyMh9fM6nm0RtuchnBSucOhoIJgboVDuarf0DMN0WaT3wGs3rYbs5evwe7DR/H49EuxuSwG3x6tUseXeStdksw4K92C7FgTjpysQNaO9ajYuAG2Tp0QnZ2tLN0HZ82CndZoP4nZCNwtLr4YTPC2/8UXUbxmDWJatULmFVcoF/WSLVtQvG4dMq+4EtEtMk5nYq9nOaW5hleA3gJMCvevf/1LWeBpSWch6NKazZj0q666SlnatRW64UflDGOgi78ey+lzxp1WcmPMOOsIjDfGqkgfooAoIAqIAiGtgMB4SC9PSA1OYDyklqPGwQiM1yiRs4Kbo6zRRd0YN+5ASpQJV3dNQYbNCqsfID9eUoqFazbhjc+/waXDBmB0/97Yb49BwSnvMB5vBfJsZuRFVaJ0507smfGwyoge37s3MqZMUS7mRz/5RAF5ZVGRz0kxQVvKiBFoec01sKak4NCbbyJ5xAhEt2iBwsWLcfDf/4ajpATpky5E5hXTEJOXF6BAUi3UFNDu5HSpZ3w3fzM0gNZxxrkzJp2u50YrdEPPgWOiOzxd5z3d040gbtwcEBhv6FWR9kUBUUAUEAVCXgGB8ZBfopAZoMB4yCxFQAMRGA9IJncYd8WPeyZxcyDOApybF4c+GTbER/k+b9zucGDj7nz858tvsfNgAe65/AK0ymqJMlhQUun0hDcWiwmq7RRrFawnirDrkUdwYuVKZQUnkDMePKFfPxx+910F5f7OEI9KTUXioEHIvuEGldSNbRxdsEBdd2rvXlji4pB7660K2q1padV7Ec44YVpXdQQvY6sZn2yM9Q5QTanmRQFar1kY1+2tEGCZFZ5J2wIFaK4VAZzx7DreXseZe8axN8ai0CrOGHSORcO4zifgDcaVlVxixhtjaaQPUUAUEAVEgVBWQGA8lFcntMYmMB5a61HTaATGa1LI8L63uPFqV3UdQx4FB9omWjG5fTLSYv0nAissLsG3W7bjuY++wMhenXHR4H6wJWdg03EHdp0885wzNtcqzoxz0oETK1bg8Ntvo3j1avodq7PE6WpuTU3FsYULUfj55yjbvdvr5AjbBPfWd90Fc0wMjnz8sTMJ3I4diEpLQ/oFF6j48mi6LxuSpDGDOEFKQxOzgNPFmRnMpdRNAUIzzw7n88hs5t4KLdsrV67EmDFjzkiYV7feG+9qbgzoxH7+Ere5krcJjDfe4khPooAoIAqIAqGrgMB46K5NqI1MYDzUVsT/eATGg1gvI4zzMhU77u6mbqpywGauwuWdU9AmMRrRNGn7KEzkdqjwOGZ9/g027NyHsX27o3fXLjhqScLyI5XY7xE/TkN763gzprWJRrKpEiVLFqNw3lwUr1qleuARZi2mTlUAfXzpUhz7/HOc2rPHrXdzbCziunZF2nnnIXnoUOWafmTOHJTt3Klc1emynjl1KqJzc2EyZBVn9vOvv/5aHS9Gyy2tmcySzizgzGDObN+0nNPaynhkWl9pyXUm6zqp6vJ1Ahito6zPNjTcs01mD2d9vsdraXXnNWxTZ0Lnb1rn+Rrdrb3FOvN9PR5mFeemAdtimzw6jGPQZ22zLsfHsTB7O+vyfdble8xCznHxPYIkf2jVZd+cL8fD93kd58z3eBwZ58jX+MO/mRWeY+X8qAULLeFsg/9mvX379qnXeRQa+9Pj4liZbI3v82z3K6+8UvXJoq3MfJ9z0Jrzb31UGudBfaklx8K2OW6tYWN5NtTkos756I0efdOKZTyIzyepKgqIAqKAKBC5CtQFxitPlapzhahNBQcAACAASURBVPX53g2pkhxd1pDqBta2wHhgOoVKrVCBcf050WvilbClZIDnmYfcEWpe48Z1RnXnbx5xBocdI3PjMSDTpmLH/ZXySjv2HDmKF+Z+gbLyCpzTozP6dO2CvfY4fFtQqY47qzQYyROtJgxuYcXgDAti7OUoW7YExz+arSzkVadOIWX0aBVDzgzpRUuWoOCTT1Bx+LAaAiE9rksXBeJJgwfj5Nq12P/qqyg/cABR6elIGTUKGZdcAlv79mcMmTC+ZMkSdO/eHRkZGQpu9XFmdJ3mOdaEP4IdLeWEWJ4RTqAkcPLorMzMTPU+AZJngxMytes0oZ4Zv9kWzyhnHQIl26FbNvsnvGr4JMC2adNGQbGx8H22QXDleAiptN4TXml51lDP6/QRYdu2bXOdyc16Gqo5Nvbfvn17dQ65jnPW53WzX1p5CbU8m5wZyXnWuIZxAjBfZ3tr165VY+V4CN5sg5ZuDefsg2ems3C+u3fvVhsH+ux0jpUbDJ4wzjaYqI0Az7apnT7ejOPlurBwHFw3rgdf027ijB3nHD2PpmuIz6fKSjvKy51HznFtneCtM6mbXInb3OLFxTLeEEshbYoCooAoIAqEmwLhAuPhpmskjldgPLxWNVRg3Khawc6toQnjdEl3BXNXW8U5cH3Mmc6s7rAjM9aCCW0S0SU1xu+Z43reSzf9iLcXr8CpikqM7tMNo/r2xPYyK7465ATycjJ+FVRbcRYTrusQhRizCbGOCljWfIejs17FyQ0bUGW3I3XsWJUx3ZKQgIK5c1Hw0UdwlJc7s6ZPm6bixVl37zPPoJIW6vh4ZEyejPQpU2Br187rDUwYXrx4sbKEa8s4IY5Q9d1336nXCXuESL5GsCYYEk4J8IRNbckmVL/88svo3LmzgkgCJcFx5MiR+PLLL5UFl0BPqKVFuVu3bgo4eS42XbgJjmyDffbq1UvBPqGW0EsQX7VqlQJktk345njZPoF44MCBCkh5vBfHRKjnJkOnTp2U1X/dunWqfY6fzwZd86dMmaK8AtgG22RfzFLeo0cPdc3BgwcVYLON+fPnq/FyLIReAjqvefvtt9GvXz907NhRbSxwo4J9E7w5T2rBvlmY5Zxz5ThYj/DKjQfW94RxbhJQ8z59+ig9OEcd1895ckMiJydHXcsx7dq1S2nEcbAPXtOlSxf1uyGL0SpOXU/DuHsG9TMyqQuMN+SySNuigCggCogC4aJAbWCcVurFzz+E7hOmqml2HHE+el4wDdoCtvrdl9Xr17y6EHl9h2Dvmm+wfu6biIlPxPLXn0H7oWMx/Ma78enM23Foy3pMnvGKup5lw7y3MOe+69XfmZ174eLH3kB6207QlvGuYyYra3xiZo4aA8uIm/+g2mNhX7Omj1V/97vsBoz77WOwxthACPjgrqtVf8Z2w2WdQmGcAuOhsAqBjyFYGDc+I3xGL3rkVdiS0+r8/CZn56lnNqQt41pWt9jxMzOr0zpurnJgZG6cso6nxfq3jrPZSrsDSzZuwexv12L/0SKM6t0FPz13CArtFiw5bMfGIgeKyp07AQTy7skWTMixwu4ASopL0HrPJux9/DGVgI2FFvIWl1yi4r6ZMZ0x5i2nT0dCnz448d13OPDqq866JhNaXnmlSgAX26EDTIbznY13EQHyq6++UlZUwjJhigDH+4eQftlllykAJnwTTgnILIRAQiphVVs86Sb973//G5MmTVLWaZ6HTXAlrH7wwQfqdVrR2Sfb067gtKQSStk3rdx8nxD67bffKsAm0HIMjKueOnWqK8kZYVe3wzO1CYYEcM6Dbuzs/9JLL1XjI+xyU4FncrP9Dz/8EFdccQWWLl2qrMt8nZsHs2fPxuWXX66s+7Tys3/C/bx58xToEnxp6eY8unbtik8//RTTpk1TOixbtkxZpocPH67mwvFwbgR+Fm4YcLzUhFpRS2Y+p96BwjhBnpZ0tsNxcUzUYefOnWojg+tIqz5hfcCAAWrzoSEL+9EJAHWsuNMqfiaMcxySTb0hV0PaFgVEAVFAFAg7BYKFccLyhrn/UV/US44VKMAdfO3tCqYJzCcO5SsAPrBpjYJtwnRp4REFyITzrG591Rfzovxdqo2CHT+o6zz/JgTwdRaCtieM83XPfvjaZ4/fifG/exIaAAjtg6+5zQUDenNg54qvXAAfdovWRAMWGG8i4WvZbTAwXlp0FLPvna6eCT4jns9yXZ5f4/MXsm7qvmBcWcyrf1zWcQdy4iwYmm1Dvxa2gM5xPlFahnU79uLzdZuxYdc+dMrJxAUD+yI3KwtFVdHYesKBLScc2F/iQKzFhBEtLQrKo1CFsuPFyNr7A/Y9/zxKf/xRuanTAp5x0UWIbdtWuapbUlJwfNkyFHz8MUq3bVOJ3xgfzrPHWYfJ3HwV7aZOa7B2Uydw8vUFCxYoGCdoEvZozaWrtI6bJggSfHUhYL755puYPHmyAlzCMK3oBGvC+AUXXKAsxmyHVl9aerVbvIZxvk4oJtDqeG66aRNgabUmXBO0eX8TQmkRJoSOGDFCwe+iRYsUSHOzYOPGjQqUWTgXAjTHwvbff/99F4xzTNww4LgI6YzdptWd/RlhnBZ+joXjpiYsc+fOVfWpAzcCCKbDhg1zxX6zDjc1COnUixbunj17qja48aA9DzxhnNZtasF14bi5EUHducnBvjkHQjld3jlXfdY4dWQ9asS2dRx7LT9G/F6mj1jTGzSBWMUFxhtiJaRNUUAUEAVEgbBVIFgY94zd9oRkWr/4Zd4YT56S09oF3BqyU3LbKYD357ZK8C/ct8MrjOs4dULE/Jl34Jxf3If936/CntVLXdZwbZE/99cP4ou/3q8scxyblNopIDBeO92a6qpgYJzPit4U4zNqfC6NG2a1eX7DF8a5ct7PHY82V6FHagwGZ8chLyEqoCU+XlKGH/cfxPLN2/HtDzuQlhiPbq2y0aVNHlpkZMIeZVNnkdN1ne7qnZPMaBlrRoXdgZSqUzj+zTc49PbbOLlxI5isLfGss5TlmwnZjvH4MmZN37IF5vh4pI0dq+LLY1q3VnX9FUI3rcO0ohL6CHEsdHkmjBI+Cbf8N63ThEFCK2GVcGmEPcLzW2+9pSzgRhhn27QyE9Z4HQGX8NihQwfVLoGcEEnLKgGUYyL4GsGNVnm6e3OjgC7itMjSCkzIJfQzRppQyGv5t47nppWbhbBLF3kjjBOiCdBGGKdlnBZzDeN0YacF/IsvvlBwS+jmuNgW/6bFnMDPv+laTsDWY6SFmtcSwDlOzpFgThd8asBNBLrncxOEmwjsVydw4yYGgVwnm+OmA/vnGrHQvZ/Xsx1a1+llQIs950IYZ126sfs6Ti2gm7aGSpwTf7gWgVjF2ZzAeH0oL22IAqKAKCAKRIwC/mDc07X7wodewqp3XnRL2KZhvMOwcW6WNQqk3yOM001du4wbgd74pT8q1qYs2NrNnW1oF3Rf0O8J49rFXS+Qdrflv2n5275soXKT1y64EbOQjTARgfFGELkeu/AH4zrURD9jbQeOdIV36CHocA56ttTl+Q1PGDeCOF3I3bOr0yKYHmNC7/QYDM2O93vuuHFJGTd+4FgRvtm8Het27EFRSSlSE+LRrmUGWrVIQ2pSEswxcTBHxyIrPhqZcVblus687fbSMhQuXIiCeXNxcv16Ze1OGjIEtk6dUPjFFyjduhWWpCQkDxmijkKLbd8eJmvNbvQEaEIfAVbHjHPMhFDCHaFQu1wTGgmhtMoSzI3wzmt0ArfevXsrgKc1m9ZbulPzGp2EjHXZF/vk64RXxmgT6AjnHBNd043gxvEQyAm7BFa+R/DkOBgnTgAlFNJqTAjlvwn2Z511llqC77//XvVJ+GX7jD+n2zjnzph3unMTbtesWaNeZ7s7duxQMMzYcP5NKzS10MnsOMcNGzao+tzE4PWcM+ekNzUYt00dNSBz40BnYue4uGnBfzOGne3oDOg6IRuv5Viord4MoBbUlW1ys4TzZX3qy+t5f3Jt+NNQlnF9rjj14VoYjzPT8eHG3/o5EBivxw95aUoUEAVEAVEg/BVoLMt4IF/mty1d4GbZ9mcZ11ZuTxjXlnR/K6Mt5npzIPxXsXFmIDDeODrXVy/BWsaNz6hxDJ7Pi6/NNF/Pb1jBuGJwnclNJ3XzFjteBR51lh1nwTk5ceiRHguL2aSgOZDicFRh3c69+N+WHfhh3wEUFZciOsqK7LRk5KanoEVSIpLjbYiNjnICaRVjz+2I5/Fqa1bC8flClGzaBEdFBaxJSbCfPKl+Jw0dqizijB8PtBCqaFHWgGu8jlBHiytBkO8TClkIYIQvgqkRrlifoMi6fJ9WU7avrb18jz8ERkIir2UdnfiLv/UxY/oaz/FwLDrTOcfDfjgeJoTTx7LR0q6PKtNj1ket8T2OieMgyHLubMPzdT02zolgzd86zptt8od12K7+m2Nlv2ybuhGyea12IdfHwnH8OtZeQyzb4XiMeurj2fga29Fu4PoYM/7mhoAeO+eij00zbqwEei8EWs/TPd1oFbdYmEn9dAZ1tqnnZJyber2KLUkRBUQBUUAUEAWasQLBwrjRnTWYmPFgYbyirFRZsulW7i1m3BuMcxl1zLhO+sYY9uE33oVFT92nXNn5OucgMePB3/QC48Fr1pRXBAPjnjHjxtwQdFOvy/Mb1jCu4Lz6/9TxZvy33XUGeZSpClk2Cy7pmIz0WAusNGMHUewOB/YVFGLtjj1Ys203tu4/jJOlZaiw21UrFgKv2ayGcKqiAt1bZWNyny7oejgfh2bNQtm2bSrLuiUuDinVmdbje/UKYgRSVRQITgHiMzcJuOHAYgRx56bKaRg3grjn3wLjwekutUUBUUAUEAUiVIFgYZwyaBdXunu3HzIWcWmZAWVTr8lNnW0bXcn7T70R25Z+ptzbl896Fowz19nUvcG4Bm2dTd0zI7S31yN0WRtkWgLjDSJrgzUaDIxzEL5OHAjUMu7r+TXmbAj5BG56NXxZxz1jyB0OEMjbJloxsV0S0mOdbuXBFMKN3cEfh7J+7y0oxP6jhTh6ohjFpadwimc3m82wRUcjIylBubRnxUahcuMG7J4xA5XHjiF94kRkXHwx4nr08Jk1PZgxSV1RwJsC6l6125VnghHEneeK+8+e7mkVFxiXe0wUEAVEAVFAFPj/bmK1gXERrnkqIDAeXuseLIyH1+waeLRuzrOe7ur8twNV1WeQ0109xgx0Y0K3rDjkJhDIgyTy6umw2/LKSlRU2lHpsCtI1468PCrKarYgJsqKKLMJjhMnULx2rXJXTx42TMWO15SsrYFVk+YjWAFtEacrvHvCttPx4r7c0xV4e3kmxE09gm8YmZooIAqIAqJAYAoIjAemk9QCBMbD6y4QGK/jevkFcofLVZ2QQiCPt5rQJSUafVvEom1SNCy1BPJAR80zzx0lJcoyHpWRAbPNFuilUk8UCEoB3uM6czrj1FlOu6e7w7gGb7dEbT6eBYHxoJZBKosCooAoIApEogIC45G4qg0zJ4HxhtG1oVoVGK8HZY3u6mzOFT/utI47zyCnlfw0kHdMjkKfDBvaJUUj2lI7C3k9jFyaEAXqRQHCN2PE9RFmxszpRtd0wnkwIK7qSgK3elkjaUQUEAVEAVEgjBUQGA/jxWvkoQuMN7LgdexOYLyOAir4NuZ6rv5bAbjzR0G4iiM/DeSxZqBNYhQGZNrQOjEK8VGWoOPI62Hk0oQoUGcFCOJGi3ggIK6BXHfuzT3d9Z7AeJ3XSBoQBUQBUUAUCHMFBMbDfAEbcfgC440odj10JTBeDyIq0Da2c2b8uAZyxpCbqiGd+c9TY8wYkmVDp5QYJEVbEGUJ/Oiz+hi5tCEK1FYB3tP6yDvCOIvRLd1bsjafx5f5CdcQy3htV0iuEwVEAVFAFIgYBQTGI2YpG3wiAuMNLnG9diAwXo9y+osfr86w7nRVJ7lXASqutgrmqip0SI7C2Vlxym091up05ZUiCoSqAjo+nOeeE8i9ZUrXrwWbsM1zzgLjoXoXyLhEAVFAFBAFGk2BcIJx4xnntuS0RtNIOnIqIDAeXndCqMJ45alSLHjiLrTqN0wdidgQhce0ffb4nRj/uyfBIw+9laDHESyQKzd2Z6b1pCizcllnxvV2ydGwCZQ3xLJLm3VQQMeGMz6c2dLV5pLhuDIjgHuLDw8kYZvAeB0WSC4VBUQBUUAUiEwFwgXG+cV58QsPo8+U69y+XG+Y9xYK9+3A8BvvjswFCqFZCYyH0GIEMJRgYLy06Chm3zsdeX2HuD1LDfF8cVNt54qvavXMaoBe/e7LZyjQ77IbMO63j8EaY8OSfz6KtgNHqvno4nleerDjcF1/56OqD2UB1wnd2ImOJXedRe6EcW0tZ7b1tBgLMm0WBeatEqOQGmOVJG8B3MtSpWEU0OeGE775QyDXR+lpq/dpCDeDx+vp1zkib67p/mLEBcYbZh2lVVFAFBAFRIEwViBcYNyXxA0BC2G8nA06dIHxBpW33huvDYwXHzmIix97w7XhFcrPVyDWb6OonjAerOBnwrgicGczxizrbjDuTPCmAKc62Vu0CWhhs6BlnBUZNitSYyxIjjYjMdqMhCiJLQ92XaR+4AroWHD9m/B9+oeWcCdgG39qckn3hG+B8cDXQ2qKAqKAKCAKiAKoDYzzC/qc+65X6k2e8YrL1ZTWqMXPP+T2urZkZXXti5Vvv4hDW9ara2jNZt32Q8fiokdeRVSsTbmuetbTbqz8Ijxr+ljVtraAHdi0xvXaiJv/oCxt3uppS1n5yRPY/s0iNQajFY1tGsd+zasLlUXN0wrn63WjBpF8SwmMh9fqBgvj82fegaSsXJw6ecJlYTbCuCfM6vcGX3Ob12fX8xlnaImvZ0qDNRXmuPmZUHKsAB/cdbV6XvXnhDE8xReM83Vv1xnHz374eaMt7PrZ5rVf/30GcnoOwMIn70Zm516uzQl9fUx8Ipa//oxzTDNegS05Vc1r0VP3Ys37r6qb5KoX5yG399k4umsrlr38BGISE7F+zr/U3Kb95T1k9xigCL5o61qsffEhdO7cCUPOn4L+54xGXHSUspZHmaHOKleAFF63Xr2M9sj2zejevXu9tNWcG9GWbv7WlnBtAddnhnsCuNEqrp/Jmiziul4wWkvMeDBqSV1RQBQQBUSBiFQgWBg3fqGtKCsFv8Cf84v7sP/7Vdgw9z9uX6LPu+dpZHXrq770stCFVAM0AbbrmMmu2FH9d1H+LlcbOuaT1+q/k7Pz1DWJmTkKvo2wYPxy7lmPsM2xG7/kc3yEbs82+GV8wj1Pqc0DFg35n868XX0x51y1azzde7987gGMuuUBRHocu8B4eH0E1AbGh0y/A6vefQm9Jl55xrNRE4zX9IxzY43Pobdniq8RoPUzqd3me078idrs43UnDuW7NglY3xuM6+v4zPLZNl7Hz571c99UbSyf9azfcXQdO8X1+bJn9VK3zy6Ce1a3PljwxN3Oz6Gf3YUlLz2G4sP5GHv7TBzYvAYLHv8/Beosc37/Mwz66a/QbfwlWP7aUyg+cgDn3nI/jh/Yhy+fux+jfvUAklpmY/ELM5CQ0RLDr/41EqNMiI8yq4RvhHKzn4zU4XVXBj7a+TNvx3PPPRf4BVLTqwJOK7gzZMIIzN6Sr/mCcm/x4HWxiOuBCozLTSsKiAKigCjQ7BUIFsb55TYlt90ZiZc8X9dfurXVTCdr0pYnwi7hVV9nBHNtDdfvcZH0F2JauY1QsHnRHBcYE6p91TN++dbWOQKH3izQ8KFvCM8v9cZrCvN3N8s4dYHx8Pq4qA2Mc2OttPCIei65cbVt6QLXvV4TjNf0jHcYNk7FpWtQNj5TtpQMt4Rrnp8T3sDb22ueSR6N7RTs+EHB+PAb78LcB28OaBz8HNAbjkZd+Nnl8gy4+lZlRe/JDYw+Zysr+cKn7kWrvkOUp8+ip+7G2DseRVrrDti39lts/OwdjP71g9j61TzsW/ctRt1yP6zRscjfsAKbFryPkb/8I6wxMW7x6M3RMv7X8zpjz5494fXQheBoT0NztZeFYWOnJiDX8O4vOVswbume8giMh+ANI0MSBUQBUUAUaFwF/MG40d2T7poXPvQSVr3z4hlZkL1lJfZ0YdWwWxOMG6HYCOPaLV6ro91WjbBgdJ/3rEcrt95EMEJAersuboDgCePbly10WxDtku7Nrb1xV67xexMYb3zN69KjPxg33r8M8Rhw+U0u6GT2ceOzp71AaoLxmp5xDePenqns7v2Ve7jepPOEaiMU6+zovmBch7No7bSrOWHaCOOBjMMTxrVlnZuC+jNuwNQbMfu+65WFXCeMW/rSY0jJbYusrv2w9J+PYtzvHoctKVXB98ZP38boWx/Cli/nYt6fbnZLgtV20Cic//u/wpaU4lp67WbsBKO63BHhde0zo9vi4MGD4TXoEButJ4hruPb8bUzE5pmUraFAXI2hynh3h5h4MhxRQBQQBUQBUaAxFGgsy3hNX9Q9LeNGwKcOvjKmG13M/SWbMlruA7WMa4uYr6OROC5vkNAY69YUfQiMN4Xqte+ztpZx3u8adFt27oXo+ERXqIYRRj29X2p6xgnjvp4pb5ZwI5wHYxk3jtGont5MoGV80VP3qfAaz2fbsx/jvzXM64ztZ2w4XnDF6VwTT96tNi2zu/XFkhcfxfjf/VnFlu9buxwbPnkbY37zMLZ88TEK9+/C0OvuqE7MzmRvzPPmTArnnburE8bV/rYImyufGpmHgoKCsBlvqAzUm6Xa/TVPC7n7vwPJkF4Xa7hRJ4HxULlrZByigCggCogCTaZAsDBudAVnzLh2O6Xrtr+Y8Zq+qGsYpxD8slu0f6/LbZWvGc8MNsaBGt3UPb9IG+vRTd2bZVzHlbIPus8a29i04D21Lvp1HdPKY5l0WxIz3mS3br11HB0djU8++QRjxoyptzZDoaG6wDjHrz1NjMkRdd6EuNR011FoOhSlpmfcM2Zce94wTpxu6kb4rq+Ycc5Bfy5pN3XPmHHPcfA5H3zt7SoUx/h5Z4w5N1rG+fngHpu+Gp/OvAMXPzpL3QZLXnwE4+96AraktGoY/y/G3P6I+oxzubC36YBlrzyJ4sP7Mfq2P1UfnVZ9XJqXm6k5IPmTw7NRVFQYCo9S2IzBFyR7g3G14ePhsq4n2pDWcIHxsLmdZKCigCggCogCjaFAsDCuvlx6yZru63WjFZrgW5ObOhMi6YzsOsMx2zZmSTdmVtave8umbqznyzJem6zpGhS0m6txnI2xZk3Vh1jGm0r52vVbVxjXz65Olmh8xvlstR8yFuWlJxEMjHtmU9dhH56fC+zLV1Z0rUYg2dS9ZUMnjLMYs6l7jiMmMUllWvf8rPHmpk4Y95olvs9gFOxidvZHMOHuJ5VlfC8t43P/i7F3zFTAvW/tN/jXjeer8bQbMhoX/umfyp3dWfQ55l7M5M2Axv88tAWKi0/W7uZvhlfVFMJQk8XcH4B7gnt9ySuW8fpSUtoRBUQBUUAUCFsFagPjDTFZT2hviD6kzbopIDBeN/0a++pgYLyxxxaq/XnbFKjTWKtdzt3b8CBpfUa5t470e80oVlzL8PjZ6SgtLa2T/HKxU4GaQNwfbNeXS7q3tRAYlztUFBAFRAFRoNkrIDDe7G+BgAUQGA9YqpCoKDAe/DLUO4zrIXiFcuP4fJi6/YF68NMLqyseHZiC8vLysBpzKA02EIj2VyeQ6+s6X4Hxuioo14sCooAoIAqEvQKhAuNhL2QzmIDAeHgtssB4CK9XjXBuGHswdUN4ysEObeZZSaisrAz2MqlfrUCwMB1s/foQWmC8PlSUNkQBUUAUEAXCWgGB8bBevkYdvMB4o8pd584ExussYeM30EzB25vQj/RPgMPhaPw1iPAemwK6fUkqMB7hN5tMTxQQBUQBUaBmBQTGa9ZIajgVEBgPrztBYDy81ktG667AI/3iBcYb4KYQGG8AUaVJUUAUEAVEAVGgtgoQxh944IHaXi7XNTMFeK/cf//9ETVrOdosopZTJhMhChDG9ZnrETIlmYaHAmIZl1tCFBAFRAFRoNkrIJbxZn8LBCyAWMYDliokKoplPCSWQQZRSwUExmspXBhdJjAeRoslQxUFRAFRQBRoGAUExhtG10hsVWA8vFa1sWHcmImcSs2+dzq2L1voJto1ry5EXt8hNQq55J+PYvHzD7nVM575XWMDUiHsFRAYD/slrHECAuM1SiQVRAFRQBQQBSJdAYHxSF/h+pufwHj9adkYLYUCjA+/8W4XfBPWP7jrapx3z9M1AjlhnIXX67Jh3lso3LfD7bXG0FH6aBoFBMabRvfG7FVgvDHVlr5EAVFAFBAFQlKBhoDxylOlWPDEXeg18coav3T7EoVfxlNy26HnBdOC0s3bl3ijxa7kWAG+/vsMTLjnKUTF2lzjZCfr576Jcb99DMtnPVurvtlGQ51TXFp0FF8+9wBG3fIAVr79ItoOHFlrbYMS1FBZYLy2yjXNdcHAuL5vc3oOwMIn70Zm514Kmvk80bo94uY/uCBYQ/WhLeuhrdWcobaE87UJdz+F+Y/eoa4xWsIJ1HtWL1XPmTXGhr1rvsGs6WOVQP0uu8H1urfnmHX1M1pRVupmeTeOz2hVD+R1b/OxJac1zaJJry4FBMYj/2YQGI/8NZYZigKigCggCtSgQEPAeH2I3hgwbvzCbfyiT0iobWkoGKceGsCNYN6Y0CAwXtu7ommuCxbGabUefO3tagOM99vmhR/i4sfeUIP/7PE7Mf53TyIuNV1BcM+JP3HVO3EoX0F00f69ro0uDeeeMO65MabbTc7OUxtjiZk5CuC9wbh+bfA1t6m6rfoNU2Ngm7qd0sIjLmDnGBa/8DD6TLkOvl7X89HjZB96PnX5HGiaFY+sXgXGI2s9vc1GYDzy11hmKAqIAqKAKFBPME6LFovRNI7XKwAAIABJREFUUq0t4KvffVm9py1b/NtoGfdn/dLWb6M1vTB/N+bcd71qc/KMV1xf+nUMqX5NX3PqRBG+n/8uGI+6c8VX6jqje6sGgJG/+oOy1tHSR+vdxPtfUF/6acFn8WYZN47dGLNKIDbGxNICN+Dym9ysgxc98qrL+q410jGzntBu3AygZf7Itk1qTpxrdvf+WPvhaxjxy98rayKLt/Vo6Js9kmF81qxZuOKKKxpawkZtP1gY10Cb3raTur+0Szjv9fkz78A5v7hPjV97lnAjyAjCxvcCgfFtSxecYSU3PoOeMeNGy7lRSOP4jNBthGlfm218nZ8BfFb1fIzza9QFk87cFBAYj/wbQmA88tdYZigKiAKigCjQgDButF5pOCUEZ3Xr64JxW0qGK05Uv260fnmDcbq1Gi3jRtdWWt903Klne5xqfbqpdxg2zgUhGlDYR9cxk31a5jxhxTgefvH/dObtLmuj8Uu/J4wbrXPewJsQ5AnoDX2zRyqMx8fH47XXXsPUqVMbWsJGbd8fjHu6cncbd6kbZPuCccKuEV59gbovGDfCL2Fcb7ppYfSGF0MxWIybakbxjJtkfJ1u9bTi6+fUczNPb2B5vu7Zjmdbjbpg0pnAeDO7BwTGm9mCy3RFAVFAFBAFzlTAn5u6p+Xb8wuz0UXaaNk2wjiv0dYuHSOqv8zzC3dNMO4Jvhq4eZ2v9zy/xNc2ZtwTxn3dP4ECiVEjblL4g3HjHIwu6noMTeGqHqkwnp2djeuvvx4zZsyIqI+IYC3jxvuxoSzjxo21zYvm+EzI5m1TzXjv0ytFu5Ybnz/CuC6+clcYX/f8fIqoGyDMJyOW8TBfwACGLzAegEhSRRQQBUQBUSCyFQg0ZtyXdZZWaiZy0oVu2EYYp8u5MWGTEYyDgXHt5q37oVu4jh01JoqrT8u4jkfVczS6yfqyzHF8Gmr4t7fjnbTruT8Y97VJITBe/8/j8OHDYTabsXjx4vpvvAFbTElJQb9+/fDFF1947aUhYLwuMeOe2dSNLu6EaGO8NkM1PDfVfME4P5uWv/60sozv/36VC/AJ3Tpm3NfrnjHjbGvD3P/8P/beBFyq4lr/XhoMHhRBQZRBBRzhogEJhlkJ4ESc4nQjEYNejBqNQYyIiOBFRQ2I+YgTRnDEaEhUvBjGqBAQJQYMBEEFNCgiEeSIeERU/t+q3NW3TrF3d3Xvede7n8fHQ3cNq36r9u5696qhMG09Qveh6BIEIMbz30UgxvPvY7QQBEAABECgBIFKxbhEl2QTpaCRcX2auz5NXaLfXjuze0W+vI4/0qfGBtlNXcqWteFekTlTjMtaWz1ix2nMNeN6xNDczR2R8Whv47Fjx9KoUaPos88+i7aiEEs/8MADae+996YNGzZQp06dPAV5FGKc+7Hf7uNyD3MzZTf1UueM++3JUCwyzuXz/SJTzk+5cQJtWLlU7f0gLwLl5Z25v4T5udyL8sJNn+4eortQVAUEIMYrgJaxLBDjGXMYzAUBEAABEAifgK0YN2s2xbgMqs3IeKk147I2esObS9URR7LBmd+acTnSiHdz9hLq+rpsFg5ip6xT10VwqaPNeOM0c+ouc+Dp6/o0WT0yp4txnsaviwo9MujFhfN6Ha2GNePh93uzxKqqKrrpppto2LBh0VcWsAYW4o0aNaJ//OMftGLFCjruuOM8BXk5YjygScgOAqETgBgPHWnqCoQYT51LYBAIgAAIgEDcBCoV42ynHtXiaeN86Wu5JZrtt5u6viN554t+Qdu3bS2cTS6RL6/d1OXsYL81oeYUcv2sYT16Z7Obuh6B06ep+0XmGrU6Ugl1vrx2U5f28PdSBkfjONrO0T0vMe61WRt2Uw/3Trn88suJd1Svrq6mOnXqhFt4iKXpQlyK9RPkEOMhgkdRsROAGI8deewVQozHjhwVggAIgAAIpI1AEDHu1xY/kZy2tmfJHpwzHr23jjnmGNq4cSO9/vrr1Lx58+grLLMGLyFeTJBDjJcJGMlTRQBiPFXuiMQYiPFIsKJQEAABEACBLBEIW4zLVOzmxxynorz6Wb9Z4pI2W/Xd03nju5adjideWx/nldfd1HWG3/ve95QY5zPHJ06cSPXq1YsTsW9dxYS4nyCHGE+F62BEhQQgxisEl6FsEOMZchZMBQEQAAEQiIZA2GI8GitRahoIuCDGmfP48eOJN3Vbv369Wpt9yCGHEB9/tnLlSmrfvn3srnj++efpsMMOU2vES136lPWXXnqJbliyrVQWfA8CqSQAMZ5Kt4RqFMR4qDhRGAiAAAiAQBYJQIxn0WvJ2OyKGBe677zzjlpHvnTpUvroo49o9erV1KJFi1jhf/HFF/T2229Tz549fY8wMw1q3LgxNWjQgNasWQMxHqu3UFmYBCDGw6SZzrIgxtPpF1gFAiAAAiAQIwGI8RhhZ7wq18R4WtxVbMd000Z9OjumqafFg7CjEgIQ45VQy1YeiPFs+QvWggAIgAAIREAAYjwCqDktEmI8OcfaCHJzXXlUYpxPK1g2/UnsCZFcd3CiZojx/LsZYjz/PkYLQQAEQAAEShCAGEcXsSUAMW5LKpp0xQS51wZvEOPR+AGlxkMAYjwezknWAjGeJH3UDQIgAAIgkAoCaRLjcgZ490HXKzYSfav+8H16ZuiFtPGtZXTyDb+mj976e9lROT4ajC8pm//mnd/n338rnTTsLvr8k02Fv/fYs4pmjx2qzjzX7Vj06K/VOertTj2/bN/pdVU12K/s/H4Z4txlHWI8NLdVXJCXIPfbab0cMc79c9adQ5RdnO+M2yare0Luu9Zd+6jPuO/qkXFOz/fKkqkPqbwDJs+JfZf/imEiY6oJQIyn2j2hGAcxHgpGFAICIAACIJBlAmkV4/qxXTz4f3fxy7WEdLnMyxHjulgOa0puVGI8zvPHIcbL7XXRpNcF+Ztvvql2fPfaab1cMc7C++Rh45WYlhdj7fpdoF4+cT/bunG9egm24c2lhRdl/IJKXnLxvTJjzGA6647HqFHLw6NpPEp1hgDEeP5dDTGefx+jhSAAAiAAAiUI2Irx5S88pUrSo8I8QP921V605pU5tGbhHOp5xQgVOZ42/GJqcsTRtQblnHbevaNVGaffOqlQzlfbawqRtQ7nXELV698riG6OjLc98Yf0xKX9VD7+nv+9YtYfC5Fxr3KlzO1bq2nFzKkqWsdiXkSDIBGBfPzPRtDM269RbeAIYL+R9ynxUSwyzsLj0YF9VFF61FBEDJfFFzPpeN6l9NwNAwvlc4RRou9mRNEU/8x9ywdrFRO26ePVb6o2McOmbY+lN559mHpefmPhPHcvP4V1E0CMh0UyeDksyPmYtYMOOkjt8u51lSvGOTJ+4nXjlJA2Xx5J5Jy/r9nysRLj3QcNpek3X6H6Jgt4ue/4vtFfpgVvLUpwkQDEeP69DjGefx+jhSAAAiAAAhGLcRaP+pTWo/qcWRCOIn5ZIC6fPqVWOonAmRE3FrgsnvmSaep6JE7/e+XcabRuyQIlzGUqO5d7YJv2SuDXb9KsIOzLiYyXmqZ+aLe+NHPMNdTjsuFKuIgAPqr36aregzp0Uy8bdAHD7ZEp8Rx51+3RI4oidLhNdepWqbJ1MS7RSfnOfEHCdZoCPaybAGI8LJLhlMOCvG3btr6FFRPj+kssfmHUpu/Ztfon90lOI1PT+SWT9HlTjMuLJzFEf9kWTktRiosEIMbz73WI8fz7GC0EARAAARAIIMb1qLVejESCX396ovqYI2P6YF0Eqi4i9bXWIkQ7D7i6sDbbjKyVEuO9rrqZXpwwsiB8OT2Xy/WYoli+E1ulLZWuGTfFuB9inYkuxvlvjpR7RRT1dnuJcb0N+hR1sUFfQx7m2nRl/wO3Ue8D96CRI0fivsoAgXIj4/rLItvI+Ny7hhdeSmUACUzMEAGI8Qw5q0JTIcYrBIdsIAACIAAC+SEQdJq6iGw/MS6CW6LFTE6ivTJ9u5Qo9YqMixiXad7iEY7ymSI/bDEuUW/Z3Iqnz0skW5++zvXKdH0vMe4VUWzY7OBax0aZkXHh7TclGGI8P/dm0JYEEeOVrBlnAa+vOw9qP/K7TQBiPP/+hxjPv4/RQhAAARAAgRIEohbjstY5qsi41/pUL6Gqi1pBok/FDbKbut/LhWKRcX2au+4ic824Pp1dIv+ybh+RcdzexQgEEeNcrohrPsXAdjd1TFFHnwyLAMR4WCTTWw7EeHp9A8tAAARAAARiImArxr3M0cVhsWnqxdaM83ey7psj4JWuGd/xRY2a+s27P8s0dV2omzs9i2CXdeX6tNxSa8Z54zR9Sq+sGefp6/r0c/580SPj1UZ2emTcXDOuRxQ5nexIXW/fRqo8nsLv9VLDa7M2rBmP6cbJQDXliPEMNAcmOkYAYjz/DocYz7+P0UIQAAEQAIESBOIQ42yC7W7qdfeqT0ec8ANldakN3HhNtbkRFYtWvync5hRyntIu547LtFyu12Y3dRbCvGs8X/o0df3zU26cQBtWLlW7sjdqdaQS1nx57aauRxSlTRyNbN2lD31Zs81TjHsJb+ymjlteCECMoy9kmQDEeJa9Z2c7xLgdJ6QCARAAARDIMYEgYjzHWDLTNJwznhlXxW4oxHjsyFFhiAQgxkOEmdKiIMZT6hiYBQIgAAIgEB8BiPH4WEdRk75hG+9u37LT8ZGd8Yzd1KPwYHRlQoxHxxYlR08AYjx6xknXADGetAdQPwiAAAiAQOIEIMYTd0FmDIAYz4yrlKEQ49nyF6ytTQBiPP89AmI8/z5GC0EABEAABEoQgBhHF7ElADFuSyod6ViM4wKBLBPYuXNnls2H7SUIQIyji4AACIAACDhPAGLc+S5gDQBi3BpVKhIiMp4KN8CICgkgMl4huAxlgxjPkLNgKgiAAAiAQDQEIMaj4ZrHUiHGs+VViPFs+QvW1iYAMZ7/HgExnn8fo4UgAAIgAAIlCECMo4vYEoAYtyWVjnQQ4+nwA6yojADEeGXcspQLYjxL3oKtIAACIAACkRDIohjn47waNm9F7U49P3QmfHb3rDuH0InXjaNGLQ8vlK/XyWd5b/lgrTr7m88ul/PQFz36a2XXUb1Pp9ljh6rzxVu071K2jXr5ZWcukkHOJe968bW0cNJY+s6ZP6nVxlJ1QYyXIpSu75MQ49x3pw2/uABiwOQ5Fd0DUZDkkwdmjrmGelw2vKx+L7Zw2/hq2vZYeuPZh6nn5TdSnbpVUZiKMokIYjz/3QBiPP8+RgtBAARAAARKEMiiGI/SqeWKcd2WsF4SRCHGv9peQ/Puu6UgwEWYlyMoIMaj7Hnhlx23GOd+u3z6FDrjtslU1WA/YvH73A0D1UurSl5KhU0kiBg37xcR5lG8EAy73VktD2I8q56ztxti3J4VUoIACIAACOSUgK0Y9xp88gD1maEX0sa3llGTI46ms+54TEWcdFHKIlCixAe2aa/+PvCo9sRnYnO+02+dpCLcEmGuu1d9WvTI3dS6a5/CoJ7L+3j1m7Ri5lSVnqPSegTaLI+/n3fv6FpliB1Lpj6kPCkRO653/sQxtG3TRmp+zHHU8dxBNPfu4b6R8YbNDqZHB/ZRZfS8YoQ617tYZFzaLPVKezm/HkUUfjVbPq5VvkTfpc4O51xCfa+9Q0XkSnHevrVaMeO28vXu4peVMJKL85dzLjnEeLYeAjZiXD+nngW03jf4HpJ+Lv1Gv+f1e9RPeOszR7gsvv/Ne5DLnH//rVS3/j67fMf5//q7B5QdK2b+vtZzxu+e5rRiz5qFc9RzoN/I+9T9wnWbzyppp9yb8kKOy2GG/HKBn1f6veLHLVs9JN3WQoyn2z9hWAcxHgZFlAECIAACIJBpApWKcV1kc9SLB80i9kqJxOr176kB7uefbCpMCRcRKgNiLoMvFgH899aN63cRoTIdnNOxQN3w5lIlZLkM+e6gDt2U2NfLY1tnjBmsXh5wvfI3v0goNzJeapr6lvX/LExp1wfwm9auUjZJFFG3T4+M6/Y0aNpCiZn6TZoVuMh0fa+XHpKO+XgJb91nNp0YYtyGUnrSVCrGTQEtMyrq7duoVqRbvy/53tP7sxcFM73cd5yWX+p1vmhw4V6V+13uaX6hJC+29P4vzwj9npb7RJaJyP3U8bxLa01T58/XLVmgnh3VH76vbDh52Hiqati48Dc/24q9sCjnZVZ6ekY2LIEYz4afglgJMR6EHvKCAAiAAAjkgkAxMW5GnqTBeqTJa110KTEuAllEIgtKjjjrg3mJlp007C4VlZJBt57HFNx6Ho7yiR2HdutbS0TowlXKE1EcpRgv1mF0AW7+LYKBo+Fe4p9fNniJceFsTlEXO8qdqg4xnq1bvpgY534ksy30VvGLLL4XZbaHviaa8/jdo/xyySuPlG2+vJN/cx/lNdj6Pg16HzdFvi6s9SnwevkspjnSzs8OPdqvT1MXwe71LDLt8btPMFU92vsBYjxavmkoHWI8DV6ADSAAAiAAAokSqDQyzkabU0H1KG+xiK0u4EUwmwLAFOP6hm2Sx9worZQY5ymrpYRH2GKcI2tsr0yFlenxXi86eNo7zwQwxbi+IRbbL9OD+SWFDWe/tbIQ44neepFXXmlknA3Tl1DoS0lMAa8vrygWGfeaxi73MYtfXTybYlwX+aYY97unvWzxEuMyZV6cwfdgm75n+9qjv5yAGI+2C0OMR8s3DaVDjKfBC7ABBEAABEAgUQJBxLhuuF/EVh+EyzRTPWLL067532ZkXI/C6aKT66xEjPvtoqzbzQNtL+GqR/E4Cl3pbup62R+u+FthiizXWywyLju3mx1Fn4HgxVleeiAynugtlljlQcS4GG3OIvGLfvutGdd38H9xwsjCCQNmZLwSMe53T5sv5aQtXmLca2aPmR+R8WS6MMR4MtzjrBViPE7aqAsEQAAEQCCVBGzFuGm8KVrNNePF1nxyWbJOU6anyppxiRyba8aDRMbNNeOyCRWvD+VLFxgiEvT11vp6VF5XXo4Y53X0Yru+9nT1gtkFMb7jixo1jZ6j6GZk3IzU6+tu+Si1YpzNGQjm+lasGU/lLWltVO/evalHjx40atQozzw2Ytwro96/9Rc55ppxc/d0v93U2/W7wHMtuL5mvFwxLntJsP38t35PN2p1ZK1lKbI2vPugoTT3ruGFo830NeNyD7KtZqQea8atu2SoCSHGQ8WZysIgxlPpFhgFAiAAAiAQJ4FKxTjbqK879dpZmaeQdr7oF7R921YVEdM3YDKnbZu7JvvtGs71lhsZ19dUm7uam5FxLt+cQq7vvqy322Y3dREGMp1WXjaYU/yPPXcQrV4wq9ZGdDJtvVLOuhj3Et7YTT3OOy3culiIz58/n3bs2EEjR470FOSVinGz/+snAPidoCCtM88Z1/P67X5uRqJtpqmzALe1U55Ne+xZpTZA/ODvr9U6+cHcNd4rsm7eK9hNPdz+7FUaxHj0jJOuAWI8aQ+gfhAAARAAgcQJBBHj5RpvbuKk5/cSxeWWj/T+BHDOeH56BwvxRYsW0cKFC+mZZ54hvoe9BHmlYjw/pMJrCc4ZD4+lbUkQ47akspsOYjy7voPlIAACIAACIRGAGA8JZAaK0dfvLpw0lr5z5k/UufC2F3ZTtyUVXTpdiH/nO99RFfE0dS9BDjEerh9kwzaexv7Gsw9Tz8tvJH1Dt3BrQ2kQ4/nvAxDj+fcxWggCIAACIFCCQJxiHM7INgGI8WT95yXExSIvQQ4xnqy/UHswAhDjwfhlITfEeBa8BBtBAARAAAQiJQAxHineXBUOMZ6cO4sJcT9BDjGenL9Qc3ACEOPBGaa9BIjxtHsI9oEACIAACEROAGI8csS5qSBtYvyNN96gDRs2UJ06dXLD2Kshv/zlL2nVqlVqjbhMTfdrsB4h53v7hiXbcs0GjcsvAYjx/PpWWgYxnn8fo4UgAAIgAAIlCECMo4vYEkhajC9YsECtj168eDF9+umnyuy8C3Fu49dff02XXnop3XfffVauat26NX3zzTf03nvvZU6Mv/SbUdSmz1l0wFH/Xg+Py10CEOP59z3EeP59jBaCAAiAAAhYiHG/c4oBDwRMAtxXeOfuuK9u3bqpyPAxxxxD/fv3p4suuogOOOCAuM1IpD6/Ddq8jNGns7dv3z4Re1EpCIRFYOfOnWEVhXJSSABiPIVOgUkgAAIgAAIgkAYCvN4WA8E0eIKoadOm9O1vf5uee+45clVg2ghym3Xl6fDorlYMGDCApkyZQk888QT99re/JZ4Fwf916NAhrSY7aRcvDenUqRN99dVXylc/+tGPnOSARodDAGI8HI4oBQRAAARAAARyRwBiPB0ubdu2rZqmzWumXb+KCfK8CPHzzz9fublv374Q5Cnr8CzEu3btSp07d6YWLVrQ448/rv6DIE+ZozJkDsR4hpwFU0EABEAABEAgTgIQ43HS9q5r3LhxNGzYMPr888+dWBtuQ9xLkOdNiAsHCHKbHhFPGl2Iz507V1XKS0UgyOPhn9daIMbz6lm0CwRAAARAAAQCEoAYDwgwhOyHHHIIdenShX73u9+FUFp+itAF+fz582nRokVWO62njYA+NV0i4qaNEOTJe81LiItVEOTJ+yfLFkCMZ9l7sB0EQAAEQAAEIiQAMR4hXIuiv/zyS6pbty6tWbOGWrVqZZHDrSQiyPfYYw+1u3ypI8/SRsdGiIvNEOTJea+YEIcgT84veakZYjwvnkQ7QAAEQAAEQCBkAhDjIQMts7hJkybRlVdeqaao4/ImwIL8rLPOypwQ59bwS4RbbrmFhg4dauXeZs2aUaNGjWjZsmVW6ZEoOAEbIQ5BHpyzyyVAjLvsfbQdBEAABEAABIoQgBhPtntcddVV9Oyzz9K6deuSNQS1R0KgnGh3OVH0SIx1tND9999fHR+4fPlyKwKnn346zZ49m2pqaqzSIxEIQIyjD4AACIAACIAACHgSgBhPtmPwGuIVK1YgEpqsGyKt3UaQQ4hH6oKihZezHrycKHpyLULNaSMAMZ42j8AeEAABEAABEEgJAYjxZB1xzjnn0DvvvENLly5N1hDUHimBYoIcQjxS9FaF2whyCHErlEjkQQBiHN0CBEAABEAABEDAkwDEeLIdA2I8Wf5x1u4lyCHE4/RA8bqKCXII8fT4KYuWQIxn0WuwGQRAAARAAARiIAAxHgPkIlVAjCfLP+7adUE+fvx4mjJlCj3xxBPkd+RZ3Pa5Xp+XIIcQd71XBG8/xHhwhigBBEAABEAABHJJAGI8WbdCjCfLP4naWZC/+OKLqmoI8SQ8ULxOXZC3bduWunbtSp07d6a5c+emz1hYlAkCEOOZcBOMBAEQAAEQAIH4CUCMx89crxFiPFn+SdVeVVVFp512Gj399NNJmYB6ixAQQV6nTh3q3r07hDh6SyACEOOB8CEzCIAACIAACOSXAMR4sr6FGE+Wf1K1N2nSRJ0vf9NNNyVlAuotQeCQQw6hzZs309atW8EKBAIRgBgPhA+ZQQAEQAAEQCC/BCDGk/UtxHiy/JOqHWI8KfL29eLetGeFlMUJQIyjh4AACIAACIAACHgSgBhPtmNgwJ8s/6RqhxhPirx9vbg37VkhJcQ4+gAIgAAIgAAIgEAFBCDGK4AWYhYM+EOEmaGiIMbT7yzcm+n3UVYsRGQ8K56CnSAAAiAAAiAQMwGI8ZiBG9VhwJ8s/6RqhxhPirx9vbg37VkhJSLj6AMgAAIgAAIgAAIVEIAYrwBaiFkw4A8RZoaKghhPv7Nwb6bfR1mxEJHxrHgKdoIACIAACIBAzAQgxmMGjsh4ssBTUjvEeEocUcQMiPH0+ygrFkKMZ8VTsBMEQAAEQAAEYiYAMR4zcIjxZIGnpHaI8ZQ4AmI8/Y7IgYUQ4zlwIpoAAiAAAiAAAlEQgBiPgqp9mYi+2bPKU0qI8fR7E/dm+n2UFQshxrPiKdgJAiAAAiAAAjETgBiPGTgi48kCT0ntEOMpcQQi4+l3RA4shBjPgRPRBBAAARAAARCIggDEeBRU7ctE9M2eVZ5SQoyn35u4N9Pvo6xYCDGeFU/BThAAARAAARCImQDEeMzAERlPFnhKaocYT4kjEBlPvyNyYCHEeA6ciCaAAAiAAAiAQBQEIMajoGpfJqJv9qzylBJiPP3exL2Zfh9lxUKI8ax4CnaCAAiAAAiAQMwEIMZjBo7IeLLAU1I7xHhKHIHIePodkQMLIcZz4EQ0AQRAAARAAASiIAAxHgVV+zIRfbNnlaeUEOPp9ybuzfT7KCsWQoxnxVOwEwRAAARAAARiJgAxHjNwRMaTBZ6S2iHGU+IIRMbT74gcWAgxngMnogkgAAIgAAIgEAUBiPEoqNqXieibPas8pYQYT783cW+m30dZsRBiPCuegp0gAAIgAAIgEDMBiPGYgSMynizwlNQOMZ4SRyAynn5H5MBCiPEcOBFNAAEQAAEQAIEoCECMR0HVvkxE3+xZ5SklxHj6vYl7M/0+yoqFEONZ8RTsBAEQAAEQAIGYCUCMxwwckfFkgaekdojxlDgCkfH0OyIHFkKM58CJaAIIgAAIgIA7BDZt2kT9+/enbt260YgRIyJtOMR4pHhLFo7oW0lEuUwAMZ5+t+LeTL+PsmIhxHhWPAU7QQAEQAAEnCewYMECGj16tBLhr732Gg0ePDhSJhDjkeItWTgG/CUR5TIBxHj63Yp7M/0+yoqFEONZ8RTsBAEQAAEQAIH/JbBq1Sp64YUXIMZz3iMw4M+5g32aBzGefr/j3ky/j7JiIcR4VjwFO0EABEAABEAAYtypPoABv1PuLjQWYjz9fse9mX4fZcVCiPGseAp2ggAIgAAIgADEuFN9AAN+p9wNMZ4hd+PezJCzUm4qxHjKHQTzQAAEQAAEQMAkgGnqbvQJDPjd8LPZSkTG0+933Jvp91FWLIQYz4qnYCcIgAAIgAAIIDLuVB/AgN8pdyOAbFIcAAAgAElEQVQyniF3497MkLNSbirEeModBPNAAARAAARAAJFxN/sABvxu+h2R8fT7Hfdm+n2UFQshxrPiKdgJAiAAAiAAAoiMO9UHMOB3yt2IjGfI3bg3M+SslJsKMZ5yB8E8EAABEAABEEiKAM4ZT4r8v+vFgD9Z/knVjsh4UuTt68W9ac8KKYsTgBhHDwEBEAABEAABEPAkADGebMfAgD9Z/knVDjGeFHn7enFv2rNCSohx9AEQAAEQAAEQAIEKCECMVwAtxCwY8IcIM0NFQYyn31m4N9Pvo6xYiMh4VjwFO0EABEAABEAgZgIQ4zEDN6rDgD9Z/knVDjGeFHn7enFv2rNCSkTG0QdAAARAAARAAAQqIAAxXgG0ELNgwB8izAwVBTGefmfh3ky/j7JiISLjWfEU7AQBEAABEACBmAlAjMcMHJHxZIGnpHaI8ZQ4oogZEOPp91FWLIQYz4qnYCcIgAAIgAAIxEwAYjxm4BDjyQJPSe0Q4ylxBMR4+h2RAwshxnPgRDQBBEAABEAABKIgADEeBVX7MhF9s2eVp5QQ4+n3Ju7N9PsoKxZCjGfFU7ATBEAABEAABGImADEeM3BExpMFnpLaIcZT4ghExtPviBxYCDGeAyeiCSAAAiAAAiAQBQGI8Sio2peJ6Js9qzylhBhPvzdxb6bfR1mxEGI8K56CnSAAAiAAAiAQMwGI8ZiBIzKeLPCU1A4xnhJHIDKefkfkwEKI8Rw4EU0AARAAARAAgSgIQIxHQdW+TETf7FnlKSXEePq9iXsz/T7KioUQ41nxFOwEARAAARAAgZgJQIzHDByR8WSBp6R2iPGUOAKR8fQ7IgcWQoznwIloAgiAAAiAAAhEQQBiPAqq9mUi+mbPKk8pIcbT703cm+n3UVYshBjPiqdgJwiAAAiAAAjETGD33Xenb775JuZaUZ0QwIDfzb4AMZ5+v+PeTL+PsmIhxHhWPAU7QQAEQAAEQCBmAoiMxwzcqA4D/mT5J1U7xHhS5O3rxb1pzwopixOAGEcPAQEQAAEQAAEQ2IXA+vXrqUWLFoiMJ9g3MOBPEH6CVUOMJwjfsmrcm5agkKwkAYjxkoiQAARAAARAAATcI/DUU0/RwIED6fPPP3ev8SlpMQb8KXFEzGZAjMcMvILqcG9WAA1ZPAlAjKNjgAAIgAAIgAAI7EKgf//+tHjxYnrrrbdAJyECGPAnBD7haiHGE3aARfW4Ny0gIYkVAYhxK0xIBAIgAAIgAAJuEWBBcN5559FvfvMbtxqeotZiwJ8iZ8RoCsR4jLArrAr3ZoXgkG0XAhDj6BQgAAIgAAIgAAK1CPz2t7+lyy67jL766iuQSZAABvwJwk+waojxBOFbVo170xIUkpUkADFeEhESgAAIgAAIgIBbBPbZZx867bTT6IknnnCr4SlrLQb8KXNITOZAjMcEOkA1uDcDwEPWWgQgxtEhQAAEQAAEQAAEFIEVK1ZQr169aP/996fly5eDSsIEMOBP2AEJVQ8xnhD4MqrFvVkGLCQtSgBiHB0EBEAABEAABBwnwBu1jRgxgmbNmkXdunWj+fPnO04kHc3HgD8dfojbCojxuImXXx/uzfKZIYc3AYhx9AwQAIHUEHjnnXfo0UcfpaVLl9JHH31Eq1evVucc4wIBEAiXAN9bBx98MG3ZsoU2bdpEX375JR155JFKkF9wwQXhVobSKiaAAX/F6DKdEWI8/e7DvZl+H2XFQojxrHgKdoJAjgmMHz+exo4dS+vXr6dGjRrRIYccQk2bNqWVK1dS+/btc9xyNA0EkiHwyiuvUM+ePdV9dtxxx9F//ud/Whuy2267WadFQhDIGoGdO3cmbjLEeOIuKGkAxHhJREhgSQBi3BIUkoEACERD4Hvf+x69/vrrSgxMnDiR6tWrF01FKBUEQCAUAizGb1iyLZSyUAgIpInAbR32IojxNHkkvbZAjKfXN1mzDGI8ax6DvSCQIwLHHHMMbdy4UYnx5s2b56hlaAoI5JcAxHh+fet6yyDGXe8B9u2HGLdnhZTFCUCMo4eAAAgkQuDyyy9X68Orq6upTp06idiASkEABMonADH+f8yWv/AUTRt+sfpgwOQ51KJ9F/X3Xx68nebdO5qaHHE0nXXHY9So5eHlg0aO2AlAjMeOPLMVQoxn1nWpMxxiPHUugUEg4AaBqqoquummm2jYsGFuNBitBIGcEIAY9xbjPa8YQd0HXU9fba+h2WOH0pKpD0GMZ6zPQ4xnzGEJmgsxniD8nFUNMZ4zh6I5IJAFArxZ26hRo+izzz7LgrmwEQRAQCMAMb6rGG970jlUt34D6nvtHVT94fv0zNALqXGrI+njtasKkXGJlnPu1l370Bm3TaaqBvupKPr7S1+h1l360Jxx1+8i4P3y1VRvpuduGEhrFs6htiedq4yqW38fZUOdulWkR+07nHNJ4XOpr0GzQ9QLAz2i73pHhxh3vQfYtx9i3J4VUhYnADGOHgICIBA7ge7du9Puu+9O8+bNi71uVAgCIBCMAMT4rmKco+Ir5zyrhPeHK/5Gy6dPUeL6788/oT6r2fIxLZv+ZC2xflSfM1UkXcQ2i+JGrY5UApunu/N3LNKL5ZM62SJ+AdD8mONUHRveXEqPDuyjhLZZpl6fTKsP1iPykxtiPD++jLolEONRE3anfIhxd3yNloJAagjwcUoXX3wx3XrrramxCYaAAAjYEYAY31WMnzP+Kfrb7x+kdv0uoC0frKWtG9fTgUe1p9efnlhrzbge5ZZp7fyZiOoGTVuoKe58SYSb/zbzdTzvUiXaObrN6fjS8y169NdKyOvRd7aJ05rf2XndjVQQ4274OYxWQoyHQRFlMAGIcfQDEACB2Anstdde9PDDD9O55/57aiUuEACB7BCAGN9VjP/ovudp5dxn1RfV699TopyvRY+ML0TLeaM3FuAipCX6LdPGWTjvsWdVLVG9cu40tUGcmc8sQ9apc529rrqZXpwwUk1B1y+ZGs8vCHShnp2eF72lEOPRM85LDRDjefFk8u2AGE/eB7AABJwj8O1vf1vtpM5ni+MCARDIFgGI8V3FOE8H37L+n7V2Vud/sxg/bfRv6W+/n6gycWR6xxc1taai+4lxEdVe+cqNjOs9TK+P16zj+j8CEOPoDbYEIMZtSSFdKQIQ46UI4XsQAIHQCbAY/9Of/kS9e/cOvWwUCAIgEC0BiHFvMc6f8jptiUCvXjC7EBl/c/YfCtFo/lyi3bJmXCLVZmRcn1LulU+mt/OadK5bNmortWYckXHvewRiPNpnR55KZzH+9ttv0xtvvJGnZqEtCRCAGE8AOqoEAdcJQIy73gPQ/iwTgBj3FuOyUZqs4+Yp5jJNnXPwBmsb31qmdkvfq1ETati85S5ruE0xLjuze+WTCHulu6nLevIs98WwbYcYD5tofssbNGgQ/fnPf6bVq1fnt5FoWSwEIMZjwYxKQAAEdAIQ4+gPIJBdAhDj6fCdPt2cLdJ3YU+HhdmzAmI8ez5LyuJx48bRf//3f1N1dXVSJqDenBCAGM+JI9EMEMgSAYjxLHkLtoJAbQIQ4+noEZvefbsQbWeL9LPL02Fh9qyAGM+ez5Ky+K233qIjjzySdu7cmZQJqDcnBCDGc+JINAMEskQAYjxL3oKtIAAxjj7gBgGIcTf8HFYr9913X/rZz35Gt9xyS1hFohwHCUCMO+h0NBkEkiYAMZ60B1A/CFROAJHxytkhZ7oJQIyn2z9ps+7iiy+m559/nv71r3+lzTTYkyECEOMZchZMBYG8EIAYz4sn0Q4XCUCMu+h1N9oMMe6Gn8NsZYMGDahv3740derUMItFWQ4RgBh3yNloKgikhQDEeFo8ATtAoHwCLMZxgUBeCaRhDXCTJk3oyiuvpJtuuimvmHPTrv/5n/+hM844g8466ywI8tx4Nd6GQIzHyxu1gQAIEBHEOLoBCGSXACLj2fUdLC9OAJFx9JBKCLAg79+/vxrb/PSnP8Ua8kogOpwHYtxh56PpIJAUAYjxpMijXhAITgBiPDhDlJBOAhDj6fRLVqziNeTPPPMMbdmyhfbZZx9q3Lgx7b333pS32UTcnvr161PLli3p+9//Pv3kJz/JiotSaSfEeCrdAqNAIN8EIMbz7V+0Lt8EIMbz7V+XW5cWMX7AAQeoaeojRoxw2R2ZbTsfe8Ybu61cuZI++eSTzLajmOGbN2+mdevW0fvvv087duygrl270h/+8Afaf//9c9neKBsFMR4lXZQNAiDgSQBiHB0DBLJLAGI8u76D5cUJpEWMt2rVin7wgx/QhAkT4DIQSD2BZ599lm644QZ6++231RT9oUOHpt7mNBkIMZ4mb8AWEHCEAMS4I45GM3NJAGI8l25Fo/7//UzSIsa7dOmipjfPnj0bfgGBzBC47rrr6Fe/+hWNHz+efvGLX2TG7qQNhRhP2gOoHwQcJAAx7qDT0eTcEIAYz40r0RCDQFrE+M9//nO1M/f69evhIxDIFIGrr76a7r//ftq+fXum7E7SWIjxJOmjbhBwlADEuKOOR7NzQaAcMb7p3bdp/v230knD7qJNa1fRsulPUt9r76A6das8WfzlwdupYfNW1O7U80uy+mp7Dc0eO5SWTH1IpW3dtQ+dcdtkqmqwn/q3/n33S4fRts0bVdqeV4yg7oOuL1l+sQTcrmeGXkgb31pWK9npt06yst2mcq5j1p1D6MTrxlGjlocXsvh9Lgl05q8/PdGTZ031ZnruhoGKQ4v2XXzNWf7CU7Tlg7UqnV6uMLZpR5bSpEWM81rjNm3a0L/+9S+1CRguEMgSgUMOOYSOPfZYtZkdrtIEIMZLM0IKEACBkAlAjIcMFMWBQIwEKhXjNgLOVoyLmGzX74KC+H1/6Ss0Y8xgOuuOx5R45TQv/WYUnXDlKEVH/raxoxROL0HM9c0ccw31uGx4LfFcqiy/7+VlwkEdutUS+CyQ1y1Z4PtSw0Y0VyLGK21HlvKlRYwzs0MPPZQOO+wwmjlzZpYQwlYQUNPUefPBzz77DDQsCECMW0BCEhAAgXAJQIyHyxOlgUCcBCoV43pkfMObS+nRgX2U2RLRXr1gNk0bfrH6TCLMLLAlXYdzLikIUD1iq7ddPu943qUq8rtm4RxqfGhbqtqnIa1bspCaHHE09fr5aHrtiX9vjMVt4Wj6559sKkS69Qi7GX0Xu7zEuKQ9ut+PVLTZz3b9hYOe58A27VWkf/vWaloxcyoNmDyHtqz/Zy3hrQv0Q7v1LbSR2yIRf7/IuN4WZlm9/r1CZFy3lcviuvkS9lx2m75nF2Y58AsNbse8e0fX8pfUUb9Js8J3YcxEiKt/p0mM89nVp512Gk2aNIkGDhwYFwLUAwKhENh9993p1VdfpU6dOoVSXp4LgRjPs3fRNhBIKQGI8ZQ6BmaBgAWBoGK8+6ChNPeu4YUIMgtovnhqui5UdcHboGkLJVRZ5HUecLX6W0SvbjKLSi6DBTZfEqmut2+jwt/8OU8xP3nYeCWazSgx59+6cb0S/ivnTitM09Yj7SzezSnkur16HSKy2Xae7l1KjEs6LsMU/SK0e19zmypHouZm3bI0QJ+mrrdLXoaw6K5q2LhWW/TIu95+XeTzi5Pl06fUepHBPKWtbDvz43r02QoW3SvRJGkS4wziv/7rv2jy5Ml055130pAhQxJlg8pBoBwC++23H1177bVql3VcxQlAjKOHgAAIxE4AYjx25KgQBEIjELYY1w3Thao5HZuFNq8573XVzfTihJGeYlwXjMXEuC6kdQHPEV9TdMqaad1OvzXjLG4lKq6vj9fr0AWyV2Rcn5ZuRtv9ZgToU+TZTlOMH9X79FovMMxyzRcaYrufGDfXorPf+JIXJdKGsKfuh9aJfQpKmxhnM3lXaj7i7KijjqLrr7+eLrzwwqgxoHwQCEzg8MMPp+7du6uXSbggxtEHQAAEUkYAYjxlDoE5IFAGgWJiXJ+6bE5t1qepV3/4fmFauD793BTjMm1dzOMp5P1G3qeiwl6RcVsxLmKVxbc5RZvr4unssvZcb5OI7VKbqJkvEkpNHee2SFTZbJc59V42XTPtFpu9xLhMaZe8phjX28j5xSdeYtyMynN6sdGctQAxXsaNVSTpe++9p6aqL1iwgL7++mvad999iSOPX3zxhfrb69q8eTO1bduWzjzzTLrsssvCMQSlgIAlAe57Bx98MM2YMcMyh7vJEBl31/doOQgkRgBiPDH0qBgEAhMIGhk3d1PXo72mGPeKSuviz9wVXS9LF4LmNHVTjJfa5Z3rNKPPXjudC1yJ4ktb/SLj+hR5PzEueY89dxCtXjBLTf/e8UVNrd3Qg0TG2WaZ2i8vJ4JGxuWFAsR44NttlwJefPFFeumll2jt2rX0j3/8g1q1auVZCQt4vpYtW0b169enP/zhD9SzZ8/wDUKJIOBBoH379moDQj6iD1dxAhDj6CEgAAKxE4AYjx05KgSB0AgEFeMdzx1ECyeNU8edsfizWTPOu6Pra55FjJbaTd1vzbguxs0142yPrIfWp2OXWjOuA5Zp7Po6an3NuKxJ19du+4lxsY83o5MN5LxsXvTIeBXN58trzbgerdfr1cX4HntWqensfJlr5stZMw4xHtrtFkpBp556Ks2dO5cWL15MxxxzTChlohAQKEYAYty+f0CM27NCShAAgZAIQIyHBBLFgEACBIKKcRF5MgXd3CWdP/faTb3YOeKMwfzeNjLOefU14PoUdV0Iczrbaeqc1m83db3Mzhf9grZv26qm3PuJcRHLK+c8W5g6z5+xuBaGp9w4gTasXKrK4Q3ZvMS4uZt63b3q0xEn/KBQL5/Bzm3vefmNtGLG1MLZ8Lyjerm7qUOMJ3BjlqiyR48e9MEHH9CaNWvSZxwsyh0BiHF7l0KM27NCShAAgZAIQIyHBBLFgEACBMoR4wmYhypBoGICadzAreLGeGT81re+RVOmTKHzzz8/zGJRFgjsQgBi3L5TQIzbs0JKEACBkAhAjIcEEsWAQAIEIMYTgI4qYyGQdzHOZz7vvffexOvOcYFAlAQgxu3pQozbs0JKEACBkAhAjIcEEsWAQAIEIMYTgI4qYyGQdzE+ZswYGjt2LG3atCkWnqjEXQIQ4/a+hxi3Z4WUIAACIRGAGA8JJIoBgQQIQIwnAB1VxkIg72J89erVdMQRR6jj0XCBQJQEIMbt6UKM27NCShAAgZAIQIyHBBLFgEACBCDGE4COKmMhkHcxzhD5/n3nnXfo0EMPjYUpKnGTAMS4vd8hxu1ZISUIgEBIBCDGQwKJYkAgAQIQ4wlAR5WxEHBBjNepU4dmz55NvXr1ioUpKnGTAMS4vd8hxu1ZISUIgEBIBCDGQwKJYkAgAQIQ4wlAR5WxEHBBjO+xxx5077330qBBg2JhikrcJAAxbu93iHF7VkgJAiAQEgGI8ZBAohgQSIBAOWKcz++WM6+rGuxXy1o+h3vZ9CeJzx2vU7fKsyV/efB2ati8FbU71f4oJjlPW866jgKRfi45l8/ncHcfdH2hKjljnM/t7vXz0fTi/zeCNr61rHBOeRQ2oczgBFwQ4/j9Dd5PUEJpAhDjpRlJCohxe1ZICQIgEBIBDAZCAoliQCABAmGJcRvTKxHjNuUGScNCe8aYwXTWHY9Ro5aHq6LYzq0b1xdeLCx/4Sn1Ob9E4PTvLn65llgPUj/yRkcAYjw6tijZLQIQ4/b+hhi3Z4WUIJBbAqtWraLzzz+f3njjDTrppJPoiSeeoEaNGpVsb01NDY0cOZIuueQSOvLII0umlwQuifG42Vo7AQlBoAgBPvqof//+1K1bNxoxYkStlJWI8WbtOtKccdcTR4pFxOqR8Q1vLqVHB/ZR9bTu2ofOuG0yrV4wm6YNv1h9dvqtkwrCVtJ1OOcSJX75mj12KG3fWk0rZk6l/g9MpxWz/0gSGZcoNac75cYJ9N7ieXTSsLto09pVtSLzLKC3fLBWiWaJri+Z+pAqf8DkOdSifZfC52bUXY/Gb1n/z4Ld7c/6CS195mFVBtvb9sQf0sLJd9G2TRup+THHKfv1tkubeKaAHn3XuaHjRkcAYjw6tijZLQIQ4/b+hhi3Z4WUIJBLAqagXrBgAf35z3/eZQDu1XjOy2eWXnHFFVbi3TUxngTbXHZSNCpWAvwMGD16tHoGvPbaazR48OBAYvyZoRdS54sGKzGtR5BZhPI09e6DhtLcu4ZTj8uGq0izHlXWI+MiTk8eNp4ObNNeCfD6TZpR5wFXF/7WhTQL5katjqTnbhioBDaLaS6PxTmL/WJinNPxxfn0SDh/5jftXs+jC3vzpYMeVec2zbpzCJ143Thq0LTFLm3SXygguh79bQAxHj1j1OAGAYhxez9DjNuzQkoQyCUBjtw+9NBDdPPNN1NVVRXZCGw92qtD+ctf/qIiaaUuVyLjSbAtxR7fg4AtAe6/L7zwQmAxLmKThbYpTL3EeK1nirZm3Fxjzv9mAdxv5H3q/wd16KYEvx6l5rL4OxbfvGZdX8PuJ8Y7nndpLQGvl1fVsLGvGNcFeDExrtvD6dYtWVCY3i5t7HXVzfTihJGF6L6tz5AuGAGI8WD8kBsEhADEuH1fgBi3Z4WUIJBLAmYkvJyp5zydfdu2berMUhHzNpBcEeNJsLXhjzQgYEOgEjHOQnPevaNV8bypWZu+Z9cSr15inKdqV3/4PnEEnTc506dq65FxU7iKsO59zW1KcEsU2RTj+iZx5YjxNQvn1MLEU+Wbtj02sBjX7eE2yVR8qUym6fO/OarPdshn5iZ4Nn5EGnsCEOP2rJASBIoRgBi37x8Q4/askBIEckmABeO7776r1ofKxVNUv//97xeNcnO+xx57jMaPH6+mqvNlri31A+aSGI+bbS47KRqVCIFKxLhpqLmbup8Y13dT16PKuhgvFRn3E+O2kXGZZs6R8ZljrilMm9fb5LdTu/l5sci4KcZlnXoxJ9vsPJ9IJ8lZpRDjOXMompMYAYhxe/QQ4/askBIEckkgSPS2UiAuiXF9/X05sw4qZYt8IBAWgbjEeMdzB9HCSePUpmoc+a10zbiXGJc14+36XVBYs66vGZf12/X2baSi0LyunNeJ6+u/9bXq/L3tbuoisou9gNDXjPM0fllTb66jx47sYfXq4uVAjMfDGbXknwDEuL2PIcbtWSElCOSSQCXrmoOCcEWMJ8E2qG+QHwSEQFxinKepr5w7rTBdW5+mLtO4bXZT9xLjLJ71Xck7X/QL+nTDBwXhL9PqeRp46y596MuabZ67qUv9wqbUOeO2kXEuT9/tXZ+O7vc5emh0BCDGo2OLkt0iADFu72+IcXtWSAkCuSTgteO3TD/nDd04ci6bsul/B4HhihhPgm0QvyAvCOgEwhDjaSNqTptPm32wJ1kCEOPJ8kft+SEAMW7vS4hxe1ZICQK5JeB3FrZ8fs8991Djxo3VWeT8t82O6cVguSLGmUHcbHPbSdGw2AlAjMeOHBUmTABiPGEHoPrcEIAYt3clxLg9K6QEARAIiYBLYjwkZCgGBFJDYLfddqMblmxLjT0wBATCIgAxHhZJlOM6AYhx+x4AMW7PCilBAARCIgAxHhJIFAMCCRCAGE8AOqqMhQDEeCyYUYkDBCDG7Z0MMW7PCilBAARCIgAxHhJIFAMCCRCAGE8AOqqMhQDEeCyYUYkDBCDG7Z0MMW7PCilBAARCIgAxHhJIFAMCCRCAGE8AOqqMhQDEeCyYUYkDBCDG7Z0MMW7PCilBAARCIgAxHhJIFAMCCRCAGE8AOqqMhQDEeCyYUYkDBCDG7Z0MMW7PCilBAARCIgAxHhJIFAMCCRAIIsb57Gw+2/uM2yZTVYP9IrMeR5hFhjbXBUOM59q9aFyMBCDG7WFDjNuzQkoQAIGQCECMhwQSxYBAzASuu+46+tWvflXxbupxifGYsaC6nBCAGM+JI9GMxAlAjNu7AGLcnhVSggAIhEQAYjwkkCgGBGIiMGnSJBo3bhytXLmSvvnmm7LEOEepnxl6IW18axn1vGIEsSCXyDj//ejAPqoVHc65hPpee4f6e/bYoXTgUe3p9acnqnyn3zqJtnywlubdO5pad+1TyF9TvZmeu2EgrVk4R+Xj8rsPup70yPimtavor797QH2/YubvqckRR9NZdzxGjVoeTl9tr1F1LZn6kPp+wOQ51KJ9F/U3R/C5Pr3cmHCjmoQIQIwnBB7V5o4AxLi9SyHG7VkhJQiAQEgEsirGX331VZo/fz6tWrWKPvzwQ9qyZQvV1NTQjh07qFGjRvTJJ5+ERAjFgED8BFavXk2HHXYYffnll/T555/Tp59+Sp999pn69z777EPf/e536aabbqITTjjBWoyLWG7X7wJqd+r5SuCKGP/8k01KpJ88bDwd2Ka9EsX1mzSjzgOuVn/zxeJ8w5tLlWBnQX5U79PVdwd16Fbrby6bBfisO4fQideNU3nn338rnTTsLmIxzvlZaOv1sGhne/jiv9muGWMGK6Fes+VjWjb9ycLLgXn33ULfOfMnSsDjyi8BiPH8+hYti5cAxLg9b4hxe1ZICQIgEBKBrInxiy++mJ5//nn6+OOPqaqqSgnvJk2aqP/Xr1+f9txzT9q+fXtIdFAMCCRDYOHChdSpUyfVn7lfH3DAAXTooYdS586dqW3btgWjylkzbq7dNiPWInjr1K1SYpjFcb+R96n/s+AWkS3CmteZ83cNm7dS3+kXC/+ZY66hHpcN30WM6+vUl7/wlIqydzzvUhVVZyHO0XCJkh/d70cqv25bMh5BrXETgBiPmzjqyysBiHF7z0KM27NCShAAgZAIZEmMf+9736Ply5fT0KFDVVQQFwi4TqCYGDendrfsdHytDdt0Mb56wWxat2SBij6zGJfvel9zm8rDophFsinodTGuT3Nnv8gUdP5bj4zrwtoU4zLFXfzKEXgW+pxu2vCL1cfymeu+z3v7Icbz7mG0L+lzyHYAACAASURBVC4CEOP2pCHG7VkhJQiAQEgEsiLGeW1sr1696IEHHqCjjjoqpNajGBDINoG4IuOlxPih3frWimwXi4z7iXGJpBebfq5HzGU9ebY9COv9CECMo2+AQDgEIMbtOUKM27NCShAAgZAIZEWMc3NZeOzcuTOklqMYEMg+gXLEuAhZmXJezprxcsU4R7IXPTJerfnmq1Rk3FwzLhvN8Rr2Lev/qaaycxpuA9aMZ7/f2rQAYtyGEtKAQGkCEOOlGUkKiHF7VkgJAiAQEgGI8ZBAohgQSIBAOWKczdN3U+8z5Hba9N7bdMKVo9Q548V2Uy8lxs2p5KfcOIE2rFyqprdXNWxsJcbN3dRlOrrf5wngRpUxEoAYjxE2qso1AYhxe/dCjNuzQkrHCPQ4vhd9hYhoJF5fsvhVan34EdSg4b6RlB9moWxrh07fC7PIyMuqs9tuNP/lFyOvBxW4SaBcMe4mJbQ6iwQgxrPoNdicRgIQ4/ZegRi3Z4WUjhHgAeePH5zhWKvR3DwQeHzQyZhanwdHprQNEOMpdQzMCkwAYjwwQhQAAooAxLh9R4AYt2eFlI4RwIDTMYfnqLkuDChz5K7MNQXPxsy5DAZbEnDh2ZmlZWKWbkOyFBKAGLd3CsS4PSukdIyAiwNO/SgfcXfrrn3ojNsmq/WdcVyyhnTA5DnqWCNc5RNwYUBZPhXkCIuAi8/GsNihnHQTcOHZCTGe7j6YF+sgxu09CTFuzwopHSPg4oBT342Yj/qRTYyq178XqyB3rKuF3lwXBpShQ0OB1gRcfDZaw0HCTBNw4dkJMZ7pLpoZ4yHG7V0FMW7PCikdI+DigNMU4+xy2Qm580WDiXcv5ouPJ5p372j1d4dzLqG+196h/p49dqj6f9296tOiR+6mJkccTT0vv1EdC7TxrWXU84oR6qggvVz+nC/ZxViPjB/Ypv0uZeqReux47H1TujCgdOxxlKrmuvhsTJUDYExkBFx4dkKMR9Z9ULBGAGLcvjtAjNuzQkrHCLg44PQS4zXVm+m5GwaqKeNyLi8LZp66zpd813nA1Uo4f/D31wrn/D4z9ELau/EBKu3qBbNp2vCLiaefi8iWo4tY3K+c86zKV7PlY3p0YJ9a6cwy5cWAfmbxprWrCvlcn97uwoDSscdRqpqblWejecZ5qiDCmFQScOHZCTGeyq6XO6Mgxu1dCjFuzwopHSOQlQFnmG4pJcY7nndpLWHOdUue00b/lv72+4nKHI6U7/iiplZar7Xg+vnDHEX3E+MyTV4X/6Yt8tKgXb8LChH8MNlkqSwXBpRZ8kfebM3Ks5GfOe8ufrkwG4f9wM+JmWOuoR6XDSdeioMLBHQCLjw7IcbR5+MgADFuTxli3J4VUjpGICsDzjDdUkqMt+l7NnG0W5+yXokYb9TqSCXUP/v4IyXAP1zxN1r0yHhfMe4l8MUWmeYuHPSp8GGyyVJZLgwos+SPvNma5WcjxHjeemO47XHh2QkxHm6fQWneBCDG7XsGxLg9K6R0jECWB5yVuqrUmvFDu/UNJTLO9slUdJ5SrtfrNU3dS4x7RekrbXfe8rkwoMybz7LUnnKfjTJrZc3COaTv+aDPjNE/54j2sulPFvae4O94icyMMYPV3hP6/hJmOjn5wdxPQl8es2TqQ2o/C34R2KBpC7W8hj/jS05xYNvm338r1a2/zy7fcTrddtk3o07dKpIZQJzG7/O4T6jIUt9K2lYXnp0Q40n3Mjfqhxi39zPEuD0rpHSMQLkDzjzg8RLj+rpsPt5M/ze32Vwz7iWceSCtT1Ovati4EGEXgS9Rclsxbq5fx5rx/+uBLgwo83C/ZbUN5TwbRRTL/hD8jNnywVqSl2myrISfK1s3rldLXDa8uXSXfSNkqQrf55yWRbfc8yLO+XO+5Nkgf/Ozh4U8i+96+zaqNU1dz6On47z6LCDdPl6Co0915+8aNm9FTdseS7PuHEInXjeuIPLrN2mm2qqnZwZ8yYaYWe0HebTbhWcnxHgee2762gQxbu8TiHF7VkjpGIFyBpx5QWN7zri+m7pMC5dBt40Y52i4Xkbbk86hFTOnqqgUX+YGbn5lYjd1757nwoAyL/dcFttRzrNRIswnDbuL+GWeXObn/G8RsvxCTgS3vABkscviVc+nC3NOJ98d/7MRNPP2a5Qo52eN/kKAl8iIMGZhzi8TvdLxC0Oxh9eWS7ReXhZwRJ7/5mi4XPz8XLdkQeFzydN90FCae9dwrFPPQGd34dkJMZ6BjpgDEyHG7Z0IMW7PCikdI1DOgNMxNGhuygm4MKBMuQtybV6xZ6P5oq5lp+NrCWsBw0JVF9z6Wm4W47rYlcizlxjX05linKfF6xdH0HkmjinGvdJxlJunqctLBF2Mr5w7rZbo1sU4nxihXzIl/fNPNqlIO0+z16ev57qjZLBxLjw7IcYz2DEzaDLEuL3TIMbtWSGlYwQgxh1zeA6a++5rL6lWTPlpP5ozp7YQyUHz0IQiBF599VXq2rUrHX744dS8efNIWZXzbKw0Mm4rxnVBLwL/pOvvopfvGe0ZidZFvzllXYdm2m0bGecp+BxpL3bJVP1S6SJ1Igr3JAAxjo4BAuEQgBi35wgxbs8KKR0jUM6A0zE0aG5KCdz7g/+gTz/6gL75agftscceKbUSZkVB4KuvvqLdd9+dvv76a6pTpw61aNGCzjzzTBo/fnzo1ZXzbJTN22QquEzl5qnb02++gvzWjNuKcX0jSL8147LZ2snDxpM+TZ2nn+t59HQ8Td0vMl794fu1prBLGXzCgz61XdaZdzx3EC2cNK4QZcea8dC7ZGgFQoyHhhIFOU4AYty+A0CM27NCSscIlDPgdAwNmptyAi4MKFPugkTNmzdvHk2aNImmTZtGNTU1NHz4cLrxxhtDs6ncZ6PfrumldlOXNdnFpqn/9XcPqHatmPn7WtO//faTkM8/+Ptrnrupy2ZwxSLjleyaru/HgWnqoXXF0Aty4dmJaeqhdxsU6EEAYty+W0CM27NCSscIlDvgdAwPmptiAi4MKFOMP1Wm/fKXv6Rx48bRhRdeSI888kgotqXl2ahPHdc3UgulkSjESQIuPDshxp3s2rE3GmLcHjnEuD0rpHSMAA84D/5uj0y1ejci2vm/FvPfcpmflZOGy5Cywson5UjZ+r914NIevV2mQ2y+s0nj5Wi/+sPmwXUH8ZHp63/+dT7t3OlH1a5Lb9q0ifr370/dunWjESNG2GVCqlQSmDJlCv34xz+mu+++m37+858HthFiPDBCFJBSAhDjKXUMzMocAYhxe5dBjNuzQkrHCPCA88cPznCs1WhuHgg8PujkQGJ8wYIFNHr0aCXCX3vtNRo8eHAesDjdhksvvZSefvpp2rJlS2AOaRHjgRuCAkDAIAAxji4BAuEQgBi35wgxbs8KKR0jgAGnYw7PUXPDGlCuWrWKXnjhBYjxnPSNevXqqZcsQ4YMCdQiPBsD4UPmFBMI69mZ4iYSpqmn2Tv5sQ1i3N6XEOP2rJDSMQIYcDrm8Bw1N6wBJcR4jjoFEfXp00dFxv/6178GahiejYHwIXOKCYT17ExxEyHG0+ycHNkGMW7vTIhxe1ZI6RgBDDgdc3iOmhvWgBJiPEedgogmTJigdlWvrq4O1DA8GwPhQ+YUEwjr2ZniJkKMp9k5ObINYtzemRDj9qyQ0jECGHA65vAcNTesASXEeI46BR//tWIFHX300eos8iAXno1B6CFvmgmE9exMcxsxTT3N3smPbRDj9r6EGLdnhZSOEcCA0zGH56i5YQ0oIcZz1Cn+tyn8XAu60345z0bzvG6dqM3RZPoZ47bekLPEj+73I2rRvotttrLSse2PDuxTyCPnk5dVSJHEXD63/YzbJtOmtato2fQnSc5dl2zSzoM6dKN2p57vW1oxH4Rlb17KCevZmWYeEONp9k5+bIMYt/clxLg9K6R0jEA5A07H0KC5KScQ1oASYjzljq7AvNatW9OaNWsqyPl/Wcp5NgYVgpWI8UCNs8jMQnnGmMF01h2PUaOWh5OtKLYoupBEF+NVDfbzzGpbb1AflGN31tOG9exMMweI8TR7Jz+2QYzb+xJi3J4VUjpGoJwBp2No0NyUEwhrQAkxnnJHV2BeUpHxZu060pxx11OTI44uiFg9Mr7hzaWFSHPrrn1URHj1gtk0bfjFqpUSedYj0h3OuURFi/maPXYobd9aTStmTqX+D0ynFbP/SBIZ1/OccuMEem/xPDpp2F27RJyXv/AUbflgLXUfdH1BYC+Z+pAqf8DkOSrK7ieATcHLZYnt0uYGTVsoO+s3aUbz7h2tyu15xQhVH19cxjNDL6SNby1Tn7PdXpFxfkHB+duedK7Kd1jPU1Rk3IzWs82NWh1Jz90wkNYsnEPMteflN9Jrj9+j2s8i3/TB/IljaNumjdT8mOMUW90vwrtO3apatuo+raBLpipLWM/OVDXKMAZiPM3eyY9tEOP2voQYt2eFlI4RKEeMy0Csbv19yBy8MbZiA8gDj2pPrz89UQ3AeMDJg0EeaMmA1C8q4pg70NwyCLgwoCwDB5JqBJIQ4ywwO180WAlGFpJbN64vCD2eft190FCae9dw6nHZcBVpZiHLl6Rv2LyV+lvE6snDxtOBbdoXhG3nAVcX/taFNItxEaP8OYtprt9P5OpinNPxxfn0SDh/NuvOIXTideOUrV6XGdWWssROziNCVyLs9fZtpERzu34XFNrtZefKudNo+fQpSqR//skmJd6ZbdO2x9ayi9uybskCVU/1h+/T/PtvVQKc88jfXmJcj/gzb2mr/iJB2qG/7Hh38cuFlwpZvuFceHZCjGe5h2bHdohxe19BjNuzQkrHCJQrxv0GnDwQ4u/8BpD6wIzXILIgP6r36WpwWWotoGMuQXMtCbgwoLREgWQGgSTEuC5ezUislxjXTdanqZtrzEX09ht5nxLZ8rzU14xzWbL2msWnHsE212KLGO943qVKGIuA18urati4lpi16WBSrohYsbOmejPNHHONegnBly6S/exc9OivSV5OSNv0f4s9OqtyxLjOShf0HA2XMntddTO9OGFkYeaBDYOspHHh2QkxnpXemG07Icbt/Qcxbs8KKR0jUK4YLzXglM13/AaQ5jTHNK6VdKwLZLa5LgwoM+uchA2PWozLFGpuJk+1btP37KKRWNmYTF5a8gwhfTq0/hw0xaE8M3tfc5sS3BKpNcW4vvlZOWKcp3brF78oNSPQXu6U+mWWlLAwI8q6GK/Z8nHJlwYigvWXtDofnT3XKRzLEeM6K32qvbRTZmzxv/Xp7xypz8MsLheenRDjCT+EHakeYtze0RDj9qyQ0jECxcR4OQNOnlYo0wVlrR1HQMwBJMS4Yx0swua6MKCMEF+ui45ajJvwzOeaV2Tc3CXcnC4ukd9SkXE/MW4bGZfp5BwZl4i1ORXdb804C+uXfjOKTrhylFrrrj/zzci42BlmZLxhs4NriXnbyLj+goPXh5tiXNbQF7spbHbFz8pN5cKzE2I8K70x23ZCjNv7D2LcnhVSOkag3Mh4sXV4+gDHjIzLwAxi3LEOFmFzXRhQRogv10WnUYx3PHcQLZw0rrCpWKVrxr3EuKwZ91uLba7Z5nXlPD1dXzOur1Xn7/12U+eN2TivLnB3fFGjIsicr1hkXNZkS9Tbb207C2Z5uaCvGdfF+B57VqllTnx5rRk3l01JOlOM62vG+aWErPc31/gzD6wZz85jA2I8O77KsqUQ4/begxi3Z4WUjhEIS4yXWjMOMe5Yx4qhuRDjMUDOaBVpFOMsGHkGkew+rk9Tl6nSNrupe4lxFsH6LuWdL/oFfbrhg4Lwl1lOPP26dZc+9GXNNs/d1M1zxM2dy/Vd0TnirU/hPvbcQbR6wSwy11rrkXEWu7qdfYbcTpvee1tF2s217abN9fZrUthnhKfG8+7mvGv6ihlTVTv5Ynv40nep53Q8C2DDyqW1NtTTZyro7dQ3FfX7PKO3RcFsF56dEONZ76XZsB9i3N5PEOP2rJDSMQJhiXHZ+IY3Z+PLPI4HYtyxjhVDc10YUMaAMZdVxC3G0wYRZ26nzSPpsseFZyfEeLr6XF6tgRi39yzEuD0rpHSMQDli3DE0aG7KCbgwoEy5C1JrHsT422Xvhp5aZ8Kw0Am48OyEGA+926BADwIQ4/bdAmLcnhVSOkYAYtwxh+eouS4MKHPkrlib4roYjxU2KsscAReenRDjmeuWmTQYYtzebRDj9qyQ0jECEOOOOTxHzXVhQJkjd8XaFIjxWHGjsowRcOHZCTGesU6ZUXMhxu0dBzFuzwopHSMAMe6Yw3PUXBcGlDlyV6xNgRiPFTcqyxgBF56dEOMZ65QZNRdi3N5xEOP2rJDSMQIQ4445PEfNdWFAmSN3xdoUiPFYcaOyjBFw4dkJMZ6xTplRcyHG7R0HMW7PCikdIwAx7pjDc9RcFwaUOXJXrE2BGI8VNyrLGAEXnp0Q4xnrlBk1F2Lc3nEQ4/askNIxAlkR419tr6HZY4fSQR26UbtTz3fMS2iuFwEXBpTwfGUEIMYr44ZcbhBw4dkJMe5GX066lRDj9h6AGLdnhZSOEciKGH9/6Sv07uKXqfug6wseqqneTDPHXEM9LhtOjVoe7pjn0FwXBpTwcmUEwhLjldWOXCCQfgI7d+5Mv5EBLIQYrwzezTffTDPmvlhZZgdz/f1vr9OeVVV0RJu2Drbevskn9+5FEOP2vJDSMQJZEeNeboEYd6yzGs2FGHfb/8VaH4YYB10QAIHsEoAYr8x3LMbnbthBh3TsUVkByAUCBoH3Xp9PvQ/cA2IcPQME/AiUK8ZZAD93w0Bas3AOte7ah864bTJVNdiPNr37Nj0z9ELa+NayWp9zRHvZ9Cep7l71adEjd6vvOLo9Y8xglfb0Wyepaede6aRsmaK+ZOpDqhkDJs+hA9u0V9PW+bMmRxxNZ93xGDVo2qLwmaRr0b6Lsm3+/bdS3fr7qPT6d/y3bnuHcy6hvtfeQXXqVimbHh3YR6X3+1xngF4WLwGI8Xh5Z6k2iPHovdWrVy968UVE0KInjRoqIQAxXgk1IhHjPX56Q2UFIBcIGATmP3AbxDh6BQgUI1COGBdRfHS/HxGL3OUvPEVbPlhLHc+7VAn0dv0uUML6Lw/eTls3rleidsObS5Wg1QV09fr3lIjftHaVSit/czoR5/w5Xyzc9b9ZILOQZ/Fdb99Gtaap+6XjcvhFQeeLBu9i344vanYpo2HzVtS07bE0684hdOJ14woiv36TZqqt+tR4ZsAX1rHHf59BjMfPPCs1QoxH66lPPvmE9ttvP8r7VOdoKaL0KAlAjFdGN29inMdo04ZfvAuMnleMKCx7fO3xCXRo95PLXu7IZS96ZHytYBBXJAGdyjxAVKk9ldYXdT6I8agJo/zMEyhHjEuE+aRhd6louFzm5/xvEbI1Wz4uCG7Ow4KZxS6LVz2fLswl0s7R7ON/NoJm3n6NemjyCwD9hUCjVkcWhDELc34h4JWuqmHjgj28tlyi8PKygCP35sOTH7LrliyoFSXndN0HDaW5dw3HOvUU9HyI8RQ4IaUmQIxH65i1a9fSoYceSt988020FaF0EKiQAMR4ZeDyKMZFMHvtLaQL6nL3HgqS1887UZRZWU8ILxfEeHgsUVJOCRQT4yyc5907WrWc3yK27HR8LWEtSFjcSoSbhbS+lpvFuC52i4lxPZ0IdRHjPC1evziCfmi3vruIca90HOVmYS8vEXQxvnLutFqiW+rwepsqU9I//2RTYUq+Pn09p10ktc2CGE+taxI3DGI8WhcsXbqUOnbsSF9//XW0FaF0EKiQAMR4ZeBcEuP6UkSmxTM4eaNg/pxnbO6xZ5Va+siXBGxkXMzLI1t36U1rXpnrGRnnWZeypFPG0BwskoASf6Yv39RniIrn2B4OQmX9ghjPugdhf+QE4oiM24pxXdCLwD/p+rvo5XtGe0aiddFvTlnXwZmRe9vIOE/B13dv93KGTNUvlS5yRzpYAcS4g063bDLEuCWoCpO9/PLL1KdPH9qxY0eFJSAbCERLAGK8Mr4uiXEmZEaieRzqJ8Zl2SUHg47qfboS6h/8/TVPMb7o0V8XZoFKcEdfrin52AZ9GSUi45X1W+QCgUwTKEeMy+ZtMhVcpnLz1O3pN1/hu2bcVozL2nJ+E+i3Zlw2Wzt52HjSp6nz9CI9j56Op6n7RcarP3y/1hR2KaNN37N3+ZzXwXc8dxAtnDSuEGXHmvHkuj/EeHLs014zxHi0Hnr++efp3HPPpS+++CLailA6CFRIAGK8MnB5FONea8Yl6lyOGGeBLUKdZ4GWWjOub3jM3vDaO4k/5wg6j3t5bA0xXlm/RS4QyDSBcsQ4N9Rv1/RSu6nrU3z81oz/9XcPKJYrZv6+1u7l5m7qssmbfG6+mZQd0yVdsch4Jbum61PYMU09ue4PMZ4c+7TXDDEerYemTJlCgwYNom3btkVbEUoHgQoJQIxXBi6PYrycNePFIuO2YrzXVTfTixNGqtN7WIDzZW5kzJ/xuFims0OMV9ZfkQsEckGgXDEeVaP1qeMskHGBQCkCEOOlCLn7PcR4tL5/4IEH6Je//CV9+umngSratGkT9e/fn7p160YjRowIVBYyg4BOAGK8sv4AMe4/TZ3F+Mo5z6pp6Twb0y8yzjMop40YVDjBR9am65FxiPHK+idygUAuCUCM59KtTjQKYtwJN1fUSIjxirBZZxo7dizddttttHnzZus8ZsIFCxbQ6NGjlQh/7bXXaPDgwRWXhYwgYBKAGK+sT7guxnWBzQR5PXfzY46rdVRvqTXjsnSTo92dB1yt1pZLlPzANu1rbQqHyHhl/RS5QCBXBNIixnMFFY2JhQDEeCyYM1kJxHi0bhs1ahTdd9999NFHHwWuaNWqVfTCCy9AjAcmiQJ0AhDjlfWHPIpxrzXjssSQ9w1iwb3xrWUkp/TILuhtTzpXQaxbf5/CbuqyTLHUbup8Uo/U26pLb9q2aaOKlMvGb1yu1zR1fcmnLLWszJPpyYXd1NPjC1iSUgIQ4yl1DMwqSQBivCQiZxNAjEfrep6i/uSTT9L7778fuCKI8cAIUYAHAYjxyrpF3sR4ZRSQK0wCEONh0kRZuSQAMZ5LtzrRKIhxJ9xcUSMhxivCZp3p8ssvp5kzZ9KaNWus8/glhBgPjBAFQIyH1gcgxkNDiYL+lwDEOLoCCJQgwIPWg7/bI1OcdiOinf9rMf8tl/lZOWm4DCkrrHxSjpSt/1sHLu3R22U6xOY7mzRejvarP2weXHcQH5m+/udf59POnX5UM9WlYWzIBCDGQwZqFHfRRRfRq6++SitXrgxcEcR4YIQoAGI8tD4AMR4aShQEMY4+AAJ2BHjQ+uMHZ9glRioQSBGBxwedDDGeIn+kyRSI8Wi9cd555xGL6DfeeCNwRRDjgRGiAIjx0PoAxHhoKFEQxDj6AAjYEcA0dTtOSJU+Apimnj6fpMUiiPFoPXHaaaepzdt4F/SgF8R4UILI70UAa8Yr6xcQ45VxQy5/Apimjt4BAiUIxCXGeYfIWXcOoROvG6fOZ8QFAkEJQIwHJZjf/BDj0fq2d+/etGPHDpo3b17giiDGAyNEAR4EIMYr6xYsxsdPnEwNmh1cWQHIBQIGger1/6TBlw6k3XZiYSE6Bwh4EohLjP/lwdupZafjic9drOTi/PPuHV0ra88rRlD3QddXUlxZeb7aXqPOhTy6348qtp8r5BcSbzz7MHW9+FpaOGksfefMn+DFRFmeqJ0YYjwAvJxnhRiP1sHdunWjvfbai2bNmhVtRSgdBCokADFeGTgW43/82zt0zGk/rqwA5AIBg8Dfn3+cfnjsYRDj6Bkg4EcgLjEe1AMsxvkS8S0CuX6TZrEI8qD2s73z7rulIMBFmPe8/EaqU7cqaPFO5ocYd9LtVo2GGLfCVHGi7373u9S8eXN67rnnKi4DGUEgSgIQ45XRxTT1yrghlz8BTFNH7wCBEgRsxHhN9WZ66Tej6IQrR1FVg/0KJfLnz90wkNYsnEOtu/ahM26bTJ9/sklNR+eLy5bPnhl6IW18a1khnZTz/tJX6NGBfVT6DudcQn2vvUP9zZHo7VuracXMqTRg8hx6d/HLtcQ4/8Oc+s7/9qqH61g2/Umqu1d9WvTI3coGFvUzxgxWNp1+6yRqd+r5qvzlLzxF04ZfrP5ucsTRdNYdj1GDpi0KkfGqho1p/v23Ut36+9CSqQ+pdGyfRPy92sNimz/nNuiR/KCzBVzv3BDjrvcA//ZDjEfbN9q1a0f83+9+97toK0LpIFAhAYjxysBBjFfGDbkgxtEHQKBiApWKcXPqNovYLR+spTZ9z1aC+ORh45VAFcHOIpT/zQJ068b1SnRXf/h+YR25CF6OdHcecLUSv3rU24yMc4N1Gxq1OlK9GGjX7wIlrPV6Nry5VAl+Fs0Htmmvyq5e/556UbBp7SqV1vybXxZInWIPT1NnMc7t63zR4F3q8WsPt91LeHsJ9Iod6WBGiHEHnW7ZZIhxS1AVJjviiCOoR48e9NBD/34hiQsE0kYAYrwyj0CMV8YNuSDG0QdAoGICxcS4HuXVK+BIctO2x6oI8UnD7qoVLTej1VyGiF0WuPy95Fu9YDatW7JACXOJHnMEu9dVN9OLE0bSQR26FSLWpcS4RKzFHt2Omi0f17KBy2rYvJUqW7dHj/pze+UFgynG9Y3oJOrObVg5d5pve7zWiGOqesXdVmWEGA/GL8+5Icaj9W7Lli2Jd1SfMGFCtBU5UvreDRo60tL4mvn51k9pz3r1aPdv1Ymv0pTU9Fn1lootgRivGB0y+hDANHV0DRAoQaDSyLgpsqUaU9x6CXqZ/v3hir8VpoRLfp5C3m/kfUo86xumeYlxPerO+XXRz9/NHHMN9bhsOLEYZ5Evot9PjO+xZ5WKmsv0cy6TRLe8NgAAIABJREFUN4kzxbj+EsIU4zLFXW/PSdffRS/fM1rZou8kDzEe7PaEGA/GL8+5Icaj9S6vF7/wwgvp9tv/vZcHrmAEuL8Omf9hsEKQuxaBh/6zC5097klq2LylU2TG9WhKQfasrlSMe43RnAKPxvoSgBhH5wCBiMS4X0TZS4zrQlg3RyLP5o7oXruXez3o9eg3l6uLZDMybiPGzUi9X2S8mBjnqfpe7dE3b9NfXPDu6tjErbLbFGK8Mm4u5IIYj9bL+++/P1199dV04403RluRI6XbvBR3BEVozbzv9KPpP+95jvY9qHVoZWahoKC/i5WIcb/Agh748GNX7LQaPdix6NFfF2Y0ZsEPbKNN+7PSliB2QowHoYe8ThCodBBgrgVn4cpTzjueO4gWThpXmL7ulW759Cm1NnuTs8dlnbdMUy8WGTd3U5d6/NaMlyvGd3xRo9ag8zp328i4vmacI+D6unX+ITGPdsOa8WC3WNBBR7DakTvNBCDGo/XOvvvuSyNHjqRf/OIX0VbkSOmV/g6Xi0ff5FTPK5un5uFkDxkbrJjxexrw8Fza/9C2tTDx7zL/9vI+MebSND+eNtx4DLTokfFq01eZAef1Wbk+Kzd90N/FSsS4n402YtRWjGexb9q0v1z/ZjE9xHgWvQabYyUQZBDgtXs576ZuriXX08kUdfmx0qexy47sMl3cFOOlzhkvtZt6qWnqDF7fHf7YcwfR6gWzCmvYZQM3v8i4rHuX3eGlPfyDj93Uw+/WQQcd4VuEEtNCAGI8Wk/Ur1+f7r77brrkkkuirciR0oP8DpeDSH4jZQNSzuv1WTllpi2tiLvN/3yHTrxubKhivBg3l8U4i04Zn8npNPrJNPzZUb1Pr7UM0Dw958Cj2tPrT0+sdcKNX2Tca9wo4yyv8Zf0CfMEnHJO2vE7KYfb/uW2rbTmlbnKdmkX7yEkyxb1E3vSdr/EYQ/EeByUUUemCcQ1CMg0pBCMxznjIUA0ioAYD59pXkqEGI/Wk/Xq1aOHH36YzjvvvGgrcqT0uH6HvYS3zCrjWWC8xMoULrqQMCPEcqynCBXeY0VEGf9tHuUp3+mReIlUt+7Sh+aMu75wpKi8sNeFnp5PP1qVu4nUJ/Zv3/qp6j0rZv6+VplmZFwXjX4zBGy4uSrGZVaknJCjn6ajR4b1pYb6jEnzhBs5HpdnTOr7/cg09UO79S3sB8R9hOvny+9zOV2H03B/5L7Kx9ryDAYu3+akHd0m/eQfOSlHZlpwOr/2O/Io82wmxLjL3kfbrQjENQiwMibniWRdVdeLryWv3dVz3vzQmwcxHjrS3BQIMR6tK+vWrUvPPfccnXzyydFW5Ejpcf0O20TGdbHKR3+aYoVdwsKLxZGIEEknglgEroh1vUzOL0vARMywSOe0ckSpvBgQkc/feR0rKqei6PWJuPvg768pwVVv30aqvgbNDvG126tuvevZcHNRjMuLD/PkG/GL3zRtfWq6+MurjIbNDi5svusnxsVP+qa9+ka55lJJvW7Oq2/867e5r9/JP3IfiNA3p9xjmvq/vQMx7sgPGZpZOYG4BgGVW4icIOBNAGIcPcOPAMR4tH1jjz32oJdffpm6du0abUWOlB7X77Df2meJfptRcn0vFn2asRlB1kUzC2m9nI7nXVpLfLNLdeH65uw/0Mo5zyrhLFFHEfwb3lyqXgbwJcJe7xJmdJzTiLiTMnj5mFmfvETgadH6+nF9nxd9jXIpbtIm8zQV/txcmhd1lw76u1hszbi55PC00b+lv/1+Yq0TaLh98lLGFLccNeap3HLp/jKXJbKg9xLjciStlKX3Rd0++Vz2/1mzcE4t9Nzn9fLZ38XEuNdJObzvAPchefkAMe7duyHGo77rUX7mCcQ1CMg8KDQgdQSCDjpS1yAYFBoBiPHQUHoW9K1vfYuWLVtGbdvW3hwr2lrzW3pcv8N6hFcX1yJ0/USniCvzqFIRPCKapRxdjLfpe7aauquvt/YTx7JfjAhp/r953Kgu4HgNMP+bL78Ivp8YlyNU9aNMuRx9rxfpcaW4iRh3bQO3YpuvMRMRt9LXJPpdLDKuR9v9xLj+JPA7lUc+55dBcsytHjHnMvQ16aXEuNdJOXob+SUBxDjEeH5/pdCySAnENQiItBEo3EkCEONOut2q0RDjVpgqTrT77rvTunXriM8bxxWcQFy/w+Z0a/n33o0PULuL86VPIfdrmR6RlgijiOFKIuMSnTbFuB6dlqnoLJb5ONAXRl9VEPh6ZD5IZNyvvaW48eZhLk5Tl5cQfJIOT9mWKLR+qg1HjU0xXsxf+qk0XmvGm7Y9ttYmwbJm3O9zc824+PLkYeOVu21O2tHXjHudlIPIePFnICLjwX8jUELOCcQ1CMg5RjQvAQIQ4wlAz0iVEOPROor5bt26lfbee+9oK3Kk9Lh+h73WPssGaTJV3W/NeLH13OwmFuPmTtK2a8b9xDjvSC3RZn0Ke/dBQ2n6zVfUOnpUouQixuXfYnfYa8ZNbq6Kcfa9vsmevnGfvEDRX9hwek7Dly7U9d3U9Y0BRSzr54z7bbrn97nfpoS2kfFiO7XrU9vNyLjefn4p4OoFMe6q59FuawJxDQKsDUJCELAkADFuCcrBZBDj0Tn9yy+/JN7AbefOndFV4ljJcf0OF9sV/LOPP6q1blumbxfbTd2cvn7KjRN2OZ5KXOkn2HTx7xUZ1/Pp66914dWqS2/atmmjipRLFFbfTV2feh72burC7cMVf8M5447dt2iuHQGIcTtOSOUwgSgGAebbRh1v0N0leTBhnmMu5Xutd4tz85Ri7Q6jizG7lp2OV0W9u/jlWsfGhFF+1sqAGM+ax+KzF2I8OtYbN26kAw44AGI8RMRR/A6HaF7JoswN3EpmQILICAT9XSy2gVtkRqPgXBOAGM+1e9G4MAhEMQiIUowXazOL8Vl3DiE+n1I26tDPlDQ37wiDX1xlcDt0AS7CnNfnuXoFHXS4ys2FdkOMR+flt99+m4488kj65ptvoqvEsZKj+B2OEyHEeJy0i9cV9HcRYjw9vsyLJRDjefEk2hEZAZtBAG/W8tJvRtEJV44iXjsjlx6J1qeBiRivu1d9WvTI3YXdSfmsRjkeQqa+6buzynozLp93UK3fpBnx+aN8yXQ4PTLOZ5vOnzhGTU9rfsxx1PHcQTT37uG1xDjnZeHKF59paq4d0neR5Yh7s3Ydac6469VxJLzBB+flIzH0dVDmjrJ+65u+3LaV1rwyVx3l4Xf8hs7Nb10Tfz7vvlvoO2f+pPCSQc4s541s9E1uIusoKSw46KAjhU2CSSERgBgPCaRHMYsXL6YuXbrQV199FV0ljpVs8zvsGBI0t0ICQX8XIcYrBI9svgQgxtE5QKAEAZtBgJcY188fld0qt25cr3bUlGNO9A1hRAyb5zhKJFs2Z2EB3nnA1UqM8yXlzRgzWK1n40umqbMYl8856u0VGef0eqSeNwHR7dTL1Y9fYTvl7FMuQ+zU/+Y6ed2a7CTK7dY3G5FNaXgnTi6bxb1sJsMvBjiqrZ9rypvVyPEZOnPO/8azD6sdZEV4ewl01zp70EGHa7xcai/EeHTenjt3Lp1yyinEa8dxhUPA5nc4nJpQSt4JBP1dhBjPew+Jv30Q4/EzR40ZI1BsEGBGgKVpLLLNYyR0IczHUbDI5KNSOJKuR7Nff3qi2kGTBbwuZFlkimjuddXN9OKEkSRnUrIwlXMiTTFu1mNOU9fFuJR7dL8fKSGsn2fJ7dHz6mdX6vUXO6fSFOPyAkLfYZM/82PDMwe8zrI0p6iLH1yfqh500JGxWxXmlkEAYrwMWGUmfeaZZ+iCCy6gmpqaMnMiuR8BiHH0jbAIBP1dhBgPyxMoRwhAjKMvgEAJAjaDAK/IOAtEXVTqglU/G5JFdjExLtPWxUyett1v5H2qbBHNxcS4fkakX2RcRL8chyJRaRHG/HLA64xKPUotLwPkjEmZPs9lyBR0U4x7nT3J6fkIGP3SN5nTd46V6e/6iwE9H8T4XthECk84TwIQ49F1jEceeYR+9rOf0WeffRZdJY6VzP217t77ONZqNDcKAts/+zTQ7yLEeBRecbtMiHG3/Y/WWxCoVIybu5oXi4zrwt2MjHtFgs2zGoOKcVkzLtPf/SLj+i7tfpFxM+qvT4G3FeP6CwQ/F5kvN7x2T4cYhxi3uMWdTAIxHp3b77nnHrrhhhuouro6ukocK5n765D5HzrWajQ3CgLjejRNpRiXpY16MCSK9qPM9BGAGE+fT2BRygjYiHEvk23WjEtkV99AzW/NuESceT23OZ08iBg3d1PX12izePZai85T623EuHkmqo0YN9eMcz3Lp09RU/r1FxVYM176Rgk6Ha90DUiRVQIQ49F57o477qBf/epX9PHHH0dXiWMlV/o77BgmNNeCQNDfxagi4xDjFs7LaRKI8Zw6Fs0Kj0CQQYDtbur6TuIsPnlqutdu6rKzuIjcSqap80ZpvHu5XOY546V2Uz9p2F1qnbufGJeN5pZMfUjtuM6bqq2YMZU4H28op2/g5jVNndeq69x0++THindv50teZmA3de/+HnTQEd5dhJLSRgBiPDqPjBgxgh588EHasGFDdJU4VnKQ32HHUKG5JQgE/V0sV4ybYyp9vKd/x59Xr39PnWrDl34Sjr7xL3/nd/qMPl7yG0dxfn25n4w10XGSIwAxnhx71JwRAhgEZMNROGd8Vz8FHXRkw/OwshICEOOVULPLM3jwYJo6dSqtW7fOLgNSlSSA3+GSiJDAkkDQ38Vyxbg+89GMfpszEXm/HA4y8OV3Eo7XyToSmJFxkLnkUB8f6RsDV3/4fuEkGw6E4EqGAMR4MtxRa4YIYBCQHWfJGnG22GsNeXZaEo6lQQcd4ViBUtJIAGI8Oq/89Kc/JT7e7J133omuEsdKxu+wYw6PsLlBfxfLFeN6U/T9fg5s014dUWvu0cP/5kvfALjUyTpShtRl7itkfi4n8Ug9MksxQuwouggBiHF0DxAoQQCDAHSRrBIIOujIarthd2kCEOOlGVWa4sILL6TXX3+dVqxYUWkRyGcQwO8wukRYBIL+LhYT415Tw9luc3kgR7/N/XHMI171jWxl+aLOQJYt8mfP3TCQePmefMZLCfVlfeYSR15GqF89rxhRmB4fFmeUY08AYtyeFVI6SgCDAEcdn4NmBx105AABmuBDAGI8uq7xwx/+kNauXUtLliyJrhLHSi7nd1g/yUTfp4SPEfW69E1TS2E11//q4ofz6t93v3QYbdu8kVj4hCl2MAOslJeKfx/0d7GcyLj0B4lElxMZN8W418k6Zkv102v0/i6fm5v/BiOJ3GERgBgPiyTKyS2BcgYBuYWAhmWSQNBBRyYbDaOtCECMW2GqKNGpp55KmzdvpkWLFlWUH5l2JVDO77B5rGgpnrZi3Dwhhcs1TyPRT/ng71/6zSg64cpRatPTMC7sjRKcYtDfxSBinP0n68J5jbY+/ZxPm9HXjOtiXD8aVz9Zp/ugoTT3ruHU47LhxJ9L/+h43qU0c8w1u3zOm8Ppde74okZF1dv1u4DanXp+cLgooSICEOMVYUMmlwiUMwhwiQvamn4CQQcd6W8hLKyUAMR4peRK5+vVq5c6x/ill14qnRgprAiU8zvsFxkXscMVSkR79YLZ6vQSvrxOMDFPOvGKTsrJIiyAZLpw40PbUtU+DWndkoXqVJFePx9Nrz0xQdXDbeGjOj//ZFNh+rIeYTej72IXTg2x6iolEwX9XSxHjMsLGxbZfPEMCb7Mk2R49gT3tbp71acjTviBSqOLcbMcvb+IwNf7Nb/88fuc0+m7qYc5a6MkfCTwJAAxjo4BAiUIlDMIAEwQSBOBoIOONLUFtoRLAGI8XJ56aV26dKGGDRvSn/70p+gqcazkcn6HvcS4GUFkAc0XRwP1yLgegSy2a7WOn0WPbLbFn0tEst6+jQp/8+e8bvjkYeOJI6LFdtVeOXcaiejXI+0s3t949mF1XKhMQfYS6I51jbKbG/R3sVwxXraByOAcAYhx51yOBpdLoJxBgG3Zfut65I1lkJ0ti03R0zcXEVvNc8Zt21BJumLttinPy37OV8k5mfo56Wbd5s6l+oDo9acnUstOx6sBVdqvoIOOtLcP9lVOAGK8cnalcnbo0IFatWpFf/zjH0slxfeWBMr5HbYR43q1uhgvd9dqLkevr5gYn3XnEDrxunGF6cT6btl6GRyt94rAm1PUpQ2yhjwLv0mW7o40WdDfRYjxSN3jZOEQ4066HY0uh0A5gwDbcqMU48VsMNcdcVpzzZttG5JI52U/C2V9bZStXeWIcX2wowvzsNYB2tpcbrqgg45y60P67BCAGI/OV//xH/9BLMgff/zx6CpxrORiv8PmlNs2fc+m+fffSicNu4v0DdzkTOWNby1TU4L7XnuHijCbYlymrQtinhLcb+R9Kp15hFQ5YlxsMqcQSz36i3G9Tbzztqwv9hLpEOPl3QxBfxchxsvjjdSlCUCMl2aEFI4TsBHjfgJNj+Saa3x4PRCvD1r0yN1lr19jl/D5lPWbNKN5945WHpJ1P2ZUYP7EMbRt00Zqfsxx1PHcQTT37uGFt/PiWv4x54s39zDXq8lAQMpt1q4jzRl3vVoHx1PuOC8fqaGvO9LXKnG5Uob+EmLRo7+mL7dtpTWvzCVzcOTHzUuMm+dp6keAmIObj1e/SStmTlWRdL70gY3YzHlad+lN27dtVYM1HsCZUwP1KY5pvj2CDjrS3DbYFowAxHgwfsVyH3bYYfT973+fJk6cGF0ljpVs8zssSGx2U9dfxppi3G/Xar8XuPrn+sthc5q6KcbNNcFeLtXLq9nyMb27+OVdjqCCGC/vZgj6uwgxXh5vpC5NAGK8NCOkcJyAzSDAS4ybO6/yD+bWjeuVwJONZGR6tS6Gy1m/xq6R8maMGUxn3fGY8pYeFZDPeadNLzHL6U2RrNupl8tr3jpfNLiwzm7lnGcLdcoUPC5Pn45n7hYqAxAW41yvvpENi3vz7E2dGwtjvWyuS28TD1b0qX8mV2kXR0P0AZSIf67/wDbt1YsOYcvr9/jSdxrl9KZAT+NtEnTQkcY2waZwCECMh8PRq5SDDz6Yzj77bBo/fnx0lThWss3vcDExzi+iF04ap6LlHJm2WTOu71rNv7NeO0977abut2ZcF+PmmnG2Z/n0Ker3kJdCyVI1rBkPv6MH/V2EGA/fJ66XCDHueg9A+0sSKDYIMCPAUhiL7KZtjy2IYv7xLyYa9Tf5+g9xqfVrcnal/vbcFOPmujRTzOpi3DyDUj8jk9tjimx9kxm/qeK60OeXELoY57r1aDxPAeTLby2dvvus7jiJvJvONKMfUh//X//OXDZgvpww14hnZap60EFHyZsDCTJLAGI8Otc1bdqULrnkErrllluiq8SxkoOKcRbT/GJVpqCbu6Tz5167qRc7R5xdYH5vGxnnvPoMMH0Wlwh1nnHGl/y+YTf1cDp90N9FiPFw/IBS/o8AxDh6AwiUIGAzCPASZ/oOqyzGzelm5hmS8tbcFOM269eKifFiZ1VK00X0846z02++Qglk2QxGIvXmywW/qXkSTZDp81yHDHxMMW4e7yFiXI4BEftkoML/9nqZIOnMKfb8uUyfN8+S1e0v9dLDXCcIMY7HRtYJQIxH58HGjRvTkCFDaNiwYdFV4ljJNr/DLiDBOePBvQwxHpwhSgiXAMR4uDxRWg4J2AwCvMSZuat5sci4LtxNMe61fs1cJx1UjMt07s4DrlZTtEV8mpFxfZqdnxg3p4oXi4z7iXG/tXR+0+zNlwqyMY/fukBOj8h4Dm9WNMmaAMS4NaqyE/KxZhwVv/LKK8vOiwzeBGx+h11hJ2vEub1ea8hd4VBpO9Mixs1xXKXtKSef34k0MsODZx/q4zzbss2Ahm0+pPs3AYhx9AQQKEGg0kGAzZpxmX5ms2ZcX79mTicPIsbNNW/m2navteiy5s5rmrouxvfYs6rW+mubyLi5ZlxfS8c/FMUi4/oPgqzv4wg/R/qLRcb19XtYM45HggsEIMaj8/Lee+9N99xzD1100UXRVeJYyZX+DjuGCc21IJAWMW5hauhJSgU0ih2NW8wYiPFgroIYD8YPuR0gEGQQYLubernr10TkSgS7HDHOm7Dx7uVymeeMl9pNXd8Ax0uMN2jaQgnwJVMfUjuu97z8RloxY+oux8zwBm5ekXEWz35r6Ur9kOhr7fhN77HnDqLVC2apTe70+rjt5s64+vr/U26cQJ+sW61sx27qDtzkDjYRYjw6p1dVVdETTzxBP/zhD6OrxLGSg/wOO4YKzS1BIG4xzoEAr5Nj2EweK7Xt+0NaMfuPtY7N04MH+thEHyuaYzX5Tsr1Gx/6BTTM8ZN5nJ95jKzfCTRyXKAsVZS9GNAx/QlAjKN3gEAJAhgEoIvgnHH0gbwRgBiPzqPf/va36U9/+hP17t07ukocKxm/w445PMLmJiHGvU6OkVl4LJq3rP9n4ahVM7gi4lkCHXykrcz2Y0z8t9fsvnLFOJelR8ZLBX04sON3As26JQsKR8NKOtmHKELXZrZoiPHMug6Gx0UAg4C4SKe3Hn1PAF7Tb+6unlbLgw460tou2BWcAMR4cIZ+JdSpU4deeeUV6tSpU3SVOFYyfocdc/j/Y+9doLaqqvXxeUwPfhKCQqSIJnriYpAgWhiCNxCUND1qDi0xIDzGT48hJiIaMBAJE8i/kUqpAZmVlMqIjtxSQZRjKigeLiYXU5EIBEJA5Sj/MVfN98x3fXvvd+/33evdt2eP4fDj+9Zea85nrr33eta8LIfq1vpdjFpNXach6jxxTcZZXTlFZtuGtaVTZ/gEACG27HG2T34RmPz6ZQJsk3s7OpL7kEK3Yck4pyPq2j4il6RQykk/opdEQTo0a6a7BhnPtPkgfD0QwCKgHihjDBcI1LrocCET+kwHAiDj7uzwqU99ilavXk3t27d3N0jBesZ3uGAGd6hurd/FIDLulWK3esFvPVPyNBnnWjlyPKxuz+l0Xifq8Hn0Xke9ch0i3a8XGQ+quxOWjL+76mXPTQIh45ymqC8h+w7NmumuQcYzbT4IXw8EsAioB8oYwwUCtS46XMiEPtOBAMi4OzsccMABtHnzZmrdurW7QQrWc1q+wzocuKFFK9/K02EKWtk5uC5N6ldF20U+rz2WTcT03y+c+BA999AUU8dGCtqGxaHaiLVav4vVeMa96uPYpJk9400Pb23q1Zx44beIi/batW0EG33STefzLqMgz7iutcP3V0vG7ROBgjzj9nGwYW1a1HYg40W1PPQOjUBaFgGhBUZDIPBPBGpddADI/CIAMu7Otozthx9+SJw7jiseBNLyHdZkPCgHNo1k3CZhLjYD7NNZ2Pr6hBYJtZYj2exz06PMlmprudT6XXRFxqUgmi7SZhetFSztcHC5V3vGJbec5+KyGVPpokmzDLxRybhXP4cc1pKeuGWQyVf3OoFGQuvlVJvOA64g3jTA5Y0AyDhmBhCogEBaFgEwFBCIikCti46o46F9dhAAGXdjqz179lDTpk1p//79bgYoaK9Rv8N2ZWgO6+UjOXVlaoZSvLH8+xd/db9Bd9W8R81JIExe2Dupq1YzUdq56U1DQmzPuF91aSEk659baPpnT3GPgdeXnTpy/vif0cuPTi9V1PYq4sX3Mg52iLKcEc362RW2xfPtdRKJfc61X9VuXdlb38P6M7ETuezq2zJV9T38u5mD+pg/tT/zq/T6U783PzOuJ5zz78ZLvnvbFjrqi18yBcD4OFRpb5PUVx7/uTnxhAk+X0w6+apE+mr9Lroi4/ZxuIKftou2tf49zym+xAOvow/6jPgBbXrtJep1zWjTxitnXOa7kGxuZ88z3Q8/F34n0NjV1BGiXvmlDTJeGSO0KDgCURcBBYcL6qcIgVoXHSlSBaLEjADIeMyA/rO7TZs2Udu2bemTTz5xM0AOemVsli9fTq+88gp97nOfC6VRnz596Jblu0O1tUmmhPp26ntxmVdQe6+F9Hl5FrVnV7fTZFzyd+3q0rYHU5NiJj6SJyyVsv0qYOuK1LZ3XsvHBb/0kaNP/3gsnXHtWJNfbHtE7fBluzq2rtrtFWbN+mu5gs6o1kXMdBEyxlPCnfnnJycOL22CaPnsSuJexJvb2wTda8LU+l2MSsZDTVo0KjQCIOOFNj+UD4NAkmRcf9xYVvlw865kNZcdLmb3wR9JqejJu+xxXNyfnDcp/dVrp9RelFWjj1cBFfts9jD9BoUE2vlf3J8sNo484aRQCwwXi44weqFNNhEAGXdjt1WrVlGXLl3o448/djNARnv97W9/S5MnT6ZXX32Vdu/eTZxXz//xPAxz7du3LzQZDyKFeiybFOpvnxB48WALSbY9w0vum0D9Rk0hXQE7qOq1/g5EIeOaSNvfaa3vuqULSmRc6+qXM64jA+wcYMGDTxDxI+NariDcde5zEBm3beBXSXzZzLsbnWqic8iD1i8g42GeOLSpJwIg4/VEG2NlEoG8kHH+UL7w8D3GBl/6xnUm/K5eZJzH4bA+vmQxI7vuaZ8UXrl/fseLBOkShYzbO/xhw+/s8WtddKTdNpCvegRAxqvHLujOZcuWUa9evYjJIy6iXbt20Ze//GVau3at+f/AgQPpm9/8Jn3605+OBE/Qd1hv+PJGLx896bepbG8OS+iz9tAymRby2P3rV5dyYzlH3I+MMwn2I4461JqV1iHBYT3jQvq9Qu11n/xd1zoK2fYKU9cGsL9zmlgHkXEtVxxkXG8I+FUS9wuHBxmP9EihcYoQABlPkTEgSjoRCEPGvT4C8mFq07k7LZx8s/kAcwgbfyg5d0x7h/WuteQEMRpcIIPbtutxFjF5fXXOL0w/kl/24a6dtGrebJP3JkU05EgJuzKpEDruV8LYKpFxL7lkMWB/NLlP8SK8Rt8ZAAAgAElEQVRoubhQiybj/LO9MKg0TpOmzWjZjB8RY8OknkPZuPqqrgSrP9yy2NGhfxJS2KTZoeSFkV++nBcZ9zr+Q/qUxd3Od98uy6frd/MUembaeJO3JRshsmg6od+lBqN/632uyXfThWn492EXGSDj6XyHpFEqkHE3Vpk3bx5dcMEFpoBb0a/XX3+dTjrpJDr++ONpyZIldOihh1YNSZjvsHTuRwptj7Kfh1aT8Vo946cNHUlzxw0z3y37mKkgz7gdQm6Tcf399QPVK+/8nJsm+27Eh/GMB1WT94tE88pN16HpXj9rG8hGvtbT/kZG+U7WukmNMPWqH2Pc6IMAyDimBhCogECYRYAfGed8qh5XDS8RrDULH29U0VJXpeSPtQ4lZ0InH2EW095F195lOydL517xx3Dxvbeb4zJ4PMkjs0O59GJFNgOkCqadNxdExv3kEqj1x5nP1+RNB79xuHiL3mzg4jlcWITDAsX7oX9mnQQLvZCS/DZtj11bNpkiMUKceaHilZumPR6sgyboHC4nmw32QsXO89NpBtzHa3N/WVYkhWU7vmdfT/t4LT4qPby1Ljoq9Y+/ZxcBkHE3tnv00UeN93fv3r1uBshQr3y0W8eOHWnx4sU1Sx3mOyyD2DnV8r7mAmHP/3yqeecedHCDKaDGlxQK8/qmMRH0yy3XOePyvbSrS9tkXFe29iLjfhWwNRn30k++JdqLrdclXjnj2iiyIa5z3nXOuHwr/XLmZS0Rtpp6GDLuV0mc7cW58XzpYm3IGa/5MUMHCSEAMp4Q8Bg2OwgELQLsyqyiFXtsOddX51PpnCm9Y713x9aykDq9q88f0CAyfnS3nuZjZH+c7Z1o+yPlR+w0Gddj84dWfxhZ5iAyLnIxHnqTwIuM2xVp7XF0uKGu6homJM4m43benejAH3a/EEP+25zRg8smrK5oqv/gVWlWPBF2mLrWRXDivDy/HPFqQtVBxrPznqm3pCDjbhB/8MEH6frrrzfh2UW+Bg8eTI8//ji99957scAQhYzzgF7RVkLAOYqJo6e4EveqJ2d75nzr77VdTZ0jtdqf8VXfauo8/rm33mPOi+Yx9DeEf795zQpTNV2i2d559YXSJr1UurYrYGsybuuna5joKvLcLmyYOrf1iw7Tffa46rv04e5dRn6/c9bt/HS7RkxQzrjt8ferJO5FvMN+I2v9LsIzHssjjU4UAiDjmA5AoAICYRYBQWHqXNyFyWwQGZejO0QU+bjyv4PIuK68KiHtWh0J4/bKvfIqoqbJuO1ttjcQgsi4yOVHxvXmgbSRo2eCxvEj43qRJfrr42O8Fg56QRBEuO1cQHu6eBXG4QWQvVDReon33d60YDLeos0xZRsdMl7YhYaWr9ZFB14O+UUAZNyNbe+++24aO3Ysbd++3c0AGem1WbNmdNNNN9Ftt/3jyKVarzDf4VrHwP3ZQiAr54xnC1VImwQCIONJoI4xM4VAmEVArWTcL//Lr5p60DEodmE222vO4GtiuHrBb0uVUqv1jHuFhXPIvR8ZD8qHC/LA+5FxmzB7VcL1OhNWe8b98ui9csZlAttV0P2K+/BmDDzjmXrscy8syLgbE0+YMIF+9KMf0d/+9jc3A2Sg1wULFlD//v1jrSgf5jucAWggYowI6HUXh+dz4T5ZdwQNU+smdTWecfv8dx1d51dcr1LRvRihRFcJIwAynrABMHz6Eah2EWCHUft5xu2ccTuXOIxn3Ca9Ov9L/iaeZ/63JpH8byGimnju+2BvYC635KSL/PwRtIvdeJFxu5q6bBaEyU0PQ8ZFblueIDKuc8alGq3kyNkh7HrG2mRcQuoqecZ5DHvjQ+oLIGc8/e+EaiXkitKXXXaZOV+5X79+9PDDD1PLli0rdsf5x2PGjKEhQ4ZQhw4dKrYP0wBkPAxK0duMGjWKZsyYQXzeeFGv6667jh577DF6++23Y4Og2u9wbAKgo9wgUG8y7nWCjP7+S2SfjpRjsIMcAbkxBhQxCICMYyIAgQoIVLsICEvGmZjpUGev/C8WUY7z4Pwyqaauw8HtnVcJUffK2ZYXPRd9kX4lj+6iSbNK1Vb9qpwLyebzw3mH97hT+9BHe3f7kvFK54xXqqbOBVu4uqofGWd5JEyf5Tnp0qG0bul8OvO6cfTUPWM889vs48n8ctMqfRD1fRwaz5fkfttFd+xz4qWaumB4yOGtUU09p28km1AvXbqU/vjHP4YK4+V777rrLho2bFgo8h4GQpDxMChFb/Of//mf9MQTT9Cbb74Z/eac3NG3b1/as2cP8RyP66r2OxzX+OgnPwjUm4zbVfwFSb2esdcZ9kZ/ftCHJl4IgIxjXgABR2QcwAKBahGwi9NUky/OY9e66KhWftzXGAH2ij/wwAPEIY4NDQ2m2nYlgq096brHZ599lnr27FkTzCDjNcHne/O3v/1teuaZZ+jPf/6zmwEy0Gv37t3p6KOPNgXc4rpAxuNCEv3U+l2MGqbu5xDRlvA67tUu2gfL5RcBkPH82haaxYQAFgExAYluIiEgBNyvunqYzmpddIQZA23CIWB7wqOEnnM4++7du+mNN94okflwo/q3AhmvFUHv+y+//HJauXIlvfbaa24GyECvXbt2pX/7t3+j2bNnxyYtvsOxQVn4jmr9LlZDxjlaTh/DZhvBPgFHpzUW3mAFAABkvABGhoq1IYBFQG344e7kEKh10ZGc5Pkbmcn4xo0b6Rvf+EZJufHjx9NZZ50V6OXm+2bNmkVTp041nnS+4qhQDTLuZo5deOGF9NZbb9FLL73kZoAM9AoyngEjFVjEWr+LQWTcK+WQi+TyxWfQB11CwLt//WqTdsftwxSkK7Apc6M6yHhuTAlFXCEAMu4KWfTrGoFaFx2u5StS/7V4xl3gBDLuAlUyhfnef//9WPOl3UjqrleQcXfYoufaEaj1uxjVM+6XM26nn0k7qXkjtXJq1xg9pB0BkPG0WwjyJY4AyHjiJoAAVSJQ66KjymFxmwcC1eSMuwQSZNwNur1796aDDjqIFi1a5GaADPQKMp4BIxVYxFq/i1HJuF81dTmRRo6jlZNl1j+3kKQAb4HNVCjVQcYLZW4oWw0CIOPVoIZ70oBArYuONOiQFxm8qqlL+DkXdGPPuRRl0z+70h9k3A2yX/7yl+kzn/kM/f73v3czQAZ6dUXGT73yugxoDxHTjsDzs+6h/fv3Vy1mVDLOA9mn3ehTc7QgXOxtzcLHSZ9qU7WguDEzCICMZ8ZUEDQpBEDGk0Ie49aKAMh4rQjGe7/fOePy+2nTplGrVq3MWeT8c60V04OkBxmP17bS24knnkjt27enRx991M0AGejVBRnnmgm4gEBcCAwfPrzqrqoh41UPhhsLgQDIeCHMDCVrQSBrZNw+37wW3b3ulbOx9d/4fO1KxUnikMOuOFpNn5ynNWf04LJb/Xapg/rnkDL73HBp73VGaBzV0aPqCzIeFbHitAcZd2Prjh07EnvHZ8yY4WaADPTqgoxnQG2IWBAEQMYLYug6qgkyXkewMVQ2EcgaGXeNsn1mplc+lGsZaumfSfFby5eSLo7ChVNWzn2k7HeVxohCxuM6N7ySTPbfQcajIlac9iDjbmx93HHHmSJu9957r5sBMtAryHgGjAQRq0YAZLxq6HCjDwIg45gaQKACAmHIOBOzp388ls64diw1ND+81KP2Iov32PZcayK4efUKQwqbNG1Gy2b8iI77Sh/62h0P0UEHN9CCu0bSER270ku/mU5bXl9ZKvDB/c2/c4QZk2Xt/Z1b6YVfTKN+o6bQtg1rG/XHHmwuHKL74HtZjpmD+ph+ul0yxBBTvnjcD3ftpFXzZtPAhxbSxj89Y36vPeEiwzk3TSYuRqKP9xAdGBfRVevnJ4/2YIvnuvmRbY08XQZcTg0tWtGS+yZQk2aH0vLZDxiZWD45CsRLnwObNJAXGdc2EaylT8Fi57tvl+Hc7+Yp9My08dTrmtFGZ77E3if0u9T8+996n2vOFuXfH3vK6SXZ/OZL3A8jyHjciOanP5BxN7Y8+uijTZqBHEMXZhS/9IVK90Y5q75SX3H+vd5kfNu2bebIQE7riOPYvzixQF/5QwBkPH82TVojkPGkLYDxU49AtWRck2xWcvG9t9OJF37L6MskksmyJqhMfpmMMyGWSprihe4x8HpDQnduetOQ8z3btxliyOSXr8dGXkn9R001ZE8TSybj3B+T1CM6dS3rg//G/dv9CeFt1roNybj8s5Bv2zPO4+vw8ZbtOpgzMjsPuKJERHdt2WTIvehXSR4tG2Nk4yBknPXucdXwRuMIcWZ8tD6sgxcZ179bNvPu0maDVDfl+5j8a5xtzzj38drcX5bwFNmO79nXd6NGE3QXDwLIuAtU89EnyLgbOx5xxBF0zTXX0NixY0MN4FXY749//GMoUsn3MukfNmwYtWzZMtR49WhUTzLOxQ7Hjx9v8HrhhReollzgemCDMbKPAMh49m2YNg1AxtNmEciTOgSCyLj2vmrBmUy3aHOMZ+hzJc+4EGQmodL27BvuMIT06G49DfHki//d4qh2dOQJJ5WIuXilhex7kVq+h/vQcqxbuqAsdFs2Es68bhw9dc+YRuPy+Nozrsm4eKxls0F7zffu2FraABCS7SWPji7gsZjo7nhnQ2lzQMi4bEiw3nrzY82iOZ768IYA/83OGdfee21HWy89nk3GxR5e9nnl8Z+biAX2zMtlnzHqYuKDjLtANR99goy7sSOT4lGjRtGNN94YaoBqjrzTnnQ9yLPPPuu06F8ohYionmRcZGJM/vCHP4CMhzUS2lWNAMh41dDhRh8EQMYxNYBABQSq9YwLiRTiJ97uSmRc5y7bZJxJqIRhazKuPe22Z1z3pwmjTca9COqAMfca8myPa5Nx7UGWjQL2uDOp1qSVyXgYeexQce6Tw/zFU6/D1L0iDIIIt73xYJtfh9jL39iTb28yaL3E++61WeK3KQMyjldPkgiAjLtBv3nz5jRp0iTjHQ9zsWdXe8KjhJ4//PDDtHv3bnrjjTeICQIfkZeGC2Q8DVaADK4QABl3hWxx+wUZL67toXlIBGoh4zJEkOdYh0hzGLf2jLO3l/8tpFjInq7WzZ7xOMg4e57tiuhe1cu9wtS195t1tuURj3JYMm4TZj/PuF+4P5NxL31kg8Qu4GbbycbZi/zDMx7yAUKzVCIAMu7GLE2bNqXp06ebHOYwF5PxjRs3lrXnsOuzzjor0MvN98k59ZKfnpZ8aZDxMJZHm6wiEJWM21FzXnrbTpow93j143XaTTWnxWTVNl4n2Xjp4uVM0U6neusPMl5vxDFe5hAIQ8a9lBICyQSXXxA6Z1xyjyWPm++3c6rZA27nSks7nRPtRX51mHoYT7TOQeeQbx6X87wlTD3IM25XUxcvuV/OeBh5NBnf98Fek4POeIT1jGt8tD4Sph6WjEsaQiXPuITJ6xx85Ixn7lEvlMAg427MffDBB5szxs8///xQA9TiGQ81QAKNQMYTAB1D1g2BtJNxBkI7Vrzq5NQNrDoPVA0ZlwK8dRa1bDiQ8STRx9iZQKBaMi4vBanKLWHqrLRUCucdy+5fv5o2r1lRIuMv/up+g8uqeY82qmrOhdQW/2S8+btUDrd3VKsJU5dCclJN3a7ibpNxkUEMaJ8zXqmauhwr5hc2z/0yAV//3EJTUf6kS4fSuqXzyzYH7LBx+3gync+vc8IrfZj0fawXX5Kbrz3xXkebya40j3fcqX3okMNbo5p6Jp7y4gkJMu7G5v/6r/9KCxYsoNNPPz3UANXkjIfqOMFGIOMJgo+hnSNQCxm314W8jpOit7Le6XDmBfRfE/7T6MHrRo7y27putTnRRhf3lXWYXlv6RS7aUYT2yTlSz0afYmP3a48nutin/LC83LbSaUB2O16HeuHDjhhel+m1se3t9zvJRpxDjC1fOt2R1+bcz/njf0YvPzq9lI7pt37lMT7avYvWP7/InEYkJ+3oWkDVTj6Q8WqRw32FQaBaMl4NQH7nXXuFi1fTP+5JBgGcM54M7hjVHwGQcTez48ADD6QXX3zRFDELc3lVU5fwc84BZ885H9nFl/45TN9JtQEZTwp5jFsPBGoh45os83qPj5m9aNIsI7YmzNpRIZGK4sTQDgWOAtSnvHiRcbu9pA3aJ83o9SdHJM6beIM5uvXdVS83OimGT+/xi+xkEt/x7AvM6T2c8ic/s472qUG6nRwDy+3Ys6/x4RRH+2QgOeXH7yQbu2+dTnnIYS1L+ukjc4NOA+KTdlgmOYFI417rvAMZrxVB3J97BEDGc2/iuigoBds4x9+ruroLIVBN3QWq+egTZNyNHQ844ABat24dtWvXLvQAfueMy++nTZtGrVq1MueX889CzkMPUOeGION1BhzD1RWBask4H3PKEX9MNNnbG1RLyCbjQlC9wrDttnbkYlBkoCbgTDbldBsNqNdJMfx3SRuUGjt+ee9epNhr4yEIHx5P11PSaaB+J9nIyTaii45m9CPjQacBrV7wW9OVpJ7yZkNceeYg43V9hDFYFhGoJxnPIj6QOb0IgIyn1zZJSjZ58mT63ve+Rz/84Q9pxIgRSYqSu7H5e7Ft2zY6/PDDc6dbWIWSIONhZUM7IFArAkFkXIc4Syg1kzgmuUI2JWRa5GBPsl2I1ybYQpLtMG7pQ1IFtWfci7jrMHS5l8m6XSRY/ubXh33ULG8uVCLjQlz92gXhY59KYxf19TrJhsm4ffyw2MSPjNukXxN4sSP3G3e0Ksh4rU8l7s89AiDjuTdxbhUEGc+taatWjIm4PgObK3GDkFcNZ6Mb+Xvx8ccfE3vIi3qBjBfV8sXQuxbPuIR+20XDgqqpa2JeiQTaYeqyOcBh5UyYtUfZtpZfBfdKnvFKJFs845XaMRn3w8dO4QzjGbc97XF4xu1NEXjGi/HMQ8sUIAAyngIjQISqEAAZrwq23N5kE3FRFIQ8HpP//e9/Jz5nfP/+/fF0mNFeQMYzajiIHQqBasm4nROtibIdHu3nGWcBdQ64nDajT6/hNn7V1MOeNCP9cj87Nv0lMGe8EskOS8aD8GGd9Ek8mozLEcA6l7vHVcNLkQiSFsD3LJsx1eToV5szDjIe6hFBIyAQPwIg4/Fjih7rgwDIeH1wzsIofkQchDw+67355psmV/yTTz6Jr9MM9gQynkGjQeTQCNRCxv1O2ZGq3ywEk0o+3nXO6MGlaup2Lrc+T1yfZuNVwM0+btbvpBkeW/cbtpp6nGTcD58gz7iW2z7JRofln3vrPebkIpZXis+98+oLkaqpg4yHfkzQEAjEiwDIeLx4orf6IQAyXj+s0zxSJSIOQh6P9V599VXq1q2bCVMv8gUyXmTr51/3qGQ8/4hAw1oRQM54rQji/twjADKeexPnVkGQ8dyaNrRiYYk4CHloSH0bPvvss3TmmWfSvn37au8swz2AjGfYeBC9IgIg4xUhQoOICICMRwQMzYuHAMh48WyeF41BxvNiyer0iErEQcirw1numjt3Ll188cX0wQcf1NZRxu8GGc+4ASF+IAIg45ggcSMAMh43ougvdwiAjOfOpIVRCGS8MKb2VJSrpjMhj3pxdXUu6oYrGgKPPPIIDRkyhPbs2RPtxpy1BhnPmUGhThkCIOOYEHEjADIeN6LoL3cIgIznzqSFUQhkvDCm9lU0KiHn9nz+OK7oCPz0pz81x8RxVfUiXyDjRbZ+/nUHGc+/jeutIch4vRHHeJlDAGQ8cyaDwP9EAGQcU4ERCEvIQcRrmy8chTBhwgR67733auso43eDjGfcgBA/EAGQcUyQuBEAGY8bUfSXOwRAxnNn0sIoBDJeGFNXVLQSIQcRrwhhxQbz58+n22+/nRYvXlyxbZ4bgIzn2brQDWQccyBuBEDG40YU/eUOAZDx3Jm0MAqBjBfG1KEU9SPkIOKh4EOjkAiAjIcECs0yiUC9ybicE37a0JupbddTAzGzz+nmc7f53PKG5odXjfW2jX+mx0ZeSVteX0n9b7mb/vr6q9T3xkl0YJOGqvv0u5HPOZezvPXP1QykzxjX9+tz2avpV+4RrPnc8oYWrWjJfROo36gpVWENMl6LJXBvIRAAGS+EmXOpJMh4Ls1ak1I2IQcRrwlO3OyBAMg4pkWeEUgrGRdy2Kx1G2LiztfbK54nJrW1EHLuY+Ofnin16dK2tRJwLRuT8beWL3W2caDH4g0LkHGXMwN9Fx4BkPHCT4HMApAlMv70009nFuesCX7vvffS7Nmz6dJLL6Vrrrkma+JD3hgROOOMM2Ls7R9dgYzHDik6TBEC1ZBx7aW9YMKD1Pm8y4xGTD4X/2S8+Vn/Xnu4u10yhHZuetOQYfaMMzmeOaiPuYf/Jl5qP+KtCa7tOR/40MJSny/+6n7T56p5j1Lr9l3ookmzaO+OrWVjnXDOv9Oq+b8zYy6beTdtXbeaVs2bbWTf8c4G+teGprT++YW0/rmFxB5o9nLPGT241F/LYz9Ptgyiw5pFc0xbwYL7Ey95VLl5nEpknHGpRV6Wc8FdIwme8RQ9nBAlvwgwGe/w5d75VTBBzbZvftuMftgRbROUIr9Dr/3vxbR///5MKIjnLBNmgpA5QsDV+wFkPEeTBKo0QiAqGWeSvHLuI4bA7vtgL82beAP1umY0vbvqZXpt7i+N13rP9m0mFLz/qKmGHDNR3LVlk7ln8+oVhhAzceZw6Pl3jqBzbppMzY9sa8igeML5Hr7EK+5lOrvfJycOLyPdPMYRnbqW9avlZ1lEFybjIiOHrHPf3Fbr07HPhUYeLZv+2Q7B9wtTr0buMGS8FnkFJ5BxvCSAQB0QgMfOHcjf/va36aijjiL+uOFyg4ALz5cLSRGB4gJV9AkE/BFwFTkDMo5Zl2cEopJxv9Br+/dCUnsMvL7kcWVirnOTd2z6S1notSbKTI7Fk+yFv+5H93t0t57Uos0xZeHsTGTZM81EOoiMa/Jvk2zZdBAvtfSnZbNl8iLjHc++wBOPSnL75YxLNECt8oKM5/kph25AoEAIYNFWIGNXUBVkHHMBCNQXAZDx+uKN0fKBQBAZ18XOONT7/PE/o5cfnU5MHCU0nVEQEqp/LwS4+9evpiduGVQKS7fJuIRyC5pSpO2l30w3v/LzjHsVghPyy2RcPN7s5Q5LxjX510Sax/Ij4xoj0UETZLuA2/E9+5bhwfeEkTuMZ1zGqkZekPF8PM/QAggUHgGQ8cJPgRIAIOPpmAv2QklyB9m7wZf+O+f6db90KM25baiptKvzF9OhDaQIQgBkHPMDCERHIGnPuJeHmbXwyxlnUspXJQ9zPci4eP1lEyIOz7if3HGQ8SB5QcajPzu4AwgAgRQiADKeQqMkJBLIeELAq2GlMJAuJCShfuK5qPTv5LWABGERABkPixTaAYH/QyAqGdekkHPGxevNIed+OeP6Hr+ccd4g1bnULKHOIReCLnnhdnvuV+eMJ0HG5ZsT5BnniIKgnPF6knEtL8g43gpAAAjkAgGQ8VyYMRYlQMZjgbHqTsRDwR3oM2T177mS7sNXDyiNcdrVo+jZ6RNL/5aKurxgad7mc7R89gOm6FDLdh3MApQr7PIlC6+qhcWNsSAAMh4LjOikYAhEJeMMj1/V9LDV1Js0bUbtz/hqo2rq9jnidtVxO7IpqCp5Pci45KBLNXiuuM6XhIvLZq98S8JUUw8i43ZIP48lEVw6xz4oTF1Xr9fy6kgDnDNesJcA1AUCeUIAZDxP1qxNF5Dx2vCr9W4JP5fqt7o/XSV33dIF5vgZP0+5LC7l7zbJ5+Nrls2Yair4Suh7rbLj/uoQABmvDjfcVWwEqiHjxUYM2ldCYMn9d9DZRxxE/7I/K+ffVNIIfwcCQCAzCICMZ8ZUzgUFGXcOceAAQsZ7XDW8rNAQ38TeCiHQfBxPJTIux8U0ND+8lGMu/co4coRPsloXe3SQ8WLbH9pXhwDIeHW44S5/BEDGMTuAABBIDAGQ8cSgT93AIOPJmiROz7gm4zrET2uo89KT1by4o4OMF9f20Lx6BEDGq8cOd3ojADKOmQEEgEAZAg8//DD98Ic/pF//+tfUoUOHUOjs3buXxowZQ0OGDAl9D3cMMh4K3kI0AhlP1sxhcsY5l5zDzGvxjCerJUbXCICMYz4AgegIgIxHxwx3BCMAMo4ZAgSAgEGACfXw4cOpV69etGXLFjrvvPNCE2u+96677qJhw4ZRy5YtQyMKMh4aqtw3BBlP3sTixeYiNXJWrZ0DXqmaus4v5zB15Iwnb1c/CUDG02sbSJZeBEDG02ubrEoGMp5Vy0FuIOAQgalTp4Yi42vXrqXLLruMXnnllTJpnn32WerZs2dFCUHGK0JUmAYg4+kwdaVzxqOScbPRt/M9VFNPh3nLpAAZT6FRIFLqEQAZT72JMicgyHjmTAaBgYB7BMKScZGEQ9t3795Nb7zxBvGHqqGhIZSQIOOhYCpEI5DxQpgZSqYIAZDxFBkDomQGAZDxeE0l0VNHd+vZqHhovCOltzeQ8fTaBpIBgcQQiELGly5dSrNmzSK+h0PV+brttn+cHVnpAhmvhFBx/g4yXhxbQ9N0IAAyng47QIpsIZAmMs6pRXLOtj43mxG1I5LkfO0Dm4RzlnhZRVKZ+Pzyz3XvRUd2PrlmAs19bvzTM6XUqGzNhnikBRmPB0f0AgRyhUAUMl6L4iDjtaCXr3tBxvNlT2iTfgRAxtNvI0iYPgTSRMY1Olyvo8VR7Qw5FiLeecAVJbLMKUZvLV9KXIizWkLOffDFY+CKDwGQ8fiwRE9AIDcIgIznxpSZUQRkPDOmgqA5QQBkPCeGhBp1RaAaMi6FMFlQOdZRwrOP6NiVXvrNdNry+krztx3vbKDFPxlPx32lD33tjoeIC2HaXm4psunnGfci3jJelwGXU9uup5I+dlJ7zVnWj3bvovXPLzIyyd/kJA3Wgcfni8l/xw4JGEwAACAASURBVLMvoAV3jaQPd+2kVfNm0zfun0urFvyOwuglMi2f/YDpb+BDC41sRbtAxotmcegLBEIg4EXGORxdirLpn0N059sEnvFa0MvXvUzGv/nTJ/OlFLQBAilG4BdD+9P+/ftjlxDv9dghRYcpQiAqGdfEeOe7b9NjI6+k/qOm0hGduhoSyxd7qzevXkEzB/UxhFwILudR65/ZI81FNuffOYLOuWky7d2xtVGYut3eCzop1KnlaNa6jQkV1ydi7Nm+rSQvk2TWhTcLpJ0m43K/fYKGn16sC4/FF/fHmwNPThxOF02aRS2P/XyKLO5eFJBx9xhjBCCQOQRsMi5V06dNm0atWrUyFdT55zAV04OUx6Itc1PDmcBMxo85uZez/tExEAAC5Qj85cUlIOOYFEAgIgJRyLhXcTIJJ/ci2Uvum0D9Rk0x3nAddq5FZC/5vIk3UK9rRgeScfGAe6mnPeocss7/5vHYE89eeiHItjc9iIxLATZbZyb+Xnod37OvOWWDiTgTfXusiGbJdHOQ8UybD8IDgWwjADKebfvFKT3C1ONEE30BgcoIIEy9MkZoAQRsBILIuD4akoucnT/+Z/Tyo9NJwrClLw7z7jHweuMZF9LsR1rZg6xDyrkP7ps9yNV6xu0wdj02k3HJPY9CxkUP+55KZHz9cwvLIJYw/iLNPJDxIlkbugKBlCEAMp4ygyQoDsh4guBj6EIiADJeSLND6RoRqMYz7uWljkpaxYNcyTPO5N2vWBt7v4895XSDgFRh9/KM14uMi4e/aGHp9hQEGa/xocTtQAAIVI8AyHj12OXtTpDxvFkU+qQdAZDxtFsI8qURgShknOXXxHjfB3tNaDZXOZcw9UqecTucm/tbNmOqr2c8qJr6a3N/aULRdS645K7rnPF6kHE7Z1znsRetiBvIeBqfdMgEBAqCAMh4QQwdQk2Q8RAgoQkQiBEBkPEYwURXhUEgKhlnYHQ1damEHtYzLp7uOaMHG4zPvfUe2rxmhQlv5yvsOeO6OjvfF1RNvV5k3K6mXsQQdbYFyHhhXh9QFAikDwGQ8fTZJCmJQMaTQh7jFhUBkPGiWh5614JANWS8lvFwb/4RABnPv42hIRBILQIg46k1Td0FAxmvO+QYsOAIgIwXfAJA/aoQABmvCjbcFIAAyDimBxAAAokhADKeGPSpGzgKGdcFbJof2bZUkbZluw6lI1+KXhAmdQaGQKlDAGQ8dSaBQBlAAGQ8A0bKmIgg4xkzGMQFAnlCAGQ8T9asTZdqybgm3Zqkg4zXZg/cnX8EQMbzb2NoGD8CIOPxY1r0HkHGiz4DoD8QSBABkPEEwU/Z0GHJuC74os9xPaHvv9OqBb8z57nq33+4ayetmjebBj60kKRqrJz5yr8rWtXWlJkd4iSIAMh4guBj6MwiADKeWdOlVnCQ8dSaBoIBgfwjADKefxuH1TAsGef+woSpS/i6HNfC93FFW774vFauJPvkxOHmeBh40cNaCe3yhADIeJ6sCV3qhQDIeL2QLs44IOPFsTU0BQKpQwBkPHUmSUwgV2T86G49SZ+7ykScveH2sTKJKY6BgUBCCICMJwQ8hs00AiDjmTZfKoUHGU+lWSAUECgGAiDjxbBzGC2DyLh9Rmv3r19dKtTmV8BN/57JN3vTn7hlEK1/bmGZOEU91zSMTdAm3wiAjOfbvtDODQIg425wLXKvJTJORPuLDAR0BwJBCOzfj8fDxQwBGXeBajb7dOUZ7zLgcuMJR3G3bM4LSO0OAZBxd9ii5/wiwGT8kf/6Y34VhGaJIHD5uWfRvzAZv2X57kQEwKBAIM0IuFqwpFnneskGMl4vpNM/jmsyzgjonPFtG/9Mj428kvqPmooibumfHpDQAQKuvm14rzswFrpMDQJPP/10amSBIPlCAGQ8X/YMpQ0vTLmI0dfueIgamh8e6p4iNnK1YCkilrbOWLRhFggCUci45Hu/8+oLdP74n9HLj04n9oBLtXT791IxXVdi53ERoo75V2QEXH3b8F4v8qyC7kAACFSLQOJk/LU//JrmjB5cJv9xX+lTV6LIxHTmoD7mCByXx93o/MekFoRBIZsv/OIeOv60/qgw/M/Z6GrBUu3Dmqf7sGjLkzVr0yUKGa9tJNwNBIAAI+Dq24b3OuYXEAACQCA6Aqkg48tmTC0dMyMejJ2b3qwrIY8OXfg7vHSSUMmOfS40x+0kffGmiLZD0vKkYXxXC5Y06Ja0DFi0JW2B9IwPMp4eW0CSYiDg6tuG93ox5g+0BAJAIF4EUkfGWT0hqj2uGm6OpuFLe5W7XTKE+t44yfx+wV0jzf+bNG1Gy2b8iFq370K9v3MrLb73dtry+krqPey2EtmVfvn3fEmoovaMS7ij7lN76qsJdwzreddRAnpMIcpcSfi/br/OyH7urffQ5jUraPnsB0i3lRD05m0+Z/7Gl/b46zEEx82rV5jIALm4veAgfQhWor8fPn62OrBJQ6OqxlouL/vyPUlerhYsSeqUlrGxaEuLJZKXA2Q8eRtAgmIh4Orbhvd6seYRtAUCQCAeBFJJxuUoGg4ZZ6+xznFmtfmYGv5bj4HXGzLOeYIXTZplEOHCPJ9u9VnjVV+3dIEJgdfkUirscp9rFj5u7tu7Y2spTF3nHuo+ZWNAy7Jtw9pQ4e1hcrS1Z1qO5mF9eNNhzaI5Rg8mxB3PvsDozCSZ9Wpo0croLB52IbVaZ4ky0PK2bNehhCNjbHvG/fSshA/389rcXxr892zfZmRj7ERurZN44jX+oo/eiIlnqkfvxdWCJbok+bsDi7b82bRajUDGq0UO9wGB6hBw9W3De706e+AuIAAEio1A6sk4e4OFfEs4txBHKeAjBG/fB3vL2np5pLV3nL3ofmRcCKwm/7YssmnQecAVJQ++13SqRMa1t5nJN3uEtew7Nv2lLITcb3PC3rjg4my6n41/eqascBv3s2vLphLhF3J8yGEty3DUegqp9sJHNkeatW7TKPTejnbQFY0ZM/HMu87bj/K4u1qwRJEhr22xaMurZaPrBTIeHTPcAQRqQcDVtw3v9VqsgnuBABAoKgKpJ+Od+l5c8q5KyHo1ZFw8we9v/ash4O+uerlEcL08414EX2SRMHeZNDoUvhoybkcCcB9xk/Fv3D+XVi34XSl0XeSUEHeOIhAyzn9jj7aXnkK4vfDx2jiRcUQfGx/b2y9/TwMpd7VgKerLRuuNRRtmgSAAMo65AATqi4Crbxve6/W1I0YDAkAgHwikkoxrL+rxPfvG4hlnc+mK6TosOywZDyKbQdOhUs54Up5xLbPGw/aM63a2rDoawSbqOufbqw6AF2aS017vivpesrhasOTj1VGbFli01YZfnu4GGc+TNaFLFhBw9W3Dez0L1oeMQAAIpA2BVJJxO6y7Us44g8rh3UFh6joXWQi+eMnDknE7DDxszniYauqVcsZ1pfNKYeqLfzK+LL/cRc64H+Z+pN4m6pwHLzrpKAU7Xz7JIm6uFixpewkkIQ8WbUmgns4xayHjvNHJ70OuUcFpOS4ueX9LvRG/MXjDccl9E6jfqCmmXob87EouF7qiz2Ig4Orbhvd6MeYPtAQCQCBeBFJBxsOcM66rbUtYeJCXlomz7ZHWfZzQ7xJaNW+2KYLGl3jNdTV1L4JfTTV1MZl9zrgd3u5V6ZzJaFBxNe5b59QLUT/u1D60cPLNpro8h+W3PPbzRgy/MXQuvVfouFc1dS98eAy/yugSjr/+uX9g7ldN3ZY53ikfvjdXC5bwEuS3JRZt+bVtVM3STsbD6qPJOAh4WNTQLgkEXH3b8F5PwpoYEwgAgawjkDgZzzqAaZO/UrG4tMmbZnlcLVjSrHO9ZMOirV5Ip3+cqGRcbxzyhiZvuopnXNemkKMbdUFMRsNOgdGbh/oUig937TQbtlJvgz3jHGHFHu82nbuXbXZKag9vNHL/fLzmC7+YZrzkupAmj28fzckFLzmaia9K9UfSb01ImAUEXH3b8F7PgvUhIxAAAmlDAGQ8BovY3nLdZb29vCDjMRj0n124WrDEJ2F2e8KiLbu2i1vyKGTcPsFCv+84NHz+nSPonJsmk6S7MNHlWh/zJt5Ava4ZbSKEODqILy4Iyj/veGeDOf1BPNtn33CHie6RUyF0mLp9lCTf/9bypSZNaue7b3uGqcsRj/1HTSWJvOK+7dSdzatX0JMTh5dFMsWNNfoDAoyAq28b3uuYX0AACACB6AiAjEfHDHcUBAFXC5aCwBeoJhZtmAWCQBQyboeC63/ziRBCjMUbvnLuI3Ta0JG0aMroEhmXcf1yweX3R3fraQi7TcaF8DOx580BIfrcr1fOONcWYTn0sZVM9geMudeQfhlH9yVpRZglQMAFAq6+bXivu7AW+gQCQCDvCICM593C0K9qBFwtWKoWKEc3YtGWI2PWqEoQGbdrhRx7yullBdtsMu5Xf0S803xco4SJS8FP9oq37XpqSQubpNtkXBdmC0PG7U0C2wMvheFAxmucSLg9NAKuvm14r4c2ARoCASAABEoIgIxjMgABHwRcLVgAOBEWbZgFgkCcnnEJOQ9CV0LTJUzcrpJeiYxrzzgTa/k3j1mNZxxkHM9CvRFw9W3De73elsR4QAAI5AEBQ8bzoAh0AAIuENi/H4+HC1yxaHOBajb7jELG7RByv5xxDvPmv+3asom6XzqUnntwcqmYms4Z5zZ8Sc44E+uzvnsHvfzodBKS7JUz3uOq4aWc81pzxkHGszlvsyw1yHiWrQfZgQAQyBsC8IznzaLQJzYEXC1YYhMwwx2BjGfYeDGLHoWM89C6mnqfET+gbW/+mc64dmyjquW6arrfkY528U1dTd2PjLP3u0mzQ2n57AfKKrNLcTmWMUo1dZDxmCcUuquIgKtvG97rFaFHAyAABIBAIwRAxjEpgIAPAq4WLAAcYeqYA/+HQFQyniR2OEs8SfQxdlwIuPq2gYzHZSH0AwSAQJEQABkvkrWhayQEXC1YIgmR08ZYtOXUsFWoBTJeBWi4BQjUgICrbxve6zUYBbcCASBQWARAxgtreiheCQFXC5ZK4xbh71i0FcHK4XTMEhkPpxFaAYF0I+Dq24b3errtDumAABBIJwIg4+m0C6RKAQKuFiwpUC1xEbBoS9wEqREAZDw1poAgBUHA1bcN7/WCTCCoCQSAQKwIgIzHCic6yxMCrhYsecKoWl2waKsWufzdBzKeP5tCo3Qj4Orbhvd6uu0O6YAAEEgnApHIOFeLnTfxBup1zWjio2P0JZVk+YiYlu060BO3DKL1zy0sa8OVatt2PdU5Eiiy4xziQgzgasFSCPAqKIlFG2aBIAAyjrkABOqLgKtvG97r9bUjRgMCQCAfCDgl40zMhXzLcTT9R02tCyHPh3mgRZIIuFqwJKlTWsbGoi0tlkhejrjJ+NsrnjdnjH/tjofMcWe4gAAQKEfA1bcN73XMNCAABIBAdARqIuP6jNZulwyhnZveJO0Z12ScReOzXt9avpT63jiJDmzSQLxomjmoj5Ga7+ff87XgrpF0RMeu9NJvptOW11fSBRMepB3vbKDFPxnvea6reOB7D7vNjK8949s2rKUXf3W/6XfVvEepdfsudNGkWcaz73XGbD0899HNhDuSQMDVgiUJXdI2JhZtabNIcvLEScb5nb743tvpxAu/1Sh6SzSU976c7x1Wc/v7FfY+tAMCaUPA1bcN7/W0WRryAAEgkAUEaiLj7H3YtWWTIdGbV68wxJpD0SVM3SbjmiTv2b6NHht5JbGn/IhOXQ0Bb9a6DfUYeL35mS/dLxPyjmdfYP52dLeeZT93Pu8yQ8Dn3zmCzrlpsrl3yX0TqN+oKcRkXOTS47BsLD9f/DNvDDw5cXiJqGfBeJDRLQKuFixupc5G71i0ZcNO9ZAyTjLuUl6QcZfoou96IuDq24b3ej2tiLGAABDICwJVk/HmR7Y1xFi8C9rbEIaMM0leOfeRMi85k+MBY+41JJkJt5BsIdYccsh/a3FUO/M3fel8dpuM65BFXlCxl7371682ee2yYVCttyQvEwF6NEbA1YIFWBNh0YZZIAhEIeOyodumc3daOPnmskgn7i8o2urDXTtp1bzZ9I3759KqBb8rfbskhYqjsI77Sp+y8HbpjyOqjjv1bPpw966yCK7lsx8watSrHgpmDRCIAwFX3za81+OwDvoAAkCgaAgEknEmsRwazheHgDOBlQJuhxzW0pfM+pFxncu3bumCspB1WWSdfcMdhnALybeLsWkyrhdeLKOEoNtkXJN+m4zbRebYA28T/aJNCuj7DwRcLViAL8g45sD/IRCVjHNEVcc+F5qNVO2t3vnu26XoKNks1tFW/DPf47Vx3HnAFea9r6O9uD87eoul5oitZTPvNgogqgozOYsIuPq2gYxncTZAZiAABJJGoK6ecb1w4rD2IM94JTJ+fM++ZZsBQZ5xPzLuVxk+aaNg/HQg4GrBkg7tkpUCi7Zk8U/T6FHJuKQjcd0P/d5/d9XLjWqS8Lv/zOvG0VP3jClFW2ky3tCiVSmliSOvdLrT3h1bG32juL/Tho6kueOGIaoqTZMIskRCwNW3De/1SGZAYyAABICAQaBqMs4LIZtcB+WM29XU9b+9csajknGWZdmMqSbnmy+dM+5Fxu2ccVR7xxNhI+BqwQKkiTp27Ejt27enOXPmAI6CIxBExu3orE59Ly4jzzYZnzN6cBmaHHYuqU9eKVXcWKcxhSH3QsYRVVXwiZth9V1920DGMzwpIDoQAAKJIVATGberqTdp2ozan/HV0OeMB+X3VSLjHFLIBFwWX+feeg9tXrPChLdrb4edmy5h6jpcUfL+EKKe2DxM5cCuFiypVLbOQp100knUrl07+u1vf1vnkTFc2hCoxTOuPdnsGed6IPxu15ddDyQOz/iiKaOp1zWjfSu2pw1jyAMENAKuvm0g45hnQAAIAIHoCEQi49G7xx1AILsIuFqwZBeR+CTv1asXNWnShBYuXBhfp+gpkwhEJeOcx93jquEmx9svZ5wjtyT/W8LUg4qNeuWM7/tgbykVSqK3GGA7ZxxRVZmcdoUW2tW3DWS80NMKygMBIFAlAiDjVQKH2/KPgKsFS/6Rq6zhhRdeSBs3bqQVK1ZUbowWuUYgKhnnFKQmzQ4ljmjyq37OgMnfDjq4wffkj7ZdTzV54kzwg6qpc38cfbX9rXXU+zu3GnvwaSKIqsr11Mytcq6+bSDjuZ0yUAwIAAGHCICMOwQXXWcbAVcLlmyjEo/0w4cPp0ceeYQ2b94cT4foJbMIVEPG+42aQlxwDRcQAALREXD1bQMZj24L3AEEgAAQABnHHAACPgi4WrAAcDJEfODAgbRv3z7AUXAEQMYLPgGgft0RcPVtAxmvuykxIBAAAjlAAGQ8B0aECm4QcLVgcSNt9no98MAD6cUXXyRewOEqLgJRyHhxUYLmQCA+BFx920DG47MRegICQKA4CICMF8fW0DQiAq4WLBHFyG3zzp0705FHHkkLFizIrY5QrDICIOOVMUILIBAnAq6+bSDjcVoJfQEBIFAUBHJNxvWxN1xdFxcQiIKAqwVLFBny3HbmzJl01VVX0R/+8Ac699xz86wqdAtAAGQc0wMI1BcBV982kPH62hGjAQEgkA8EIpHxvTvfo3kTb/A8X5X/9sQtg8wZr1yhli99jjj/u97nePPRNseecnpJHpaBCTpX40UBoHxMYJdauFqwuJQ5a31feuml5qzxc845h/bs2WOOO9u6dSsdf/zx9PLLLxMfgfaFL3yBrrzySuNFx5U/BEDG82dTaJRuBFx920DG0213SAcEgEA6EXBGxpmIPzlxOF00aRaxV/p/P9xrjoI5ultPcz5sUhfIeFLIZ29cVwuW7CHhTmIm4f/93/9N77//Pn3yySdmoIaGBmrfvj298847dNhhh9GWLVto586ddOyxx9Kdd95JTOBx5QcBkPH82BKaZAMBV982kPFs2B9SAgEgkC4EaiLjQrD5rNVulwyhnZveNJ7xIzp19STeNhHWnnO+v++Nkww6TNqP6NiVXvrNdHP2K3vUd7yzgRb/ZHyjs2PtdkL0vc6O5b7Ze7/+uYWlfvZs3+Z5xizL9uKv7jfyrJr3KLVu36W0scC/Y687y8PXwIcWGu+7xkP/Pl0mhzRhEXC1YAk7fpbbrVmzhpYsWWIKtK1evZr+8pe/GK/32rVry9TiI864onr37t2pd+/exiPudf31r3+lb3/72/T73//ehLb//Oc/zzI8kF0hUAsZ5/c0v4u/dsdDTo86wyYupmyeEHD1bQMZz9MsgS5AAAjUC4GayDgvgnZt2WRI9ObVK2jmoD6GmDa0aEXz7xxB59w02XjFvS4hy/1HTS2R92at21CPgdcbMs6X7pcJecezLyiRfPmZNwB4IcakWsY85LCWZSHzWs6d775dClMXci6h9X76yOYCy8dtX/vDr83mAP+sF2m8ecAX/96ODKiXQTFOfAi4WrDEJ2GyPTGxXrx4Mb300kt03333lQkzZswYmjJlCn3mM5+hz33uc9SpUyc6+eSTafDgwTUJ/fDDD5sj0b73ve/RD37wg5r6ws3pQCALZDwdSEEKIBAPAq6+bSDj8dgHvQABIFAsBKom482PbGuIcZcBl5d5hfnfTMYr5WUzWV059xFDuA9s0mDIK5PhAWPuNf+XcHbbI8F/a3FUuzJiLt5w+VuLNseUeUt0H0zaRbZtG9b6trP/JgRcNgtEb5kuds68eMntdsWaXtnW1tWCJcuoMMFmor17926jxiGHHGII94YNG+qm1vjx44n/++ijj+o2JgZyh0BUMq6jnnoPu818O8QzXku0VUPzw0ne4xw9xRf3b2+68rfBL2oK0VHu5gl6jg8BV982kPH4bISegAAQKA4CgWRch2LzoqT7168uFXCzvc+afIbxjDO5fWv50hIZF8J89g13GIIsJLYSGddkV5Nx9tLrS8LM+XeajPu127tja9lmgZBxxsAuVMd92os4GbveReuKM3Xda+pqweJe8ugjPPjggyakfNWqVSak/G9/+5sJH//ggw/KOuP87ldffdUUVuvYsWP0gWK646ijjqKzzjqLZs2aFVOP6CYpBKKQcXnPdh5whak9wu98IeOSclRrtJXeCJZoK6/vBkeB2VFTLA9fiI5KajZh3DAIuPq2gYyHQR9tgAAQAALlCDjxjPvljPNC6ukfj6Uzrh1L7F0I8oyHJeOycNIF4tgzrvvWKmtyb8ug29me+zCecb9K85h02UTA1YIlCTTWrVtnQsqFcD/11FNlYrzxxhvUp08fOuaYY0xI+UknnWQI9wknnJCEuBXHvPnmm+mBBx4wmwa4so1AFDJub84Gvc+jRlvZhUX16SE2Gdd56n4btYiOyva8zLP0rr5tION5njXQDQgAAVcIVE3GORdce7d1zjgXM/Orpi5515VyxsOScQaGQ905F9wvZ5zlfG3uL0u55eIZ53u1l1u3s4m6zhPX3g99lvnqBb8teUW0fnLUmysjol83CLhasLiRlkyoeLt27cq63759O7Vq1Yr2799vqpTzz0y4uRBa8+bNXYnivF+usP7Zz36WPv74YzrggAOcj4cB3CEQRMbt6Cw+qlITYU3G1y1dUFO0FZNx+zhOv4gqvdlrk3EJcRfEEB3lbu6g5+oQcPVtAxmvzh64CwgAgWIjUBMZt6upN2najNqf8VXfc8Yl/04gD8rvC0vGmdzbVc25f51XqCuhS5gjt5HCb4+NvNJUbdft/DzjHH7olxdo/x6LsGw/XK4WLHGhwp7sjRs3mqO/OIebCTd7wG1C/tprr1Hnzp3jGjY1/Rx00EH0xBNP0HnnnZcamSBIdATq5Rmv9E05vmffss3ZIM+4HxlHdFR0++OO+iPg6tsGMl5/W2JEIAAEso9AJDKeJnURApgma+RTFlcLlkpovfXWW/T000+bkPL/+Z//MYT7kUceoVNOOaXs1p49e5q8bQ4pP+200+jEE0+s1HWu/s6e/XHjxtF3v/vdXOlVNGWikHGdjhQ1ZzwqGWeP97IZU82RlnzpWiNeZJw3au2oKd7o5Rx2REcVbVanW19X3zaQ8XTbHdIBASCQTgRAxtNpF0iVAgRcLVhYNSbczzzzjAkb79+/f5m2TZs2NV7uli1bmpDyDh06GMJ97bXXpgCV9IjAVdyHDRtmCDmu7CIQhYyzljrqqc+IH9C2N/9s6pBwNfRaoq2Y3DMBnzP6H8fvnXvrPbR5zQpTTFSfEBKUwoToqOzOwyJJ7urbBjJepFkEXYEAEIgLgcyS8bgAQD9AwA+BuBcsn//8501I+fvvv2/I9sEHH0wjR440R4Xhio5A69atzQbF97///eg3447UIBCVjKdGcAgCBDKKQNzfNoEBZDyjEwJiAwEgkCgCIOOJwo/B04xA2AULh5D/6U9/KoWU//Wvf6XBgwcTn8mtr29961vGw83h5d27d0+z6pmQDWQ8E2aqKCTIeEWI0AAIxIpA2G9b1EFBxqMihvZAAAgAASKQccwCIOCDgCxYmFxzDjcT7r///e80ffr0sjs4V3vr1q109NFHm5Dybt26mRzuk08+Gdg6RABk3CG4dewaZLyOYGMoIEBEIOOYBkAACACB9CBgyHh6xIEkQCBdCHzqU58yx2dxSPnhhx9Oxx13HC1ZsiRdQhZUGpDxfBgeZDwfdoQW2UEAZDw7toKkQAAI5B8BeMbzb2NoWCUCvGB5/vnnqUePHlX2gNtcIgAy7hLd+vUNMl4/rDESEGAEQMYxD4AAEAAC6UEAZDw9toAkKUPA1YIlZWpmVhyQ8cyarkxwkPF82BFaZAcBV9825IxnZw5AUiAABNKDAMi4A1vw8Tp83uzX7njIHLeDK5sIuFqwZBON9EkNMp4+m1QjEch4NajhHiBQPQKuvm0g49XbBHcCASBQXASckHEmoyvnPkJ9b5xEatBDDAAAIABJREFUBzZpiIwunyO75L4J1G/UlKrIrD4rlgcf+NBCatv11MhyVHMDnzO7+N7b6cQLv0Utj/18qQuWacc7G+i0oTdX021N98jZt81atwk9vo0hC9DtkiFV2zSqAryZ0eKodsRn/yZ1uVqwJKVP3sYFGc+HRZMm4/yue2v50rq92/JhNWiRZQRcfdtAxrM8KyA7EAACSSHghIzXqkwtZJwXVq/N/WXJK71353v0xC2DDAmtFyH30j9JMi6bIyzXGdeODbXB4bVAZYK8a8umwixaXS1Yan0+cP8/EAAZz8dMABnPhx2hRXYQcPVtAxnPzhyApEAACKQHgVBknAnt0z8e24jIMcmbOahPSRvxQGvPOP9xwV0jafnsB0w7aWMTbrnntKEjae64YbT+uYV03Ff6GFK9Z/s2emzklbTl9ZWl33H4N9+zZPpE2r1tCx31xS+R3GsT7yjytOncnRZOvplat+9C/UdNNeHmLEvvYbcZQi9y63YXTZpV8oJrTMSTvHn1ihJO0o9XO44i4PE+2r2L1j+/yOirvdGysaCxYRxYJi98xDDc57GnnE4b//RMmbfZjmDQGwZeZNze2PAbV/pt0rQZLZvxI2Mzxu7JicONThdMeLDk8dYeeMZcsBTP+JEnnGSiJJo0O7TRHGL9/HCM4xFztWCJQzb0ATKelzkQhYx7vX+93tOMTdB7Ud4b/M457tSz6cPdu8wmo9/3Ki9YQw8gwAi4+raBjGN+AQEgAASiI1A1GeeFzvw7R9A5N002RFSTNyafEqa+bObdJW8q/54JGRMuvnQouiaGO999u/Q3bqc929o7q/tjGcLkavvdz+Mwoe1x1XBDFLndmoWPl2QVXaVdxz4XGoKp9Wa5pV3zI9uaTQgJDddEV2Nnt+NxWQ+9CcGLzSM6dTX9dRlwufHwS3/dv361Lz5M7vVGCm9qvPL4z6n3d2416QNRyTjrLiT5+J59zbidB1xRwku85rL5wBsvIvfOTW8anbZtWFvKp9c/86YC980X46rJuG0XGScI7+iPQuM7XC1Y4pANfYCM52UORCXjYd7ThxzW0vf9xO8N7kO/VxlLJuP8vZJ3EL8f5XulU47ygjv0KC4Crr5tIOPFnVPQHAgAgeoRCCTjtudbhtGeTfmdJnZCxs+8bhw9dc+YEoGU3OWju/Uk8XhKXrgfGbcJm/ao23+rlKsu4wuhteWxNxckx5sJ7byJN1Cva0YbdXU7/bd3V71clnuo5VmzaE4pZ9z2Out2ejGo5W1o0cozj97egPCKOGCPOBNcO5+9FjJu209vMOzdsbWsgJ3O/w5KQdAbFpqMa7xtTHWuZyX7R31MXC1YosqB9t4IIEw9HzMjKhkP+57Wm732+0nXNLGjsiSyyv5e5ANtaAEE4BnHHAACQAAIpAmBqj3jrAQTpsU/GV/SR4dl82LHK2zcDj8OQ8Z1KDwPJuHMTPrsRVVQFXOv/HE/eTQxtMm4XuTZZHzO6MFl9pVQ+3VLF5SRcb92L/1meimUXC8GBW+7QrvXhokd7q1txP3IZkpUMq43L1q0OaaMcGscbLv4kfGDDm4oS2Fg2SSMP8w84Q0OPxzjqGIPMp6mV1VjWUDG022fsNIFkXH9jeF3Q6e+F5dtSvq9p+0NwTCbpjpFSsvutfkcVje0AwJpRMDVtw2e8TRaGzIBASCQdgSqJuO2R7ZWz7gd7i2El73ffpXZbTLpV6yNvSIcnv2VwTeG9tQHkXHtmdEeF/aM+1VMt/Ox/dpp4hrWM+6Hj51KwJPRjizQ9+ow8Uo547anPsjz5EfGeYNCe7b9PON+6Qw62sDFg+ZqweJC1iL2CTKeD6tH9Yzr90HYTdOwnvFFU0abCCiEpedjbkELbwRcfdtAxjHjgAAQAALREQhFxr261WRcPJzcjvPuwuaM++XtBeWM62rpXkTdr5q6X26zXw570CJP5yz65YzzYk7np2viaJNk3Y7D1OVIL03GW7brUJYbLuPa0Qdaf5vssn30hgX/W/SXHEvOR7dz4eV4Oi3nvg/2BuaM2yRfdNKbAVo+6U/GD+MZ1znjNt7VHKlnz3NXC5bojynu8EIAZDwf88IFGQ/KGZd3Db/npKaFfLt0mpAUgOPc8iRP4siHlaFFmhBw9W0DGU+TlSELEAACWUGgajIuRJGrpHNYNBcFW/XkbHM2uCbJDIRXNXX+vVTS5vu5ENnmNSsMmZfFErexq6nrEGy/HGH7jGwdZqjl5v79qrtX8rhIdW8JQ5ewaB02rv8mv/eqpq7b+XnGeTHoVx1Y/17wkcJwnJ9vn9Vtk38OY2cZjju1D320d3eJjNsh4PY545Wqqcs5836eccafi8BJdfiTLh1K65bOLxVSYgIfVFtAitBJGoNti1ofQlcLllrlwv3/QABkPB8zwQUZ5825MNXUGcFzb72Htr+1znzD7O8VQtTzMcegRTkCrr5tIOOYaUAACACB6AhUTcaDhoq7kFZ0tdzdUcsZ6O6kQs8uEHC1YHEhaxH7BBnPh9WjkPF8aAwtgECyCLj6toGMJ2tXjA4EgEA2EYidjEvBHfE4ZxMWf6lBxvNmUX99XC1YioOgW01Bxt3iW6/eQcbrhTTGAQL/QMDVt+3EE0+kz3/+8zR79mxADQSAABAAAiERiJ2MhxwXzYBA6hFwtWBJveIZERBkPCOGqiAmyHg+7AgtsoOAq2/b8ccfT2eddRb99Kc/zQ4YkBQIAAEgkDACIOMJGwDDpxcBVwuW9GqcLclAxrNlLz9pQcbzYUdokR0EXH3bmjdvTt///vdpxIgR2QEDkgIBIAAEEkYAZDxhA2D49CLgasGSXo2zJRnIeLbsBTKeD3tBi+wj4Orbxhtra9eupfbt22cfJGgABIAAEKgTAiDjdQIaw2QPAVcLluwhkU6JQcbTaZeoUsEzHhUxtAcCtSHg4tt266230rRp02j79u21CYe7gQAQAAIFQwBkvAaDyzFpXseH1dAtbk0JAi4WLClRLRdigIznwowEMp4PO0KL7CDg4tv2mc98hs4//3x68MEHswMEJAUCQAAIpACBupBxXYF8z/ZttOS+CeY8cjmbu1oc9u58r3RONfdhn4Ndbb9h7+Mj3Db+6RlzLrdcLNO8iTdQr2tGE591W6/LPls9Ch76PF6RV5/n7lqHtB6F52LB4hrLIvUPMp4Pa9eDjPMpHy2Oakedz7ssH6BBCyBQAwJxf9suueQSWrBgAe3cubMGqXArEAACQKCYCNSdjNdKwDXpfeKWQdR5wBWlBRYT0reWL6W+N06iA5s0JGLRJMm4rTsvQHdt2VQRDybj8+8cQefcNLm0gcAE+cmJw+miSbPquqmQiNF8Bo17wZIm3fIgC8h4HqxIdfGMg4znY65Ai3gQiPPbxkT8scceoyeeeIK++tWvxiMgegECQAAIFAiBUGScCebTPx5LZ1w7tuTNFgLHWLFn42t3PETs9X5s5JW05fWVdNxX+pjf8cWkef1zC83ven/nVnrhF9OMZ3zbhrW0ZPpE2r1tCx31xS8Z0rh59QqaOaiPuU883fzzgrtG0oe7dtKqebOJzzDfsekvjYi3hI13GXA5te16KmmPr8jDmwHiiW3StBktm/EjIxd7t5l8suwXTHjQEHyvdqwT9yFjLZ/9gJGVZTqiU1cjJ/9OPMvNj2xb+p20E9k4QqBJs0NNe/03/lnLrj3+LJOND288eG1ESOQA69bQolVZRIL2Ru989+1GZJxl4AUsX+L5lzPk+XeCkUQ9tOncnRZOvtno3X/UVHMv27z3sNtK92vZtb5almUz76aPdu+i9c8vMrbQuvvZ09XzGueCxZWMRe4XZDwf1o/iGZf3jd97U0cIyTv43VUv05zRgw1Y/N5q0eYYWjn3kdImJd+z450N1GPg9Y2+M/qdbr+j84E+tCgiAnF82zhH/P7776ePPvqIHn74YRDxIk4k6AwEgEAsCNRExpl4M/FicqmJH/9be2WZ7Eloug5TZzKuva/aQysktlnrNqVFEv/MxDBMrrbII55zLY8Qfk2gd25602wesEzcVn5m4ivEU5NT/bP2Ih9yWMuyMHW/dmw9xq/HVcMN8dfy7ftgb6M+OMTyyBNOKpFmjQ9j4hcVIB4hvlenB4Qh47rNmkVz6LW5vyzbdGHbM8m39Viz8HHjUedLPO76Zw7f1/KyPWRxzGScx9WbOzxOy3YdzKYO62rPL1dREHEsWGJ5StGJJwJeZJwXhT/84Q/p17/+NXXo0CEUcnv37qUxY8bQkCFDQt8TqmM0CoVAVDLu997k94i8u3nD1H5fS5i6nRZjk3H5ztgbkogWCmVONMoAAvxtO/HEEyNJun//fnr//fdp69at9Pe//51atGhBF110EXLEI6GIxkAACACBxggEknHbkym3MznVxJDJFbfVCyG/PHGbjOt7bEIpi6YzrxtHT90zhqRQmu0B9zKsHp8XZpro792xtdGiTRZq+j5NzKUPJrSn/7/baN4PbigRQy0Pk0bJGWdirgmkbsckVoeG6wWiJqeaaPrhwxEFTJa9QvTjIuNMknXOpSx0O/W9uEwPWdgyaQ4K2ffTl8fhS2+6cKSDLIwlMsG2r4uHG2TcBarx9anJOBPq4cOHU69evWjLli103nnnhSbWfO9dd91Fw4YNo5YtW8YnIHoKhUBUMu733rQ35fS7SIepVyLj8p2xN5jDfHdCKYxGQCBhBPjbdvHFF0eW4rDDDqOOHTuaQm04viwyfLgBCAABIOCJQE2ecdvTKuHTMpKECfK//TzjdrighBNKHxxCPmDMvYY8S/h5GM+4vTmgiSGTcT2uXqjZZFy3k78JGecwbH3xJsXxPfs2IuNe7YI81X7E2qtIm4Tfr1u6wDdsnxeX1XjGhfzbmyGssyx0mYzreRBExnWYO/chIei2Z1xIv178cnu/+eWqUB7IeLrfmn5h6lOnTg1Fxvk83Msuu4xeeeWVMkWfffZZ6tmzZ7qVz5F0QWRcvzM45cV+32hizZBImpDAI2kyUci4fGfsAqHSp0RK5cgEUKVgCODbVjCDQ10gAARSjUCsZFwTV621n5ecPc9euXu6Ojn34+WRCArLPvaU0xvlSNue8bBkXHvuheD3u3kKPTNtvGfFdE367ZB1P0x0HrvkzXthqYmuPaui5ozr9mFyxu0CSNozHoaM29EIQZ5xPzLuN79cPWFYsLhCNp5+ayXjIgWHtu/evZveeOMNGjduHDU0JFP8MR5UstdLVM+4X7qNvYkZ1jMu7zLJGddkPImTMbJnQUicNQTwbcuaxSAvEAACeUYgFBn3AsAOE7ZD+nghpHOMw3jG7arekkctnllZJLE8dk44/06Pyf/W1dbtnPGwZJy9sZxbLnnK3C9vFuh8RCksJrnNegHn1y5KQTW/kHCtk5c33c7blxx/KUrEujD59yLjdn6kbU/py9bDzzOuyfhBBzcYD5aMH8YzbueMa3niqtBvz3MsWNL96ouDjC9dupRmzZpF7E3nUHW+brvttnQrnjPpXJBxrrvB739+b8v7WueMS60SSSXidjYZZ5j93t/cHhcQyCoC+LZl1XKQGwgAgTwiEBsZZ3B0tWt9TrUQZ25jV1O3vZ06T11CsIW8aTKuCbmEgeuK6bY8XtXU5Qi0oDD1F391v7H7qnmPllX2tqupS+ii/P6dV18wRczsaup2FXI5b93OY/Srmu6FD5PRMOeMSxu2TfevX02b16wokXGpgi+T3OuccR0y6qeHHxnXOHDfPA9WPTm7VFVfF3Dz8ozb1fHrcQ46FizpfuXFQcbTrWExpIuLjAsBl5M7Trp0KK1bOt+843izklOgdDHOxT8Zb07SOO7UPvTR3t2eZNzvPV8My0DLvCKAb1teLQu9gAAQyCICVZPxLCobVWabIEe9H+2zjQAWLOm2H8h4uu0TVrooZDxsn2gHBICAPwL4tmF2AAEgAATSgwDIeIAtQMbTM1GTkAQLliRQDz9mFDLO4ehSlE3/HH40tHSFAMi4K2TRLxDwRgDfNswMIAAEgEB6EAAZT48tIEnKEMCCJWUGscQJS8alavq0adOoVatWpoI6/4yK6emwL8h4OuwAKYqDAL5txbE1NAUCQCD9CICMp99GkDAhBLBgSQj4kMP6kfGQt6NZShAAGU+JISBGYRDAt60wpoaiQAAIZAABkPEMGAkiJoMAFizJ4B52VJDxsEilux3IeLrtA+nyhwC+bfmzKTQCAkAguwiAjGfXdpDcMQJYsDgGuMbuQcZrBDAlt4OMp8QQEKMwCIT9tkmKzyuvvEL9+vWjhx9+mFq2bFkRp71799KYMWNoyJAh1KFDh4rt0QAIAAEgUGQEQMbraH0uCMfHg33tjofI1dnYdVQn90OFXbDkHoiUKggynlLDRBQrK2Rcjjk7ultP6nzeZRG1RHMgkB4EwnzbbELNhS//+Mc/0m233VZREb73rrvuomHDhoUi7xU7RAMgAASAQI4RSBUZ5zOq31q+lM68bhw9dc8YknPF5XzrEy/6Fv0L7acvXnAl8bnTUS/7LO6BDy2sqp+o43J7Xsgtvvd2OvHCb1HLYz9f6kKfcV5Nv3Heo8+Jl37DnuctZ8nLme9yf70wZtmX3DfBnFse10ZHmAVLnPijr2gIgIxHwyutrbNCxnkzdeOfnqHTht5cgpLfe/Mm3kC9rhld9l5PK9aQCwgwAmG+bewVf+CBB2jcuHHU0NBAYQi29qRrpJ999lkUzMTUAwJAAAj4IJBKMt73xkl0YJMGI7IfiY1qUSbir839ZckrLeSRF1bVEPuo4/u1TxsZn3/nCDrnpsmlhSUvQJ+cOJwumjQrcLHphaeQ+/6jpiaKcbW2CrNgqbZv3Fc7AiDjtWOYhh6yQsa9sAIZT8MMggxREQjzbbM94VFCzzmcfffu3fTGG2+UyHxUGdEeCAABIFAUBEKRcV5wPP3jsXTGtWNLXkfxRLbp3J0WTr6Z2IPKpIvJJXtHew+7reRB0B7X477SpyxMm8nezEF9zP3HnXo2fbh7V8kzfkLff6dVC35Hy2c/YOzxjfvnmn+Lx9yvX+5zyfSJtHvbFjrqi1+i04aOpLnjhhl5NPHW54hz/wvuGlkaSzy6YfX0aqcJrOjJ43S7ZAjxhsOaRXNozujBRrcLJjxoQh+92vHGBOP60e5dtP75RbTl9ZWlPvhv2iut8fXDR8ItBVcZm9vbZJxl47H5Yvz05oH0w/Zo2a4DPXHLoEYYS7SDbLAE6fevDU1p/fMLS/OnxVHtDD7aO2/LLljufPftkmd824a19OKv7jcyr5r3aNn9os/in4wvw93rgQ+zYCnKiyKNeoKMp9Eq0WWKSsajvu/kPd+kaTNaNuNHxO9IfpfxJiO/S/W7d+XcR0i3k5Qi+73D34cjOnUtfTPkHdX8yLaB35EmzQ5t9I1hxPS7Wt5p/G73e1/q39vf1OgWwB1FQyDMt43J+MaNG+kb3/hGCZ7x48fTWWedFejl5vtmzZpFU6dONaHqfIUJbS+aDaAvEAACQEAQqImMPzbySupx1XBDIpmkrVn4uPGg8iWk7pDDWhqS1nnAFaV2u7ZsMmSUCRT3wSReFjZ8rw5Tl98z4dM/2+SPx5d+N69eUebNDZOr7Xc/yxNGT2nXsc+FZqGnSSjrKXjIYq1Z6zaNyK0mw17tWA9eHO7Zvq0RbrJBwePueGcDdf/61WXkWOvHmwDchuXUGy3crxcZ15sWy2beTUyS2eZhyLgOH/eSW+Ng6ydY2psBsjGgvfENLVqVkXHe4NELZhnHtovMP6/oiDALFrxKkkMAZDw57OMcOQoZ1+8cfmbt953Xd4a/B/b7YOemN827lDfupI4H/8zthJz7vXd0tBB/33SYur5Ht/P6jsj3at8Hexv1we/YI084yfO7we92PSZjwBfy2OOclfnuK8y3rRbPeL7Rg3ZAAAgAgXgRCCTjevddD8uLFb1Q4BxoWRQJwZPFAt+nc3k14dy7YyuxJ0J7TfnfYcg496uLoWnSpxdYnD+syaSEv2t97AWeLtQTRU9NZHX44rurXja58Lae/G9Nbr28yIIPtxMSquXVJFTnStsbEBqfdUsXlMi4xsHPMx4XGWe72PYWG770m+kl/ezQTz23/Oxmk3E9N+T+HgOvN14rXYApKE0gzIIl3scRvUVBAGQ8ClrpbRuFjPvVhrB/b39n9PtAP/NB3w352+n/7zaa94MbSlE/9iakfOtk41kisOz3tP4+6Hcqbxbo96JYyu97wJFei6aMRp56eqd06iUL822rJmc89YpDQCAABIBAChGoyTOuSbYfGWfCrRdCYUhqWDLOXgx9SaigF8kPqmLule8sCzYm42H0tDcdbD0lHF3kldBCJqHiabYLzHFbr3Z6kWdvSkj/XhspOtxbiuJxex2S7+UZ14vCqJ5xvSnAmwB6U0IvhDUOQWTcq8gcy2+Tcb24tcm4hOcLVjqlQs+nMAuWFD7ThREJZDwfpg4i4/o9xc/psaec7nkihb35qN8h9vcgiIzr94ZNxu3ilLwpfXzPviUvtZBxr3b2d0STcY5U0u9FTcb9vhsSZWSnLOVjRkAL1wiE+bZ5VVOX8HMu6Mae8549expR9c+uZUf/QAAIAIG8IeCcjNskNU7PuJc3gcezPeF+xdpYllce/zl9ZfCNZdXbbc94WDKuiazWkz3jEhZuTyC9MPTzAAvh9goPD/KM++GjZdCLVv59lJxxjWuYnHHbA6QX0GHIuO3Z9osQsD3wNhmXkP5KD3OYBUulPvB3dwiAjLvDtp4918Mzrt+FYT3j8n7qd/MUembaeE9PtH5/2iHrGkPbcx/WM+733dB9B3036mlHjJUdBMJ+2/zOGZffT5s2jVq1akWXXXYZ8c9CzrODBCQFAkAACCSPQCgy7iWmvbjw84wH5YxzrpwU/ao1Z1xXS7fJGMvvV03dL8dQKojbmwlB4fg6t9wvZ5xD+nX+tvY022Hifu2CcrVlXLtondbfJr5SnM8rZ9yupm7n1ksuphcZt6up63+Lvb1y5/084zYZF+9/WM+4ncsv80/mgD3Pwy5Ykn+MiykByHg+7B6FjNsbq/b7zu99HpaMy/uM89H9csb1e4zfe34547qdvWmqybiuKSLfB7Zsp74Xl22Oyru3+6VD6bkHJ5eOcUTOeD6eg3pqgW9bPdHGWEAACACBYASck3FeXISpps5innvrPbT9rXVlnmq/Am68WNL96hBsvxxxOwxcCvXw2F7VcmWMsJ5xbifVcv2qxvNY+m8ik1c1dd3Or4q5jYNfNXWNj30muA5T5w0FDn2Uyz5nXN/b46rvmur3upp6pXPGg6qpi+c/KExd389hq3xJsSOxk59nXM4HtkNf9bnB+nHBgiW9r0/2zHTq1ImOPfZYWr9+fXoFhWQVEYhCxrkzv++J3+/t70GQZ1yfwqCrmvudQCG/f+fVF0zxUruauj6pQn9HbJmiVk3X3zItZ0Ww0QAIhDxnHEABASAABIBAfRComozXR7zsjOJXWCg7GkBSGwGQ8XTOCSbiX/ziF+mjjz4iJnJnnnkmLVq0KJ3CQqqKCEQl4xU7rLJBpUKfVXaL24BA6hDAty11JoFAQAAIFBgBkPGYjA8yHhOQKeoGC5YUGeOfomgiLtKBkKfPTlEkAhmPghbaAoHaEcC3rXYM0QMQAAJAIC4EQMbjQhL95A4BLFjSZVIvIg5Cni4bVSNNWsh4NbLjHiCQRQTwbcui1SAzEAACeUUAZDyvloVeNSOABUvNEMbWQRARByGPDeZEOgIZTwR2DFpgBPBtK7DxoToQAAKpQwBkPHUmgUBpQQALlnRYIgwRByFPh62qkQJkvBrUcA8QqB4BfNuqxw53AgEgAATiRgBkPG5E0V9uEMCCJXlTMhH/whe+QB9//HFoYZBDHhqqVDQEGU+FGSBEgRDAt61AxoaqQAAIpB4BkHEHJuKqvHx8ztfueIgamh/uYAR0WQ8EsGCpB8rBY7z66qvUrVs3+uSTT0ILw+TutNNOo8WLF4e+Bw2TQwBkPDnsMXIxEcC3rZh2h9ZAAAikEwEnZDzoiBh9xms1kISpWm6fJy7naFczXtR7+NzZxffeTide+C3iM9blYpl2vLOB/M60jjpOLe31eby6H33uetj+baz5vnqee1vrfArSEwuWsLPAbTsm5CeffDLt27ev4kBM7Hr16kXPPPNMxbZokA4E4iDje3e+R/Mm3kC9rhld9t61NQzbLh3IQAog4AYBfNvc4IpegQAQAALVIJA5Ml5JSSaHr839ZckrzYuvJ24ZZEhw266nVrrd2d/TRsbn3zmCzrlpcmnhWu0ilfV6a/lS6nvjJDqwSYPBjwnyri2byn7nDFiHHWPB4hDciF2HIeQg4hFBTUlzkPGUGAJiFAYBfNsKY2ooCgSAQAYQCEXGmag9/eOxdMa1Y8vCrrWH9biv9CkRYPGMN2najJbN+BHJ39YtXUBzRg82sIgXltvOHNTH/E48qvzzgrtGUrPWbWjxT8abv/Uedpsh1Nozvm3DWloyfSLt3raFjvril+i0oSNp7rhhjYi39tRL38tnP2D6Fa+59Numc3daOPlmat2+C/UfNdUQy/XPLWw0vm530aRZJVLrpc/m1StKOooeXu2YzPJ4H+3eReufX0RbXl9Z5mWWjQWWR+PtZwf20jOOoqtgzu1tMi5tuwy43GxaaI83YyE6snxb162mVfNmGxvyZZNxewMkyjxhGz85cbjRXXvqg+RpcVQ7OvKEk2jJfROoSbNDS/rqiAg/vIOeUSxY0vUGCyLkIOLpslUUaaKScX4H6e9Cj4HXl95z8q465LCWZhOW35Xy/bDbnT/+Z/Tyo9NJ3nn2hqQ9ThqimqLgirZAwA8BfNswN4AAEAAC6UGgajIuhKvzgCuo83mXlXlDhXwKmeJFDV+8mNFhxZoUNj+ybYmAy6KJ72GPK/fHBI0JIV/AGotIAAAgAElEQVRMuvqNmkJMxuX3HBIeJldbe23tfh8beSX1uGp4SZ81Cx8vjSnklcfndh37XGj00Z7hne++XSK5Wh9pJ2HqfnoLPqwH55vv2b7NjMWbAkd06mrw0WSZ++v+9avLPP9avzWL5pRC4/WGCvdrk3Et094dW8ty3m37aa+3l2ecMRI7H9+zr5EvaJ4waRb9dm560+jOtpW8e/0z5+B7zScm47b9RM4gu4CMp+dlFEYSL0IOIh4GufS2iULG7Y1VSQli8i1h6vLuPbpbT/Mu1+82r3ZeZJzfgSvnPmK+P3x5pR6lF1FIBgSCEQAZxwwBAkAACKQHgUAyrr2JWmQm2eKJZFLMBCmIzGlv9ku/mU7syeRFkk3kZKF15nXj6Kl7xpAsprTHwibjulBaUK4632d7f+XfPA7rowmqDiu3x9ft9N/eXfVymZdYy6OJsZ/evPBbNvPu0saFlrehRavSJoQuCmdvQGisORLBK0/dL2fcL7deY6GJMAtaiYxHmSf2Ro1suthF8Gx5xDOu7WJjr733leaJzHUXC5ann346PU9/RiVZv349/cd//Af97//+LzGR69KlC9199z+eG1y1IXDGGWfU1kEVd1dLxiUthocMSrPRf6uGjOtxqlAPtwCB1CHg4tuWOiUhEBAAAkAgIwhU7Rm3SaBe8GivAi9kgsi4hK0LXhx+PWDMvcb76eWxsMm4eC94nEqeca/8cSGANmkMIuOaJNpk3Esf9vRqYuxV9EzCzvVmhSbjrLdXhXavDRM7rFxCOnVIvu0Z1/PVDm/nv0l4vV0wzYuM602OFm2OKZM7aJ74kfGDDm4oC7f3kse2n03G/ewSVO3exYKFiUeHL/fOyOshvWJ+uGc3vfnay3Twpw+lY044Mb2CZkiytf+9mPbv3193iYPIuFeouH5/SvSVTcbt96IOX7c96H5h6l7j1B0cDAgEHCDg4tvmQEx0CQSAABAoBAJVk3G7qnmQZ1yTZNsz7uW5tT3YQZ5xTcb9irWxbK88/nP6yuAbjcddFl+2Z1yT7LCeca03e8b9Kqbr/oKKuWlCGtYzrjHwm7VB3n37Hptge3miObKBLy8yru1ge/TteaJl9yPjvJGhPdt+nnFtP7+ohChPtYsFSxQvYBRZi9iWjzs74IADiqi6E51dzPcwglb7TOj3Y8t2HUph6pIvLkU7w3rGvWppsPz29yiMTmgDBNKMQFLPepoxgWxAAAgAgaQQCEXGvYQLkzMuntgwOeOc8y35zhKmHtUzLuTQq5q6X86yVy46e0uDyLjOTfbLGdf6cPi5DlO3F306z5vD1CWM315s6qrwMq5dtE5Xk9cbH5VyxrWNtU77Pthrcr65qJud8+9HxrU+cr8f/lHJuJ88QZ5xnTNu2yUoBNXFgqVa4pHUCyLN48o7SOZmmmXNgmwu5nsYvaM8E/q9rI+R1OHnNhnne5bNmGrqf3iFqXOhUKnrIe30xqrfcZVhdEMbIJBGBJJ61tOIBWQCAkAACCSNQNVknAUPWyVbnzstoX9e1dQlVFvCkqsh40IQdViyrspth2Db1dQlB75SmLpU7dZVzXlsHR5pV5jnqvFe1dR1Oz/POBMOP7z173WIuq6+zrKFDVO3q7afdOlQWrd0vilmpDcLvLDm39nnjFeaJ3Ismp9nnPuUysiMlZc8QWRcUhikar9tM7+H0MWCJQrxSPrl4De+Pa/0nKunzH65//yM8zzl4oZBaQj1lDULY7mY72H0jvJM+J0QIb9/59UXDOlmMi3fgHNvvYc2r1lhIqKkUKS0Y/l4c5VPb+gz4ge06bWXzFnlUgTOPokijD5oAwTSjkBSz3racYF8QAAIAIEkEKiJjCchcNJj2uH5ScuD8d0h4GLBEoV4uNOs+p5lY0VOE9AbMn4FAKsfrbo7eVNHTiQAGQ+PoYv5Hmb0rD8TYXREGyCQJgSSetbThAFkAQJAAAikBQGQ8YiWABmPCFiGm7tYsGSdeIQlurrwlkRK8FTg4/n4atK0GS2b8SNir3rv79xqjo5i76REjoin88NdfzftV8171LSV8+79PKRe59HbZ07LpoFEsbDnlFM67LPt7TFENr0BwT/bkSBZnfIu5nsYLLL+TITREW2AQJoQSOpZTxMGkAUIAAEgkBYEQMbTYgnIkToEXCxYskw8wuZoa8LORpWaAz0GXm/IuB0i/OlWnzVny3OhPg4t1ufOS1sh1M3bfK6ULiHebz6HnlMQdI0K+ZukvLAcUrtB8oL51AedOmJvNOjaB5tXryiNwX3JeFw4TNdUSN0kjiCQi/keZvgsPxNh9EMbIJA2BJJ61tOGA+QBAkAACKQBAZDxNFgBMqQSARcLliwTjzBk3KuNFNA6f/zP6OVHpxtbMzG2i/GJp1qTcWnLef/Sz7m3/piW3De+VFTQq5ikkPE927eZnOAeVw0nPgFAwuz7j5pq5GBSLTUl7EJfTLKl8KCeoEGkPctnUruY72Ee7Cw/E2H0QxsgkDYEknrW04YD5AECQAAIpAEBkPE0WAEypBIBFwuWLBOPMGRcyK6QXzZs3GT8zP8cT0/9f7eZsHJ9SRi5JsviNbcnGBPwFm2OKfOoazLO7TWJl/vt0HX5fdiigKmc6P8UysV8D6Nvlp+JMPqhDRBIGwJJPetpwwHyAAEgAATSgADIeBqsABlSiYCLBUvWiUelnPEkPOP25NEy2p5x3VZ74vm0Ai/PuNexaZUwSOVkDiGUi/keYljK+jMRRke0AQJpQiCpZz1NGEAWIAAEgEBaEAAZT4slIEfqEHCxYMk68QhTTb1SzjgbOmyYOh8txWHrkpvtImdccs01GZfz6L3C3bVHHTnjtT+2WX8mGAF+LubfOYLOuWky8dzBBQTSjICLb1ua9YVsQAAIAIE0IwAynmbrQLZEEXCxYMkD8bDPGWcj2cea6WrqdoX0KGSc20rldR0K7ldNnduLx1vkEsK8/rmFZj7Z1dT9yDiqqdfn8avlmWBb81zjAoBBx9hxmxZHtTN1Aypd9vwOUy2f+z/2lNNNHYMwl5aHdVg59xGzQZXlmgNh9EabdCDg4tuWDs0gBRAAAkAgewiAjGfPZpC4Tgi4WLDUQjzqpHYqhhEiLMQdJMW9WVzM9zBS1/JMxE3G7WKALD9HTLy1fGmsZDnK5kAYDNEGCERBIKlnPYqMaAsEgAAQKAoCIONFsTT0jIyAiwVLLcQjsgIZvgFkvP7GczHfw2gR9ZmQVAk5l15SCdgz7nXO/LurXjZH5vEllfN19IT2fHsRb5mLXQZcTg0tWplwdL5YbvbIS10Clscu5BdGHk57EM8498vH/3F6Bl8StcE6L7lvAjVpdmijv4XBGG2AgEYgqWcdVgACQAAIAIHGCICMY1YAAR8EXCxYohIPGAcI1AsBF/M9jOxRnomgY+y4cr4OWeef+Tpt6M3m9xKmrvO7mx/Z1pDfZq3bUI+B15ufj+7W0zecXR+NxyHpIg+Pwf+2z6YPI48OU182827atWWT8cLz2fZPThxOF02aZfTQ1f31OIgaCTPL0AZkHHMACAABIJBOBEDG02kXSJUCBFyQkyjEIwUQQIQCIeBivoeBL8ozIR7ifqOmmBxx+996PPZK73hnQyMybnu/hQyfed04euqeMcQecL/cb7tQmx0mX408fuOLR543B4484aSyAnHIMw8zs9DGD4GknnVYBAgAASAABBojADKOWQEEfBBwsWBh4vHNnz4JzIFA6hD4xdD+tH///rrLFUTG7UKAXCRNe5s1+T3o4IayEG9WRJ89L55xHTouynJ4+YAx95q+K3nGOVxcNgN0uLv01bp9F+PNFq+7hJz7ySPE+rShI2nuuGFm80A2A8Sjz2TcHhdF3+o+VXMzoItvW27AgSJAAAgAgTojADJeZ8AxXHYQcLFgYeJxzMm9sgMCJC0MAn95cUnqyLgNfpBnfN3SBWWF1oI84+Ixt/v3K9Ym1dI5ZzwsKbb78pMnrGc87LiFmbBQtGoEXHzbqhYGNwIBIAAECo4AyHjBJwDU90fAxYIlSkgubAME6omAi/keRv4oz4QO3eZjyvSZ9pqM7/tgLz1xyyDjYQ7KGZfz5CVPW+7rPOCKUt44k+jX5v6yVKxNk2I7Z1y3DStP2JxxkPEwswltwiCQ1LMeRja0AQJAAAgUDQGQ8aJZHPqGRsDFgiUK8QgtKBoCgRgQcDHfw4gV9ZnQ1dT7jPgBbXvzz3TGtWPNUEzA+Tx5Djs/6dKhtG7pfFMMbc2iOaaiulc1dbsCun3OuP67V064lkdC1Jnk636C5IlSTV2HxyNMPczsQhsvBJJ61mENIAAEgAAQaIwAyDhmBRDwQcDFgiUq8YBxgEC9EHAx38PIjmciDEpoAwTiQyCpZz0+DdATEAACQCA/CICM58eW0CRmBFwsWEA8YjYSuosNARfzPYxweCbCoIQ2QCA+BJJ61uPTAD0BASAABPKDAMh4fmwJTWJGwMWCBcQjZiOhu9gQcDHfwwiHZyIMSmgDBOJDIKlnPT4N0BMQAAJAID8IgIznx5bQJGYEXCxYQDxiNhK6iw0BF/M9jHB4JsKghDZAID4EknrW49MAPQEBIAAE8oMAyHh+bAlNYkbAxYIFxCNmI6G72BBwMd/DCIdnIgxKaAME4kMgqWc9Pg3QExAAAkAgPwiAjOfHltAkZgRcLFhAPGI2ErqLDQEX8z2McHgmwqCENkAgPgSSetbj0wA9AQEgAATyg4Ah4/lRB5oAgXgR2L8/3scjCvGQY5SaNDuUls9+wCg28KGF5uxkvvh84pmD+pifu10yxBzhxNeCu0bSER270ku/mU5bXl9pjnPa8c4GWvyT8ebIp6/d8RA1ND88XqDQW+YRSGqBHuWZqCfI/HzxOeZ4XuqJOsaqBwJJPev10A1jAAEgAASyhsC/7I+bbWQNAcgLBOqIQBTiIecX97hqOHU+7zJDDHZt2WRI985336bHRl5J/UdNpSM6dTUEvFnrNtRj4PXmZ7643ebVKwxhZ0Le8ewLzN+O7tbT9IcLCGgEklqgR3kmqrEYk2o+k/vM68bRU/eMoS4DLi9taEl/NvH+3w/30uJ7b6cTL/wW8ZnhcvEzyJta+sIGVzVWwT1JIpDUs56kzhgbCAABIJBWBEDG02oZyJVLBKIQDybj8+8cQefcNNkQAiEVQrKZYPDPBzZpMH9jojBgzL3m/0K4xbveb9QU4w3nv7U4qh3IeC5nV21KJbVAj/JMVKOhfm74WfG6wnrB+fnh67ShN5e6ee0PvzaRJ/p31ciJe4BAvRBI6lmvl34YBwgAASCQJQRAxrNkLciaeQSCiIf2uvUedht16nsxLblvAgmR1qRizaI59NbypSUyLqT77BvuMIRbvH8g45mfMnVTIKkFehQybm8maSKs0zYYNEnp8POMS+QJp3Lw88btJCTdKwWEibwXGdfP5b4P9tITtwyi9c8tNHbjfpmky8Ya/471Reh73aY1BvJAIKlnHcYAAkAACACBxgiAjGNWAIE6IhCFeNhEOopnHGS8jkbNyVBJLdCjPBP6GWDYOe2C53pDi1ZlUSRM0mWzilM17DD1lu06GNLcecAVpRQQIeN7tm8r9dX8yLalFBAm1V5kXH4nKSI6KkUiW1hWSSuRmg85mTZQI4MIJPWsZxAqiAwEgAAQcI4AyLhziDEAEPg/BKIQjyAyXilnHGQcsy4qAkkt0KM+E5rg6sgRra/XxpXOGWfyru/Vz9q6pQvKok50X8tm3t0oZ1yKJ9oh8Ht3vkfzJt5Ava4ZbUTTKSdRbYP2QCBOBJJ61uPUAX0BASAABPKCAMh4XiwJPTKBQFTi4RemLnniftXUQcYzMR1SJWRSC/QoqRvifeb5vWPTX8pyte3iakKSvTzjDLyulG6T8TmjB5fZRoq08QkFfPnlh9uh8q3bd6GLJs0y9/htHKRqEkCYQiCQ1LNeCHChJBAAAkAgIgIg4xEBQ3MgUAsCUch4LePgXiAQFYGkFuhRnwnJE2f9jj3ldFMZ3S7AVqtn3K8gm1eYuuDMnnAOfWeizjLZnnGQ8agzEu1dIZDUs+5KH/QLBIAAEMgyAiDjWbYeZM8cAlGJR+YUhMCZRSCpBXrUZ0IKr3261WfLCq6Jp/uggxsaHe9n54zLcYCS3833euWM8ykG+khBDlPny8szbpNx3jRYNmMqPOOZfSLyK3hSz3p+EYVmQAAIAIHqEQAZrx473AkEIiMQlXhEHgA3AIEqEUhqgR71meAzwLlwW7PWbUqkWH63fPYDxKHhvb9zK616crY5iWDbhrWe54zraup9RvyAtr35Zzrj2rHmCEAdbq7PEQ/yjDPsTMAlxP3cW++hzWtWlArMwTNe5cTEbbEjkNSzHrsi6BAIAAEgkAMEQMZzYESokB0EohKP7GgGSbOOQFILdDwTWZ85kD9rCCT1rGcNJ8gLBIAAEKgHAiDj9UAZYwCBfyIA4oGpkFYEklqg45lI64yAXHlFIKlnPa94Qi8gAASAQC0IgIzXgh7uBQIREQDxiAgYmtcNgaQW6Hgm6mZiDAQEDAJJPeuAHwgAASAABBojADKOWQEE6ogAiEcdwcZQkRBIaoGOZyKSmdAYCNSMQFLPes2CowMgAASAQA4RABnPoVGhUnoRiIt46KOb+MxxXECgVgSSWqDzM/HNnz5Zq/i4HwgAgZAI/GJof9q/f3/I1mgGBIAAEAACLhEAGXeJLvoGAhYCcZFxAAsE4kYgSTJ+zMm94lYH/QEBIOCDwF9eXAIyjtkBBIAAEEgJAiDjKTEExCgGAlHIOB+9xMchNWl2KPGRTXwNfGghte16qjl6ic9OPuGcf6dV839HfW+cROwhl3v4SCc5b9m+l/vRRzd59Sv98VFNO97Z4HmucjEsVhwtkyTjtyzfXRygoSkQSBiBpJ71hNXG8EAACACBVCIAMp5Ks0CovCIQlYw/NvJK6nHVcOp83mXEZxzv2rLJEO/Nq1cYMn7a/9/e+wdbVVz7vv2qkiLbXIQEL1d+mBJzE5WHCvJigSLRK6KRF3/k+KPiOaJgQalXnw+lRMQ8sPyxgyWaPI0YkohiEk8i76pUkQKB0mAgVhJFgwVqCklE0bcLFIqHaDxVeTX63DHPWL3nnGuun3OuNT/rHxdr9ewe/enu7fr2GKN71jy34f4F7vRrFrghR3/N33Os4tneiSzie03vHHfR4ic82ufuvdlNvWVJ9MyuLZsq6kWMd+sMTO5XXj/Qa1kT5RsVegyB5hPIa603vyfUCAEIQKDzCSDGO38M6UEHEahFeIiX24pmmyeuYvzMG+5wzz+40B017jR33Fnnu3X3zXMnTPuuGzLqWPfsbTO8R1s86f/26aHoO/m3fcXVixjvoEnVJFPz+oFey5popKvhemqkLp6FQCcTyGutdzIzbIcABCDQKgKI8VaRpV4IxBBIEx7iyd748J3+qcnXfc8df/Y/+TB1CTnvGfTlKDTdesbl/RsbVnlvuC0vdYgYf3vz+gorzr/70cjLrm1JgXEXX41nvOQzNq8f6O0S47K+jv7GN/3mVL0v3dTS1I9jTp3iLrhnuV+f8rLfT5o93x38sM+nmMh6lo2xWl5qrzzz1z/+tubna2mLsuUikNdaLxdlegsBCEAgGwHEeDZOlIJAUwjUIjxs/neaGN///rtetI8+92LX95fX/Y/2Q/s/dGt7b4rC163x4gmXH/oqItI84zbUvSkAqKSwBPL6gV7LmsgTnqwp2eAaM+1yv6ElL5v+IWkiUuaFhxa5M65f5L/X9yrWs9ov9VoB3oyNhKxtU677CeS11rufLD2EAAQgUDsBxHjtzHgCAnUTqEV4ZBXjYoyEp4sHTg94k8+skJa6JP/83PkPeNtVjOshb/KZetw1t/ywLw3x4kM8ibV69eoGxIO5EcjrB3qWNWFFrhW2KpAlAkS91B9/tNend8hL6pZNJ/lM5n/fW1ujclqPPcxQI0R0TX16YL/btnalX1f7dr8Te5ihntMw/tLZUTTKEV8d7XoOH+x2bdnshn79BPftO3/qXnlqmbP1HXn82GjdSnu6dsW7vnHpXe6kC6/yZzrIS9bva8885iZfe7s/qJEXBBohkNdab8RmnoUABCDQrQQQ4906svSrkASyCA81PKsYlx/nIgheX/3LxJBZqVND1G0orQgF+YG/bc3KKBxew+VF3BwzcYr7+6GDiPFCzqbmGpXXD/QsayJOjIfnIKgolnQN3XiSjSQV7Hp+gj0IUaJK9FyGQcNGenE8cOhwN2H6jdF7ea7amQu6uSUjohEpspml723durGVdsBiKLzjBHpzR5/aykQgr7VeJsb0FQIQgEBWAojxrKQoB4EmEMgiPJrQDFVAoGYCef1AT1sT4RV82inZWBo2+uSKMxXsJlZ48KFNy7CbXDs2rXN6k4BsamnKhj0YUULS08S4ra+aGJeDFqW+cIPA1i91xOWIE6pe85TmgQQCea11BgQCEIAABPoTQIwzKyDQRgKI8TbCpqmaCOT1Az3LmojzjIdnH1gxHh58uGLGlAoWEhEi1/y9v+0Vt2rBzIrvJCJk2sKlPpVDbiaodhtBLWJc67Ph9bZx2WSQl15PaL9DjNc0nSmcQiCvtc6gQAACEIAAYpw5AIFcCWQRHrkaSOOlJZDXD/QsayJOjIdpHGlifOvqJ/2ZCGG+tYa2h2cixHnCk8raz+3BiXFh6laMpx2wiGe8tMuwLR3Pa623pXM0AgEIQKDDCOAZ77ABw9zOJpBFeHR2D7G+Uwnk9QO93jURhnqLKJaQ8/GXzHKbH10SnYEQV07PV9DD3qbessQflqb55BqmruJZxjTraeppOeO2vqQDFnsGH9HvsDZyxjt1VRXT7rzWejFpYBUEIACBfAkgxvPlT+slIyDC419+sqZkvaa7nUDg57POdf/4xz/abmq9YlwM1VsC7CnpIrBtmHpYTkPU9aRym5euJ7LrLQNWPEs91e4Zz+oZj6vLHrDIaeptn4alahAxXqrhprMQgEDBCSDGCz5AmNddBER4fOV/O727OkVvuoLAO396sePEeFeAj+kE94x368gWo1+I8WKMA1ZAAAIQEAKIceYBBNpIoBEvYBvNpKkSEsjrBzprIn6y6YFt8m1cDnkJpyhdbhKBvNZ6k8ynGghAAAJdRQAx3lXDSWeKTgDhUfQRKq99ef1AZ02Ud87R83wI5LXW8+ktrUIAAhAoNgHEeLHHB+u6jEC7hIfk0tq7ljsRo+bn6t3MndiHTrI5rx/o7VoTnTQW2AqBVhLIa623sk/UDQEIQKBTCSDGO3XksLsjCbRLeDTjTuLwLuRxF18dez1UqwYizJuVduwBWXoAV6vaL1u9ef1Ab9eaKNt40l8IJBHIa60zIhCAAAQg0J8AYpxZAYE2EugU4RF3jZNeHRV3X3O7ECLGW0c6rx/onbImWkeemiHQXgJ5rfX29pLWIAABCHQGAcR4Z4wTVnYJgSzCQwTnCw8tcmdcv8j1DPpy1HPrqdYrmPSeZCkkdV9wz3Innz097wpnr3vSeuw1TurplmfX3TfPfXpgv9u2dqWbvny927f7HX9nsxXeGjau1z3FXSsl7UgbW1c/6QZ8caB76fEfOLF10qxb3ZreOd4mvcIprpzYL3WEV0iJTUceP9bbuWXlz5xeTzVo2MjoM+mHlBs5dqK/8kqutxow8HBf3n4n763t1uMfx+dzA3q6ZPaldyOvH+hZ1kQpBoBOQqBNBPJa623qHs1AAAIQ6CgCiPGOGi6M7XQCWYRHnBgPhbB4qfe9t9Mdf/Y/eeF97vwHvAhVwS7iV/4t4eoH+nZ7Ub3//XejPHIVsQOHDncTpt/oBa28l+ey5GqHnnPbzgfbX3UrZkzxwlgF9P7df/MbBXt3vult0vdSTsW5fC4vscG+F4EsQv6ixU+4w740xK3tvcmdfs0CJ2HqSeWkHuEy4co5bsx5l1Vw+OyTQ/3qGDxilBs2+uRYPmJPGV55/UDPsiZq5a8bPXFRHDJnZLxlXtTz0o2ec+bfX7FZZuuymzryuc5xLSM2bHz4TicbQaOnfsf9Yva0aIOpGekXYuNrzzzmTp05121+9D530oVX+fXCCwJCIK+1Dn0IQAACEOhPADHOrIBAGwmkCY/wB7yaJT/kRSiKpzcUAOFBbVKHil3xMFvhsGPTugpvtwqWM2+4wz3/4EKnB6WFwj8OTyhIrB2H9u2psMGKH/ucFebW1m/+9++5td+/yYty2VCw9gwZdWwkpEWYP3vbjNhyPYOPqDjAzooz2SwQz30o1MIw/DRB18Yp07am8vqB3mlivNqAyDx6ffUv/YaTjfKwm10bl94VCWQpL696NwdCe2S92PpVmE++9nZXliiPamNU9u/zWutl507/IQABCMQRQIwzLyDQRgJZhEecZzwU2WpyKIrjBL2GdL+/7RW3asHMit5KCPm0hUu9eNbw8yye8dAem8stYtyK3TQxbstpX1SMv715fYWtsinx1dPO7ifG48qFmxdWWL+xYVW/EHxpSERRHB8VVW2cJrk0ldcP9HrXhECqJVVCxlE2pHSMbbqERGjIK0zdEAEtHmx5Tb7ue37jJ9xQenFZrzu4t8+NOPEUN2nWPLfh/gVR5IYOpK6PiTPnuleeWhalTkyaPd/9bllvVL+82bNju08XsREjaoP1sNu1rmkrmiYS3kvejAMdc5mUNNoSAnmt9ZZ0hkohAAEIdDgBxHiHDyDmdxaBeoVHUmhsnBiP8/qq2JTQ9jDsOs4TnnRYm/6oF8+z9dSHnvGsYtx68VXgn3Pr/e63P7qzn6CRPljRH4as25mQxiXNMx7Hp7NmWP3W5vUDvd41kSVVIikFQsPU7byNS90QmhJBIXNGUyXkM537Et2hn0sYeFI0hd3gOu6s831aiG5+acqJpmdoWol4se06lDQTTUmxESLSrvWuxwnvuJsJ6p8pPNnpBDIAX4wAACAASURBVPJa653ODfshAAEItIIAYrwVVKkTAgkEsgiPuEfDXHD9kT7+kllu86NLovD1uHIaMquHvU29ZUmUby0//DVMXcWBil4JAR8z7fIofNaG30oZ+32YM55VjGtuuea3S71hzrh6PyUvPhQhNmfclgs3C6xIsrnzNu9c8u/t3ey2T2UI783rB3qzUjfSUiXs5szLv14W5YwnpSaEqRt2EygU4+GGUtJmmEaIVBPjugbiIlS0DhshYnPBwxB1/VtCqDr/S7IE8lrrjAIEIAABCPQngBhnVkCgjQTqFeNiYlxIrgjsMJfcltMQdf3BHhfa+vkv9FR46hRHeM+4DYVNsseepq452Wlh6n/61x/75ratfSoKERbhG56mrh5O/fy9P//BH+gWnqau5apFDCSdmp4U+tvGKZJbU3n9QM+yJrKkbqSlSqSJ8SypG2li3IrvLAfHVRPj6rUP14BODBsur7cmaHh9eDghYjy35VTohvNa64WGgnEQgAAEciKAGM8JPM2Wk0AW4VEWMmU7IK3o45rXD/QsayJOjNdyiKA94yD0jGdJ3cgqxm0567G2n+sGUlKYeijGbcRK0hzSUHe5GcEe3oYYL/qqy8e+vNZ6Pr2lVQhAAALFJoAYL/b4YF2XEcgiPLqsy4ndQYwXa6Tz+oFe75rIkjOu986H1+bF5YxrykJc6kZWMS4jmuU09bSccXvtmg2jF6+3poaEBxSSM16stVR0a/Ja60Xngn0QgAAE8iCAGM+DOm2WlkC9wqO0wOh42wjk9QO9kTWR9TR1DePWQ9EkND3uNHVNxQhTN2oR4zJgafeMhwcmhge4hXeg653kUq+GqKvo1xB727+4w9o4Tb1ty6gjGsprrXcEHIyEAAQg0GYCiPE2A6e5chNoRHiUmxy9bzWBvH6gsyaaO7LcM95cnt1YW15rvRtZ0icIQAACjRJAjDdKkOchUAMBhEcNsCjaVgJ5/UBnTTR/mPX09FNnznWbH73PnXThVf4GBV4QEAJ5rXXoQwACEIBAfwKIcWYFBNpIAOHRRtg0VROBvH6gsyZqGiYKQ6BhAnmt9YYNpwIIQAACXUgAMd6Fg0qXiksA4dH8sbEnZcvVarzqI5DXD3TWRH3jxVMQqJdAXmu9Xnt5DgIQgEA3E0CMd/Po0rfCEWiF8Mhyt/GY8y6ri0V4fVRcJXIAlb2rWU+wrqvBGh8K82P1cXsoVo1VlrZ4Xj/QW7EmSjuIdBwCGQjktdYzmEYRCEAAAqUjgBgv3ZDT4TwJtEJ4tFKMV2MVXuOk101NmnWrGzl2YrXHW/Y9Yrx2tHn9QG/Fmqi99zwBgfIQyGutl4cwPYUABCCQnQBiPDsrSkKgYQJZhIcI2hceWuTOuH6Rs2HXWa9x0uuZdmxaF3ms465x0uuQpFNy7/HAocPdxofv9H3UK5SsZ3zvzjfdi8t63cG9fW7Eiae4SbPmudV3XOdC4W03B7TuLSt/5utVr7nWO3zMeLd+ya1u6NdPcOfOf8DJFUxvb17fr31b7qLFT0SHUdkrpLQ/H2x/1a2YMaWiH3Hl5Jorae/vBw+4t3+/wfW9tdXZK6J0Y0HsUaYyHknjoFdWaV+VecOTpk0V5PUDPcuaaBMCmoFAKQjktdZLAZdOQgACEKiRAGK8RmAUh0AjBLIIjzgxrsJwzLTLnYSci4g80LfbnT13sVPxqeJPvpOXiGR5r/cWi4h87t6b3dRblrhBw0ZGAnzC9Bv9e3lpfWt65zgRvfJ68ZG73Tnz73cixvVzOZk5S652aKet9+l5V7gJV86J+vPG+meiNtVOaV/KHTflQt8f8Xjv2rLJ27n//Xdj+6Pl9r230z+T1G/lI/244J7l7uOP9vq2ZFPgyOPHeiYnTPuu9/Crp338pbPds7fNiDYgbP/e2LDKaZtJGyqNzJ1WP5vXD/Qsa6LWvrcyWiRL6kbaPePSF707XDZ/Rk/9jvvF7Gl+Q8puNFXrs71/XMvaTaNqz+v3af2Ji3TRO8vl+b/+8bd+LfDqLAJ5rfXOooS1EIAABNpDADHeHs60AgFPIE14hD/gFZmI7GGjT45EsXpnVbAe2rfH/7gXQanfqYB++dfLIjFuhax4hVWwnHnDHe75Bxe6o8ad5oWx/ABf23uTO/2aBf3EuG0nTfDIg+opVkGr/5Z2pD9qvwh7G1Yetm/L2e/e3/ZKJMxtf0SoW2Gc1G8p99KKH/o+iqCw9vYMPqKCt45FuAFhhYxEIqgY78TpntcP9E4T49XGNkzd0HklkSc6zzYuvSu6bkzKy6vWcx3sppvaVE96Ri1iXOa/FeAqzPNMSak2Hnzfn0Bea52xgAAEIACB/gQQ48wKCLSRQBbhEedVDUWgFaUixreuftJ7i0WU2h/XoRi3B61Jt8WTNm3hUi/mVTSniXHbTjXPeJJXTTz14eZCmhjXjQXZaAjFeFx/ZFPCCuPwgDntt5SzfKwYlzJ248GKcQ2B18+sR9N6K9t5kF0zpnBeP9DrXRPS5yKmbmy4f4HfyLL3euu8nThzrnvlqWVOUxkmzZ7vfres1w+fpIbIa8+O7W7b2pXORrpo+ohNfYgT43aD7LNPDvkoDkmz0PplM0DK2HST8ZfMcpsfXeKjX2SN2XQL8dzv3/03v4kg0SJ2E0H5v/bMY27ytbf7vz28OoNAXmu9M+hgJQQgAIH2EkCMt5c3rZWcQL3CI/Re2dDr0DNuRXIoxuM8t6EHO6sYTzqsTWyTH+inzpzrPe5JnnErsrN6xm2/xTOe5Im29aV5C20Yf1bPuN2QSJrOlqEVZUWe/nn9QK93TRQ1dSNuftiokOPOOj82BULTJjT9RMRtmJahaRTiiY4T4/qZpp5otEv498Kmm4R/W+JSYGRjSaJFQuGddJtBkec5tjmX11qHPQQgAAEI9CeAGGdWQKCNBLIIjzhzsggP9cRmyRkXgag/ujVMvVbPuNiZdJp6Um57XC66eOPSxLjNLU/KGbf9CcPUrRAJy0mYuubUWzE+ZNSxFbnh2m54aJ3tv934IGc8+6IqS+qGbvxUE+NCzqZNqKCWz+3mUVzOuD2A0I5AGEmTlNby+S/0VGwUhNEicTnihKpnn+tFKYkYL8pIYAcEIAAB5xDjzAIItJFAvWJcTMwakmt/kGuIdtxp6nrYU/gDPKtnXLGFYeA2lDY8YTw8TV1DY6uFqQ8YeLgP7Q0PqLJ59vY7/VxPhU8ql+QZF89jEm/7uQ1Rt6evCxvC1LMtrCxropNSN5IiJ7KK8XBzSEPalabO6TjPuCUenkGhczUtrUWetwcUWjG+b/c7sZEoiPFs87xIpRDjRRoNbIEABMpOADFe9hlA/9tKIIvwaKtBBW8sy8nVBe9Cx5iX1w/0LGsiTowXNXVDDz+MyxmXXHK9ySA8qT+8/SBMHwknUpoYD1NIsp4xgWe8Y5ZrQ4bmtdYbMpqHIQABCHQpAcR4lw4s3SomgSzCo5iW52MVYrx93PP6gV7vmuiU1I2409Tjrs0LxbiMvE3L0APZbAqIlIm7WiwU41LPS48/4K9OS/OMa8qIXh+o1yaSM96+ddiOlvJa6+3oG21AAAIQ6DQCiPFOGzHs7WgC9QqPju40xncEgbx+oDeyJoqaupF2z3jo8bYpGjZtQieNzQ3XEHX5rlqYuk0f+dbtD7oP3njVH6Yor6TbF+JOUx/wxYHu62f875ym3hGrOJuRea31bNZRCgIQgEC5CCDGyzXe9DZnAo0Ij5xNp/kuJ5DXD3TWROdMLO4Z75yxSrM0r7XeHfToBQQgAIHmEkCMN5cntUEglQDCgwlSVAJ5/UBnTRR1RsTbpQe2ybdxp6t3Vm/KaW1ea72ctOk1BCAAgXQCiHFmCATaSADh0UbYNFUTgbx+oLMmahomCkOgYQJ5rfWGDacCCEAAAl1IADHehYNKl4pLAOHRvrGRkFp7n3L7Wu7MlvL6gc6a6Mz5gtWdSyCvtd65xLAcAhCAQOsIIMZbx5aaIdCPQJGEh57UfOYNd7jnH1zoD3eS+7X1wKiTLrrK/S/uH+7E86/wn9f6Cu8fb+e923JI1sald7mTLrzK2Sum4g7IqrVftZa3h4zZZ+197FnrtId9hc/Yk7c/N6Ana5VRubx+oBdpTdQMjQcg0IEE8lrrHYgKkyEAAQi0nABivOWIaQAC/0GgSMIjTrwlidhax1Dqfn31L90F9yx3ckJzeNVSrfU1q3xeYvy5e292U29ZEm0M2Huf7WZBtX4ixqsR4nsIQKAaAcR4NUJ8DwEIQKB9BBDj7WNNSxBwWcS4CLUXHlrkzrh+kRey8tL7toePGe/WL7nVDf36Ce7c+Q94L/bbm9c7e+VR0nVPUo9euSTPHzPxLPfpwQNOPeOjz/6O27buf7gtK3/m2/znH6/2/1aPedo1Ui8u63UH9/a5ESee4ibNmudW33Gdv//YetSlbb1SSeqXu5a1LfWaZ+1nXDm5Q1mFrb1aatzFV7uz5y52b2xY5VYtmOn7pl7puHLiVRaufz94wL39+w2u762tTuuQ73RjQbgfc+qUaMMhiY98HorxuOut1DYZG+2L2LFnx3a3be1Kb7O89r23M7pbOm48pa94xvljAwEIJBFAjDM3IAABCBSHAGK8OGOBJSUg0IgYf3reFW7ClXPcmPMu82LxjfXPeNEmLxV7h31piHv2thluzLTLo3IH+nZ7Mbr//Xed1CEi/sjjx3oxLC8bpq6fiwC374eMOtbXqwJb2td6P9j+qlvTOycSkFlytZOeF3uy9FPLHTflQm+T9fJLP5XHoGEjfT8HDh3uy1nPuBXJceWkH+LZ//ijvf246QaFeqrHXzo7kY+1RzcLbNuH9u2pyG2390dbTiKwrWdcxX84nojx7H9IdFPnnPn3+4fW9t7kTr9mQUVqQ/ba/v3ub10XcRsiWdZGLe1pWd3c0c0tu0kkZez3k2bPdwc/7PMbYXYTL2u7nKaelVRxyyHGizs2WAYBCJSPAGK8fGNOj3MkkCbGrZfWmige0WGjT67wrlpRZkOe5bkXH7nbibgQr3oo+tQzLUJBPdVZxLjUaw9DsyJm7843K76zHvA4QRJ6hfXfR407raZ+Wm+zZfD+tlfcri2b/AaE7af8+6UVP3SDR4zyGxVhmL61W8rJSwS8tbdn8BEVfHWcQpFl+aiYFw+7fSXl0NuxtcJcnrXfhZyrca827fP6gZ5lg6qa7fV+30wxLnX94RcPelNO+ecbYgV9K8S4RmroBpy0L+3YDTIbbSPfh5E3Wflxz3hWUsUul9daLzYVrIMABCCQDwHEeD7cabWkBLIIj7QwdRXZSWI89LJmEalZxfiKGVMqRk3DqaXNUOSnnWIelz+uHmvZdLCbCVk3HcJ+asi3Gqyewpd/vaxCjGcpZ8V4uClhxXgSHykThqlbkKFXU75Tj2WY4255pG0mdFuYeitSN4SzRHtIusGoCf/NR0/8edXPfQrIt+/8qXvlqWXu0wP7fYqAbJxopEiYWqFjKeOhL5tKYMc6btNGIkFko8Z6s8ONFR33CdNv9JEe1q59u9+pSF2w9ogdGrUh/Tziq6Ndz+GD3a4tm2vuZ9x5ErIB8dozj7nJ195eV2pESf83kHu3EeO5DwEGQAACEIgIIMaZDBBoI4FWi3HpSqs841ZwhwLDfpd0WJv+cD915tyK09tDz3hWMW4Fro0AEM94khiy4jbtMDRbLqtnPIlPXM645ReK6tAzrp58eaasnvEkMZ4lpUFTN+JSLCSFQOeb8NUw9TBtQTdh5L9ST+h5tkJV2kvyPFsxrpsBcSklkvph51MoxjXtIowySRL+tm9iXz39lDpC4d2sAx/b+CeYppxziHGmAQQgAIHiEECMF2cssKQEBLKI8TgMNpxWws+TPMZpOeOffXIoymtuNGfcnpYuYeqhEE06TT1JeGhIbbiZkOYZt0IsKWdccrRtHq8NUw9FclI5K3jC3HltNzy0zvZfwtTTPOPWdh0jOfguzHEPxbjd9LDj2U05481I3QijRcIUgjQxLqkTktIQbjCFIjj0EGtedXgloBXjMi+ybpyFYlztShPjSSH4cWI8Sz9l/v31j7+NDg/Uv1NJfS3Bn/OO7SJivGOHDsMhAIEuJIAY78JBpUvFJdBqMS7iM8tp6kLoW7c/6D7atcNZT3XSAW4iKmy99sTvpFxlERA2DNzeqx2GZoenqVcLx1fRPmDg4f4gqvDAKivi7HdqU9xp6rZckmc85JB0mrrlU80zHp7OfvIls9yOTc/5nHe7eRCKcfm37aeOZ70hw3n9QM+yJhpN3UhLIUgT43pQnx0j+9dF51E416VM3OFoVoyHZy3YVIsw9SMU42pXs8R4ln5Kn+IiThDjxf3/TZJlea31ziOFxRCAAARaTwAx3nrGtACBiEAW4QGu6gTCSIHqT1CiGoG8fqBnWRONivG0FIKsYjzppPW4tAwrrLev+3+icwrq9YzrQX6aM67iOW6DRsc5LXomDFO3Yjypn+HhbdoOYrzayire93mt9eKRwCIIQAAC+RNAjOc/BlhQIgJZhEeJcNTdVcR43egSH8zrB3q9a6LW1A3NGQ9TCLKIcYFmT7a318rpd3INnqSQyMuegyD/Vo9yXEpCtdQNTT2RqIw4MZ71NHUV2XFh6lbcJ/VTbhIgZ7z56y6PGvNa63n0lTYhAAEIFJ0AYrzoI4R9XUWgXuHRVRDoTCEJ5PUDvd41kVWMh6kbNoVAhawMyLSFS73gfu/Pf4hOU7ciNUyt0BD18Po5HVwV/VqvpFPYtqVcWkqJ1Lvx4Tt9CsYxE6e4vx86GCvGrfhPumfceuqrifGkfnKaeiGXbV1G5bXW6zKWhyAAAQh0OQHEeJcPMN0rFoF6hUexeoE13Uggrx/orInOmU3cM945Y5VmaV5rvTvo0QsIQAACzSWAGG8uT2qDQCoBhAcTpKgE8vqBzpoo6oyIt0tzxOXbuNPVO6s35bQ2r7VeTtr0GgIQgEA6AcQ4MwQCbSSA8GgjbJqqiUBeP9BZEzUNE4Uh0DCBvNZ6w4ZTAQQgAIEuJIAY78JBpUvFJYDwaP7Y2BOq9QCt5rfS/TXm9QOdNdH9c4seFotAXmu9WBSwBgIQgEAxCCDGizEOWFESAq0QHkn3fAtSe192PYiznFoe3rGsd4bX016tz8QdKiV12Gudaq2z3vL2MC5bh71fPWvdafbbE7k/N6Ana5VVy+X1A70Va6JqZykAgRITyGutlxg5XYcABCCQSAAxzuSAQBsJtEJ4tFKMV0Njr4kSr3TcncvV6mjF93mJ8efuvdlNvWWJkxO85WVPsdbPsvQXMZ6FEmUgAIF6CCDG66HGMxCAAARaQwAx3hqu1AqBWAJZxLgIuBceWuTOuH5RdG+xVJZ0DZKK8QFfHOheevwH/iokufN4x6Z1btWCmd4O9c5K2RUzpvjPxl18tTt77mL/ft1989zAocP9VUrymnzd95zcy2w943t3vuleXNbrDu7tcyNOPMVNmjXPrb7jOl9O7kDWl90c0Lr1yiX1mmu9w8eMd+uX3OqvfDp3/gPek//25vX92rflLlr8RCR24/rzwfZXoz5qP+LKiVdZ2vv7wQPu7d9vcH1vbY2YyHe6sSD2KFPZcEgaB/k8FON6TZRekWWjCOw1V2LHnh3b3ba1K/1YyUvvppb3ar88c8zEs9ynBw/4scMzzh8aCECgVgKI8VqJUR4CEIBA6wggxlvHlpoh0I9AvWJcheGYaZe7Medd5kXkgb7dXpCp+Iy799iGqVuxOGjYyEiAT5h+o38vL61vTe8cJ6JXXi8+crc7Z/79TsS4fi5e3iy52qGdtt6n513hJlw5J+rPG+ufidpUUSvtS7njplzoRb8N0d7//ruR+LX90XIqZpP6LeXEPumHbF58/NFe35ZsChx5/FjPxIpoqW/8pbPds7fNiDYgbP+sPeoFt20f2rfHtydtiai391PbekRgW8+4in9rl44VYryxPzJJUSXhJkpjrfzH03ZTSD4NUxj0bnHZKBs99TvuF7On9bubPIstMmdee+Yxd+rMuW7zo/e5ky68KtrAyvI8ZbqbAGK8u8eX3kEAAp1FADHeWeOFtR1OIE2Mhz/Utavyg33Y6JMjUazeWRWsociz3uyXf73MDR4xygveMNdYhciZN9zhnn9woTtq3Gm+nA2tDsW4FZNp4fHyXCho9N/SjvTHepGt+Azbt+Xsd+9ve8Xt2rIp8hBbe97YsCryLCf1WzYeXlrxQ49ZhLm1t2fwERW8dSzCDQjLWsW8eNjtKymH3vbZCnN51n4Xcq7Gvd4lktcP9CwbVPX2qdpzrWIZ126Y0qHzTSJSdP5tXHpXJJylvLxkTdbyCs9RUGE++drbmxpJUYtNlC0WgbzWerEoYA0EIACBYhBAjBdjHLCiJASyCI+4MPVQBFpRKmJ86+onI1GaJsY1bF1xS/j1tIVLvZdWvcBpYty2U80zHpc/rp76cHMhTYyrZ15z0tf23uROv2aBEzEe1x8N0VfPeHjAnPRdw87tZoUV41LGbjxYMa5h/vqZhpvLv8MwdTuttX4N2ZfvNIw+PGjP8kjbTCiLZzwpdSPcwNKND/ncplTIxotELkjkg01HkKgSmdNhisfnv9ATRUbIXdq6oRVulKSljoQpHRvuX+DnrT07QNfaxJlz3StPLXM6NybNnu9+t6zXTx+ZI/KyaQwaHaNpJdbDLn0P7//Wu8FtOklJ/uTSzRgCiHGmBQQgAIHiEECMF2cssKQEBOoV4+Gp5mnhz1Ykh55xm4esuEMPdlYxnnRYmw2RFY+7ivzQM25FdlbPuO23iPG4/oSCKe0wNCuCs3rG7YaEnbJxOeP2+1BUh57xJMGHZ/zfD8ILz1EIeVu+IrJtSkV4kJ6O++DhX/HnC4iI19QE8VRr6obMXXnpmMt7TV8YMurYxJSFsP1q4fASLXLcWefHpkZoOoWmpWgag0aF6CaDpDGI2I4T3nECvQR/buliAgHEOFMDAhCAQHEIIMaLMxZYUgICWcR4HIYsOePqFQxzkVXkheJF85Q1TL1Wz7iK3tdX/zLKg65mZ1wuuni808S4zS1PyhkXb6PNu7Zh6kn91jB15WPFeCi0tN3w0Dobeixh6mmecWv7Z58c8kJOxJOKrSQxbjc9VDAK+zIc4JaWuhGGb1vBK2I4S0pFGN2h89CKcUlZsGcY2DMUbBvhYYdZ2pdx1I2BamJcytp0Ck0rCeuwoe76t4RQ9RL8z6WGLiLGa4BFUQhAAAItJoAYbzFgqoeAJVCvGJc6sp6mrqekqwdNQrnjTlPXUG0bkiviMKtnXPsVhoHbkNkwNDs8TV0OhqsmxkX8DBh4uA/htaeaS/tWrNnv9PO409RtuSTPuHBIOzVdw53tiejVPOPh6ewnXzLL7dj0nBfVkrueJMbDfn7r9gfdR7t2uGbnAOf1Az3LmkgKU9cDz3Qu6tzX8HPdsEi6mz30WMeJcXuY377d70TRGHEbBTofwtSRtNz0rGI83DSy6Q7Sf5nrcsCgpnHYcHjEOP8fsgTyWuuMAgQgAAEI9CeAGGdWQKCNBLIIjzaaU/imwvD8whvcwQbm9QM9y5rIco5C6BkPzzeISy/IIsZlY0ZFugzv0d/4po9oSBPY4XdJ983bz/VGgPAE/zByIu2k9/DwNp2OiPEOXpgtMD2vtd6CrlAlBCAAgY4ngBjv+CGkA51EIIvw6KT+tNpWxHirCf9H/Xn9QK93TdgQc43ukN7o9XzhoYY2hUBTOURY23JxnnEbJfGfjvgv/VIyRCyrYNeUDbkGMBT/WU5Tj7tOLymNQXPGNeXBXnuoGwY6uuSMt28ddUJLea31TmCDjRCAAATaTQAx3m7itFdqAvUKj1JDo/NtIZDXD/R614RNgZDwcAnb37ZmpZPUhzgxbMPK08LZ5VBAmzMuQju8hsx6nONSFpK85mFoe1xKRzXPuLZtQ/Q1HUO+4zT1tiyXjm4kr7Xe0dAwHgIQgECLCCDGWwSWaiEQR6Be4QFNCLSaQF4/0FkTzR1Z7hlvLs9urC2vtd6NLOkTBCAAgUYJIMYbJcjzEKiBAMKjBlgUbSuBvH6gsyaaP8z2esHNj97nTrrwqor7zZvfIjV2EoG81nonMcJWCEAAAu0igBhvF2nagYBzDuHBNCgqgbx+oLMmijojsKtbCeS11ruVJ/2CAAQg0AgBxHgj9HgWAjUSQHjUCKwNxTUf2N7b3IZmC9dEXj/QWROFmwoY1OUE8lrrXY6V7kEAAhCoiwBivC5sPASB+gh0mvBox2nm9v5toWrvSa+Pcm1PxR14lXQVVW011146vLNdarB3mWetMc3+pM2HvH6gd9qayDoGlINAUQnktdaLygO7IAABCORJADGeJ33aLh0BhEflkKsQ12uZ5FsRpHpt0+cG9OQyR/IU42Hf0+6zToKDGM9l2tAoBDqCAGK8I4YJIyEAgZIQQIyXZKDpZjEIZBHjIqReeGiRO+P6Ra5n0Jcjw+OuMgo911a4fbD9VX/X8YAvDnQvPf4Dd8ypU/wdyXon85HHjXUv/3qZ63trq9MrlqQ+uY9ZXmKrXBf1h5//qOK6KFuf3IG8pndORR3ybNw1UvK53KP86YH9btvalW768vVu3+53+glv9dzqFU9ik14fpX0QLtrXavbElRMOUoe9HkvsE5uOPH6st3PLyp9VeKUtf8vrxUfudgMGHu7Lax1yHZa8rO3W4x/HRzYe4jYi7Bjr2GlbWuf+99+tGLdzbr3f/fZHd7rTr1kQHdyl9o8+5xJv23+d/C035rzLovmV1w/0LGuiGKsXKyDQHQTyWuvdQY9eQAACEGguAcR4c3lSGwRSCWQRHnFi3IpsaWDj0rv8CcnyEjEodytbgXr23MVOxPiKGVMioS1iTF56h/L+3X/z4vzjj/Z6ITf1liX+exG+585/wImgtEJQ7m6W+qxg1TrkO6k/38uziQAAIABJREFUrG/QsJFe2A4cOjxqV96LiM+Sqx16zqWNA327ne1fNXvUbhXQykFssO+FsWwsXLT4CXfYl4a4tb03RWLWimQRvsqoZ/AR/v2EK+d4YWvt++yTQxV1yHeDR4xyw0afHPG2fMSeODFuP3tpxQ/9GElZZSPv1Q4dt9AzLnW8vvqX0fhYm3XC5vUDPcuaqPXPSlo0gY6D3Yiopf4sqRthuoHMUd2gqaWtpLLhnJB5FfZHGOiatJt6YZ1Sl9ytLvOola8wHUXbsnekN7N9u3kWpnrYTThp3/9NffjOulJkhJ+8ZF2/9sxjfgMzr4ierPzyWutZ7aMcBCAAgTIRQIyXabTpa+4E0oSH9ZZaQ0VEDh7+Fe/lFhFqf+hV84zbH+Na9qyb7vE/0u2BZXFCccjRX+snxm19VtRYO3ZsWlfh7VZhdOYNd7jnH1wYtRt6wOMGJ+yfeu5l4+DQvj0VYiPJHrtRIKJE6/zmf/+eW/v9m7wIEaFk7Rky6thISKtgzsIrLjIhHLNQcNtn3tiwyq1aMLMChY0GsF9Ye0WM64aKjFsoxkMBGidI8/qB3mlivNofEbvxIfPNbpo0S5BnSeUoqhjX9SYcs/wNqMY7/F7r1E0/+V4jVOxmlUYfSbSJbm7K2qnlpVfIqQBXYV7vRk8tbTdSNq+13ojNPAsBCECgWwkgxrt1ZOlXIQlkER5JYerW2xaGSSd5xq2AD8W4hoELKCvGrac99Izb+tLEeJygnLZwqW9H283iGQ8FhRWZIsaz2CNiPI6DivG3N6+vmCvC9qunnd1PjGtouBYWj9rxZ/9TYmSCCOu43Pe4Q9pUcIcbGeEktmHv+p14XUWM23GznNI2EzolTD1pTdSSwiBRG8JX56auobSUChF04jGVl3pwwzXx4rJed3Bvnxtx4ilu0qx5bvUd10UbPDpGdsNFIiaevW2G03kX1puU8qB2ipf3mIlnuU8PHvCbcxItoZ5xy0PqlWc0JcPOO/UUyxqSaBft39Hf+GbFWrFec1m7e3Zs9ykmNspE+ehn+vck5Ja0KRH+HUlLSdGNrTS7kjYudQx0jIT/f/7a/+r+8zHH+z7J659/vNptW/c/KlJpbNqKlLFRDmK7MNNNlqR5WrT/GSHGizYi2AMBCJSZAGK8zKNP39tOoBExrsaGHlErwqzHTMLUrSdbha2KYvX0WlEsoZbNEONxYa9xXrAkD5/+yA1FZugZzyrG4zjE5VUr4zgxazcvtFy1yIS4aIa0sOA0j2e4eZE2D7rNMx4ncrKkMCSlJljxqhEFcSkVMs6aEqEpDPKZrhHZ6NHPxatazRsdjqGdz1JvUsqDTY1Qcai2qRiXDSQR+XoYosx5FeNhdIhNz7DzMQzvD0WvpoiE5xtY+8QunffyXr3Okvoh9lnPuBXoEo0S2m9TUuxaSrMrKQ3BsrZpKDrusr6VrfWqp6WyJJ3tYQV62/8nk6FBxHgGSBSBAAQg0CYCiPE2gaYZCAiBLGI8jpT98Sk/6G3OuOYvhz/SNWdcPTlhzrj+mNfDvzRnvFExbnPQRaBoHrWGqVtRm3SauuY3i41Zf6Cnhalrrrt4sJJyxm0oqw1Tlz5YkayeTRE94eaFFTOWq3KQ/og33YaU2zzzJG+6PBcKOfWUVvOMhyJRxqdTcsbTUjfiNo6Ua5jCYDdN5NBCFeNJKQNhSoXd3AjFeLjRE7cBk/TXL6zXzou0lAf7nYrxtI20MGfc/j2pRYxLP5LOe9D1l+SZTsoZT4rySdt4C8W42iX/TRLjlnU1Ma4blaE3P9wAi8sR74RQdcQ4v0cgAAEIFIcAYrw4Y4ElJSBQrxgPT/22IaEafiqhp+Mvne0+eOPVyJv3p3/9sae6be1T0eFE8m89VE1DSVWwx+VoWy9gFk+0HiSn4a/hKe6hhzn8kR7mSFcLRdbQ1TQxHsdBvHtJXPXz9/78B3+gm4rptJDl8AA9qT/p1HT7ue1vtVxg+5wePKWHwiWFqWserB5oJe0dM3GKO+zLQzvmNPWkQw2tEE5LYUgT41lSKtLEuF0T1TzjsvbCDQYNGbciP5xL4SZNnBgXERx3RoSksISn8EtbGh5fixjXTYxw3eifbltnmA5QLXe+lpSUUIzbA+yaIcb1b1TaBkLSpgNivAT/I6eLEIAABJpIADHeRJhUBYFqBOoV49Xqjfs+6UTpVhyaVI997Xom7WTtdtnQCe3k5S3LsibixHgth/tZoRd6xrOkVGQV40mCUw/6+sbl11XklCfVG3czQij69d9ZPOPhWQRZPeNhFEkoxuNSN+xcDw9FDMPUbdlq4xluBMqzeiOCFeNJ6z3M29fbEuLC1K0Yt7cqhPbiGe+Ev2zYCAEIQKDYBBDjxR4frOsyAlmER7O6jBj/d5KI8WwzqshiPK4HWXLGwxSNULzZUOi0lIqsYlzsTDpNXdIaNK9b86al7EuPP+CjL+SVdE2hpkbIc0k548eddb6PeNEQa5szbsW41iUpG3qdnm5IyFqx1/uJeNZyocc5KXVD+qH12ZSauJxxO67VxjOrXVlPU88ixsU+uyERprKQM57tbwulIAABCEAgmQBinNkBgTYSaKcYb2O3aKoLCHSaGBfk1VIYBnxxoHvp8R9U3B+taR1xp6knpVTUIsZVkNvw97i0Ein3rdsf9Gkl4okNDysMN5FseLs899GuHf5O66TT1Kfc/H23929/cWdcv8jPTj3BXfp48iWz3I5Nz0XpLJJSoiHmYTrD3w8djPVAq1ANUzeSUj+qhamnjadtS9Ms0uwKbQvvGU86oFE3OqzHPy1FiNPUu+APH12AAAQgkDMBxHjOA0Dz5SKAGC/XeHdSbztRjHcSX2ztPgLcM959Y0qPIAABCLSbAGK83cRpr9QEEOOlHv5Cdx4xXujhwbiCEtAD2+Q0+7gc8iKanddaLyILbIIABCCQNwHEeN4jQPulIoAYL9Vwd1Rn8/qBzproqGmCsV1AIK+13gXo6AIEIACBphNAjDcdKRVCIJkAwoPZUVQCef1AZ00UdUZgV7cSyGutdytP+gUBCECgEQKI8Ubo8SwEaiSA8KgRGMXbRiCvH+isibYNMQ1BwBPIa62DHwIQgAAE+hNAjDMrINBGAgiPNsKmqZoI5PUDnTVR0zBRGAINE8hrrTdsOBVAAAIQ6EICiPEuHFS6VFwCCI/ijk3ZLcvrBzprouwzj/63m0Bea73d/aQ9CEAAAp1AADHeCaOEjV1DAOHRNUPZdR3J6wd6O9eE3hlt75HWgZRrql585G53zvz73d6db7qtq5/093B/bkBPTWNt7z6XB/X+bq1E7wuXu6/P/D/udM//399zfW9tddOXr3cjx07M3Jbclf3CQ4v8PeIv/3qZO/ob36zp+cwNUbDrCOS11rsOJB2CAAQg0AQCiPEmQKQKCGQl0E7hkdUmykFACOT1A72dayKrGO8Z9OW6JoUI7TW9c9xFi59wQ47+mq/jdz/5vjvQtzsS9noV1pjzLnNS/q9//K2bNOvWmtuTelWAW2Fer+01G8ADHUsgr7XescAwHAIQgEALCSDGWwiXqiEQEmin8IA+BGohkNcP9CxrIk5sqid7+Jjxbv2SW514mlUEi8i1nm0RwPve2+kmTL/RrbtvnjvyuLHemywe6fPvftSJME7yjAtDeWbLyp95nOrBlvLP3Xuz/0z6MG3hUi+8Q6+73QDYt/sdt2rBTP/M2Iuucq8+/Zh/P+7iq93oqd9xm5ff7w7u7XMjTjzFi/cPtr/qVsyYEpVRT720Hd5pbUV+LeNO2fIRyGutl480PYYABCBQnQBivDojSkCgaQSyCI+mNUZFEKiBQF4/0LOsiSQx/vS8K9xxUy70nmURo7u2bIpEbJoY37/7b+6Ce5a7jz/a6wX11FuWeFJxYeovrfih/07asJ5v+UzaP3f+Az483Ir50DstIl3r0I0BrU/tFOFtveoq9sW2QcNG+g2BgUOHR32V+mQTQV9xAr2G4adoiQjktdZLhJiuQgACEMhMADGeGRUFIdA4gSzCo/FWqAECtRPI6wd62prQ/OqwN+LNHjb65EhIS0i4CPa1vTe5069Z4A7t25PqGT9q3GmRkBWhPHjEKF9fKMYnzZrnVt9xnRfAIritl7tn8BEV7aeJcSvA08S42CKbBCLm7eaC5K1bb79sEIQ54oSq1z7ny/pEXmu9rLzpNwQgAIE0Aohx5gcE2khAhMe//GRNG1ukKQhkI/DzWee6f/zjH9kKN7FUlg2qtDB1OXBNxGstYtyGkmcR429vXl/RY90MUPEu7TdDjIfefA1p18aPOXVKYjg8YryJk7LLq0KMd/kA0z0IQKCjCCDGO2q4MLbTCUycfEandwH7u5jA7ze+0PbeNSLGNcRcPOM2rDv0jGuYuOaMq2dcPd3y7yTP+Ib7F3hvux7IpoBC8Z10OFz4eZpnPC60Pu5wN3t4m9qDGG/71O3YBhHjHTt0GA4BCHQhAcR4Fw4qXYIABCDQKQSyiPG4vugVYhOunONDzsOccc2/PuxLQ9yzt83wYeYqxqU+OQxt//vv1pQzrm1KnriEqVvPuNSZ9TR1OUwuLmfcinG7uSAbAfZU9jc2rPJIyBnvlFleLDsR48UaD6yBAATKTQAxXu7xp/cQgAAEciXQiBgXMTxg4OH+pHMJ4dZ8a+mQiNeND9/pPz9m4hT390MHY09Tt6ejxx3gJnXZ09TjTl+3B7ZVu2c8q2dcxb2epm77x2nquU7Zjm8cMd7xQ0gHIACBLiKAGO+iwaQrEIAABDqNQKNiXHPGO63fjdrLPeONEizv84jx8o49PYcABIpHADFevDHBIghAAAKlIYAYr2+obY643Jkenq5eX608VQYCiPEyjDJ9hAAEOoUAYrxTRgo7IQABCHQhgXrFeBeioEsQaAsBxHhbMNMIBCAAgUwEEOOZMFEIAhCAAARaQQAx3gqq1AmBZAKIcWYHBCAAgeIQQIwXZyywBAIQgEDpCCDGSzfkdDhnAojxnAeA5iEAAQgYAohxpgMEIAABCORGADGeG3oaLikBxHhJB55uQwAChSSAGC/ksGAUBCAAgXIQQIyXY5zpZXEIIMaLMxZYAgEIQAAxzhyAAAQgAIHcCBRVjMtd3nrvuL1HXEC9++rv3dbVT7ozb7jDPf/gQnfCtO+6kWMn1sxQ6tF7xOVhvcNcK9K70sddfLUbPfU77hezp7mhXz/BXbT4CTfk6K9lbk/vJT915ly3+dH73EkXXlXT85kbomBHEECMd8QwYSQEIFASAojxkgw03YQABCBQRAKdLMbPnrvYfW5AT11YX//Nr9zrq3/pLrhnuROx/2+fHnLr7pvnBg4d7ibNutX/e+PSuyLhLOXlNea8y2pqL6xHhfnka2+v2/aaDKBw4Qggxgs3JBgEAQiUmABivMSDT9chAAEI5E0gixi3d2qrl1pE5XP33uzNlzpE1H780V739LwrXN9bW90xp06JhK56sgd8caB76fEfRN99/gs9XgCrZ1vaWdt7kzv9mgW+XvGMDx8z3q1fcmuFRzrJMy42JbX/4rJed3Bvnxtx4ilu0qx5bsP9C3w71sOt7U+cOde98tQyt2Xlz7wdk2bPd79b1uvfT77ue/6/e3Zsd9vWroy86epFl++sh11s/esff+sFvr6kLPeS5z3z82sfMZ4fe1qGAAQgEBJAjDMnIAABCEAgNwKNiHERvufOf8CHiIuQffa2GV50yr9FcB7o2+3Ee/3B9ld9OLiKVPlOXhOm35gqxqX+46Zc6OsUz/SuLZui+sIw9SGjjk1tf03vnCi8XMV86FlX7/hR405zx511foVt0v6+93Z6W2zfxDNvbdv//rt+Q0C5xAnvOIGe2wSg4bYTQIy3HTkNQgACEEgkgBhnckAAAhCAQG4E0sR4mFOtRoqoHjb6ZO8Zn3rLEu9dlrIiPDXs2+Z87935Zux3Z910j/88yTNu67de80P79vTLGRfbsrafJMa1jsEjRlUV41JWw9nFuy8CXkPYxQ6tw4a6Kz9C1XOb7oVoGDFeiGHACAhAAAKeAGKciQABCEAAArkRaMQzbg9YixPuetiZimf1RKtQrybGbf1ZxLg9jE2AJrXfDDEuYlvEt3rTNaRdB1LC2cdfOjsKu7fh8Ijx3KZ7IRpGjBdiGDACAhCAAGKcOQABCEAAAvkSaKYYl9DxuEPVQq+5/nvawqUVnnHNQxdvu7ysZ9x+l+QZT2vffmeFfVzOuOSSDxo2MjVMPRTjcSe6h4e36UgjxvOd83m3jhjPewRoHwIQgMB/EMAzzmyAAAQgAIHcCGQR43HGhVePhTnj9rRyCVMXr/X05eujfHKpU3PG9QRzeealxx/wud3yktzrCVfO8R7oWnPGw/ZDoZ7lNHV7uFyYM65iXOy0tn32ySGfuz5m2uXebnLGc5vahW0YMV7YocEwCECghAQQ4yUcdLoMAQhAoCgEmiXGpT/2NHN7H7d4wv/0rz/2Xd629ikn93bbkHU9AX3Kzd93u19/OfY09bjT2cN7xtPaj/Oap90zruHn6vFOE+PSL3uauoSo6+npnKZelJleHDsQ48UZCyyBAAQggBhnDkAAAhCAQG4E6hXjtRiclqNdSz2dWJZ7xjtx1FprM2K8tXypHQIQgEAtBBDjtdCiLAQgAAEINJUAYrypOGMr0xzxU2fOdZsfvc+ddOFVFfebt94CWigSAcR4kUYDWyAAgbITQIyXfQbQfwhAAAI5EmiHGM+xezQNgcIRQIwXbkgwCAIQKDEBxHiJB5+uQwACEMibAGI87xGg/bIRQIyXbcTpLwQgUGQCiPEijw62QQACEOhyAojxLh9gulc4Aojxwg0JBkEAAiUmgBgv8eDTdQhAAAJ5E0CM5z0CtF82Aojxso04/YUABIpMADFe5NHBNghAAAJdTgAx3uUDTPcKRwAxXrghwSAIQKDEBBDjJR58ug4BCEAgbwJ5inE5ZfzFR+5258y/32NY23uTv2N8yNFfy4zl0P4P3bO3zXBvb15f8Yy95zypMnsvuZax95lnNiKloO3j3p1vOrnvPLwfvZF27P3mYZ/1rvQtK3/mJs2e7w5+2Ofkvb0HPWvb0s7R3/imL/7XP/42ukc96/OU+w8CiHFmAwQgAIHiEECMF2cssAQCEIBA6Qh0ixifNOtWN3LsxJrGT4Tyc/fe7KbesiTaABDRKS+pr9kvvW+9GWJchfbAocMjW3Vz4dz5D3gWslHxwkOL3BnXL/Jd0fc9g75cU9fEbivAVZjXyrumRru4MGK8iweXrkEAAh1HADHecUOGwRCAAAS6h0AWMW5FnQo59fgOHzPerV9yqxOvrIhAEWripbbeV+uBVs+zEFSP9qgJ/82JqPzzqp/7er5950/dK08tc58e2O+2rV3ppi9f7448fqxbd98879mVl3ymglPqSRLjaueAgYf3ezZOjKtgPnvuYvfB9lfdi8t63cG9fW7Eiac4/WzFjCnehnEXX+0/k5fYdsK070Y2qZdfvlPvf5JnPI6PcBZb/vSvP/b1b1v7lGdz0eIn/MaBtfNzA3qiCamfT5o1z62+4zo/Fkd8dbTrOXyw27Vlc818RfRvXHpXxd3oem/65Gtvd7bt7lkVre0JYry1fKkdAhCAQC0EEOO10KIsBCAAAQg0lUAjYvzpeVe4CVfOcWPOu8yL8DfWP+PForzU43zYl4Z40a1iWcod6NvtRez+99+NDVMfNGykF7fW62s91iI41/TO8W2F9YdwVOhaO237cZ7xwSNG+T7ZdkQAW8+zbg6IjROm31i3GB8y6ljPZ8y0yyOOap9sBojwt5sRykR4qJ22z3aDQdjopoB9Xwtfqfu1Zx5zVnjHCfSmTsourwwx3uUDTPcgAIGOIoAY76jhwlgIQAAC3UUgTYyLGFUvsO31+Xc/6oaNPrkixPv13/zK7Xtvpxfd4klXEXho3x4v1C+4Z7kTb6/Nof74o72pYvyocad5gap54SroNURbPNEqZsOccfVai+C3gtt6lOU72VDoe2tr1D19Tjy+UtbaHnqj9ftpC5f6cvV4xnsGHxExUD5qb8jOMk4S45Z9NTGeha+AicsRJ1S9/r8DiPH62fEkBCAAgWYTQIw3myj1QQACEIBAZgKNeMY1/FpEZJoYDwW9hluLkXEHuKnn1orbuEPaZFPgq6edXeF5Dztuxb+GfsshauqZDz3jVoBrWLmUFXEufdy1ZZN/Vv6tdZ910z11i3Gx1wr+cCNDbdX2dcOjGWI8C1+xT9u0bBHjmZdYv4KI8frZ8SQEIACBZhNAjDebKPVBAAIQgEBmAu0Q41ZQWsOSTlOPE+NJJ62HXvNGxXiaGM7qGbeh4nbDIS5nvJpnPEmMV8sZlw2Dzz45lBqmHufJD0+yDw9vU76I8cxLDDFePyqehAAEINByAojxliOmAQhAAAIQSCKQRYzHPRt6nJM842FOt5R7ffUvfdh6tTB1FYvSvs0Zt7nbGqZe7QA3uT6tUc94tZxxzeeWPr70+ANR/nzaAW7VcsaTxHjW09TTcsaz8JXNAnLGm/v3A894c3lSGwQgAIFGCCDGG6HHsxCAAAQg0BCBVotxe/CZ5GbbE8HVqy0d0Lzr9/78h+g0dSsW7Z3ZUl5C1G0+eZgzLmXk4LPQ81wtZ7zaieU2j97ml9sT0afc/H23+/WX/Z3p8mrkNPUkMa6DnnbPeFL+eBh5IHUl8eU09YaWV+zDiPHmM6VGCEAAAvUSQIzXS47nIAABCECgYQL1ivGGG6aCjiHAPePNHSrEeHN5UhsEIACBRgggxhuhx7MQgAAEINAQAcR4Q/hK87DmiEuH405XLw2IJnQUMd4EiFQBAQhAoEkEEONNAkk1EIAABCBQOwHEeO3MeAICjRBAjDdCj2chAAEINJcAYry5PKkNAhCAAARqIIAYrwEWRSHQBAKI8SZApAoIQAACTSKAGG8SSKqBAAQgAIHaCSDGa2fGExBohABivBF6PAsBCECguQQQ483lSW0QgAAEIFADAcR4DbAoCoEmEECMNwEiVUAAAhBoEgHEeJNAUg0EIAABCNROADFeOzOegEAjBBDjjdDjWQhAAALNJYAYby5PaoMABCAAgRoItFOM6x3fZ95wh3v+wYXO3iOuJksZObn7gnuWu55BX66hJ/3vyj7m1CkV9di7tCfNnu8Oftjntqz8mZt83ffcpFm31tQWp4vXhIvChgBinOkAAQhAoDgEEOPFGQssgQAEIFA6AnmI8bPnLnafG9ATy7peMX5o/4fu2dtmuDHTLndjzrvM1y11remd4y5a/IQbcvTXnJR54aFF7ozrF/nv9X2top97t0u3TJraYcR4U3FSGQQgAIGGCCDGG8LHwxCAAAQg0AiBLGLcilgVruIZHjxiVCR8X//Nr9y+93Z6D7OI1RUzpkRmTV++3o0cO9F/vnX1ky70jO/961/c0/OucH1vbfVeaimnnnFb17iLr3Yi5OW17r557tMD+922tSud1L9v9ztR+5aH2jX+0tlerL+9eb074qujXc/hg92uLZvd0K+f4L5950/dK08tq6jvyOPH+jbEcy4v7YN41zcuvcuddOFVXuDLS+x/7ZnH3ORrb0/cZGhkjHi2uwggxrtrPOkNBCDQ2QQQ4509flgPAQhAoKMJ1CvGVVhbcSxh5z2Dj3DP3Xuzm3rLEi9WRQzv2rLJi+gPtr/aT4wPGXVshUdbRL6K8Y8/2hvVNWjYSC+OBw4d7iZMvzF6L+Jfw8+rhb3LQK3tvcmdfs0Cd9iXhkTvbd0ari52yEs3F9TDLp+FwjtOoHf0pMD4lhJAjLcUL5VDAAIQqIkAYrwmXBSGAAQgAIFmEkgT46GHW9s9/+5H3bDRJ0dCWT5/8ZG73Tnz7++X521Fe5wYF/FunxUvs/57x6Z1kZCXsPbQs37UuNO8Zz5NjNv6qolxrU9D3kWIi0ff1i91/PWPv+2XY6455FKeFwTSCCDGmR8QgAAEikMAMV6cscASCEAAAqUjUK9n3ArUMERchOnGh++MWGp4eZwYl0L2wLZQjK9aMLNiTORQtmkLl/pn1BPeLDGu9akYl5B2+5JNCHlpOL79DjFeuqVTd4cR43Wj40EIQAACTSeAGG86UiqEAAQgAIGsBOoV41K/5mPL+6O/8c0oL9yK60Y943HCN05825x123f7uYjstDB1K8a1nOaFa53h4W36OWI864yjHGKcOQABCECgOAQQ48UZCyyBAAQgUDoCWcR4EhQ9eO0/HfFfKg5cUzH++S/0+NxueSXljOtBaRoinpQzLqJYvjvQt7vfAXBSf9bT1LOIcanP5oxrP8+d/4DPiSdnvHTLpKkdRow3FSeVQQACEGiIAGK8IXw8DAEIQAACjRBoRIyrh1oOVdODz+xd3nJSuZwwvm3NSp9Pvnfnm1VPU59y8/fd3r/9xV8/Jie327x1vTdcRX54YJttW5iE94xn9YzLs2FdEqKu+emcpt7IjONZxDhzAAIQgEBxCCDGizMWWAIBCECgdAQaEeOlg/U/O8w942Ud+eb0GzHeHI7UAgEIQKAZBBDjzaBIHRCAAAQgUBcBxHhd2HwYu+TJyyvudPX6auWpMhBAjJdhlOkjBCDQKQQQ450yUtgJAQhAoAsJIMa7cFDpUqEJIMYLPTwYBwEIlIwAYrxkA053IQABCBSJAGK8SKOBLWUggBgvwyjTRwhAoFMIIMY7ZaSwEwIQgEAXEkCMd+Gg0qVCE0CMF3p4MA4CECgZAcR4yQac7kIAAhAoEgHEeJFGA1vKQAAxXoZRpo8QgECnEECMd8pIYScEIACBLiSAGO/CQaVLhSaAGC/08GAcBCBQMgKI8ZINON2FAAQgUCQCrRDjcvXX1tVPurPnLnafG9BT0V05hXzwiFH+zu56Xnv/+hf34iN3+3vL5R7y8CXfPz3vCtf31lb/1biLr47sqPas1tXsclKJzBUUAAAcUklEQVSvvS9d/q33ltfDIO4ZqV/YXnDP8ug+95C/3p1+1LjTUvln7X8zbH/9N79yqxbMrKhK7qe/aPETbsjRX2tGE1Ed1cZA+G18+E4/Z0ZP/Y77xexprh5bhN9rzzzmTp05121+9D530oVXVfQFMd7UYaUyCEAAAg0RQIw3hI+HIQABCECgEQKdJsbT+qpC/Nz5D7iRYyf6oiKwDvTt9oJ8//vvpgr5VolxEYFreudEAjOrKK5lXK0Yj9ukkLqytttuMb5ry6aKjZu0zZxamNiyIvpfX/1Lv1khfJTFwKHD3aRZt/p/b1x6VyScpby8at00CutRYT752tujjSnEeL2jyHMQgAAEmk8AMd58ptQIAQhAAAIZCWQR44f2f+heeGiRO+P6RRXeaOuFPubUKZHQUTE14IsD3UuP/8Dpdzs2rYu8oOoZtt5K9WKL6evum+dEKImnUl6Tr/ueF01WKO7d+aZ7cVmvO7i3z4048RTvzfz9Yw9EdshzUv65e292k6/9v9yLj9zp3t68PrJHnl8xY0pEavry9W7IqGPds7fNiMqJiPrDz38UeeK1b5NmzXOr77iuor6Xf72sn71JAjgUvNZDbL2xspnw94MH3Nu/3+C9/aGnX6MAhI/YFucZV4/v6HMu8X39r5O/5UVm6Cmupf+yufHB9lcr+OtnyjTJVts/6XcoxkM2ar/YrvMmLGMFfGiXjNWG+xe4069ZUOGhlnm9tvcmN3HmXPfKU8vclpU/83wmzZ7vfresN5p38mbPju1u29qVUftxNkk5sSO8d17vpNcNIsR4xj9OFIMABCDQBgKI8TZApgkIQAACEIgnUK8YFyEjonXMtMu9sLMeaBFDIshUOMl3XuTMutWX0zB1FcpTb1niBg0bGQnwCdNv9O/lpQJPPcvymYapi5i2Hme16f/b8//GhjlbAffxR3u9SJe2JRzaikLrQZdyNizeij5bTmzR0HyxUb2s8t62EzcKoVc75KUiW2wR8S2ef900sPzjxPgbG1ZFHmF9fsKVc9yw0Sc33H8ZZ8u/2nieMO27PmLBCtY4MW4/i7Nf+t8z+IjEcQntSvK0242S48463885tVFs2PfezmjOanSFpF2Ec0XHRPoWCu84gY4Y568xBCAAgeIQQIwXZyywBAIQgEDpCKSJ8dBzqnBEZIuYsyLVCrFD+/ZE+csSEmxFsHiPVYyHQkxF05k33OGef3Ch09xm9WCKZzMU45onbUOzk7zMaeHXSSK7HjFu8+TrCfkOhaBuZKh4FMEYitEwYkA3Bl5a8cOKHP2knP16+i+i1/KvNp4qdO0ii8sZt1EWob26UXH82f+UKsatXVnOMKgmxsMxsHn3aqPUYUPdtZ9hqDpivHR/ZukwBCBQYAKI8QIPDqZBAAIQ6HYC9XrGQ2+uFcwixu0BbmliPDy8S4TYtIVLvchT8ZYmxpMOitNxs3aGwtqGGkt5DauuxzMumwFWWNpw6mqecRXZGiYttmhYvhWjVoxLGSs448R4uKmhz+hmSKP9FzFu+acJa2nbhv9r7nacZ1zHLi7EXzcqqolxa1czxLgyixsrHa/xl872Ye9hODxivNv/itI/CECgkwkgxjt59LAdAhCAQIcTqFeMhx7fNM+4FcShZ1xDgS1GKzol9DerGI87dCurVz2rZzgpnN165q39Rx4/1oc/hyeY2zx8yaW3edOhZzwUgs3wjA8e/pUKMV9P/+PEeNx4hkvEtiVh6GHOuC2f1TNuxyW0y84Be0K7/VzTJJLC1OPGQHPA7eYBnvEO/4OI+RCAQOkIIMZLN+R0GAIQgEBxCGQR43HWZskZlwPBNI9W6kjLGReRpHnn6tGt1TNuNwRUdNlTtK1nXHK81bP8+S/0VOSoh55xzQlWYS19CU9nF0GtQjQ8UTvpNHU9ydsKyc8+OeQ9yMIt5JUm8qUvcTnjNpTc5oxbMV5v/0PRG/LX8QwPUKuWM27nWzh+OhYSpp80LqFdUl+W09TTcsbtdXxx42Vz94/+xjej0/yl7fBQN8LUi/P3D0sgAAEIIMaZAxCAAAQgkBuBesW4GJz1NHV7qraGMsedpq65wioOaxXjoU3yb5t/rBsI8rmGwktouJzuLaemb1uz0p+aLi8RxPKScGo9BV7KSSjyB2+86sW4CuewPvl3eI94mH+vYehSVu3Sk95PvmSW27HpOd+GzfkOIwYs/yk3f9/t/dtf/In39jA5yV/XcHRhcczEKe6wLw91miPdSP/jRK/tZ3jCvp6ybj9PC1PXRZF0crnOpXBc4uxSUWxPz7djFLJNik6Is8mOJaep5/anjIYhAAEI1EUAMV4XNh6CAAQgAIFmEGhEjDejfeqAQDcR4J7xbhpN+gIBCJSBAGK8DKNMHyEAAQgUlABivKADg1kdS0APbDt15ly3+dH73EkXXlVxvzlh6h07tBgOAQh0IQHEeBcOKl2CAAQg0CkEEOOdMlLY2S0EEOPdMpL0AwIQ6AYCiPFuGEX6AAEIQKBDCSDGO3TgMLtjCSDGO3boMBwCEOhCAojxLhxUugQBCECgUwggxjtlpLCzWwggxrtlJOkHBCDQDQQQ490wivQBAhCAQIcSQIx36MBhdscSQIx37NBhOAQg0IUEEONdOKh0CQIQgECnEECMd8pIYWe3EECMd8tI0g8IQKAbCCDGu2EU6QMEIACBDiWQpxiXO5m3rn7S36ct92E38yUnWr/4yN3+3vCeQV9uqGq9g1ru5JaXvSdb/m2/nzR7vjv4YZ+Tsvb+6YYMcM7fFX70N77pq/nrH3/rJs26tdEqeT4nAojxnMDTLAQgAIEYAohxpgUEIAABCORGADGejv7Q/g/ds7fNcGOmXe7GnHeZLyybCGt657iLFj/hr6ySMi88tMidcf0i/72+b3QTQC2T9qwAV2E+cuzE3OYNDddPADFePzuehAAEINBsAojxZhOlPghAAAIQyEwgixi3YlMFpnien7v3Zt+O1HHBPcvdxx/tdU/Pu8L1vbW1n/dYyut34y6+2nvDP9j+qveMD/jiQPfS4z+oeCb0Rk9fvt6J+IxrV2wQwfz25vVRHWKLeMaHjxnv1i+51Q39+gmReFZBvWLGFG+/2iPv1903z316YL/btnalkzb37X7H7XtvZz9P9Ou/+ZX/fPyls6O2j/jqaNdz+GC3a8tm39637/ype+WpZRX1HXn8WN+Getm1X2F/z7/7US/+5fONS++quKta77GefO3tTY8oyDxxKFg3AcR43eh4EAIQgEDTCSDGm46UCiEAAQhAICuBRsS4iOtz5z/gRbJ6kCV8Wv4t3tsDfbu96P7sk0Nube9N7vRrFnhPsnw3eMQoN3j4V5wIYhGkKlIHDh3uha+UkZe8t55o+cy2qyL2hGnf9e2qSD7+7H/y5SZcOceLWmvP/vff9RsJU29Z4gYNG+nFsbQ7YfqN0XtpN6zbMhWbpE7ZhJCX9u+wLw2J3tu6Naw8qV/vb3slEv1280M2FV575jFnhXecQM863pTLnwBiPP8xwAIIQAACSgAxzlyAAAQgAIHcCKSJcRGc6j22BorXdtjokyNBKwLbilPxntuc7b0734zNDQ+fCb3NKuytKO4ZfERFu0m54epBF8Gt9ml++hsbVrldWzZFueqau37mDXe45x9c6I4ad1rklRahrkLfMrDtVhPjWl+4YWH7leSBD0PU1QZC1XNbMg03jBhvGCEVQAACEGgaAcR401BSEQQgAAEI1EqgEc+4PSAtTrhraLh4fa34VRvDA9ziQr/jNgHCdtVDbXO0Q5Fu2xIxvmrBzApUcijbtIVLvbdbxXeaZ7wWMa71qRiXcPqwX+q93/jwnf4rDV9XJuGBbYjxWmd6ccojxoszFlgCAQhAADHOHIAABCAAgdwINFOMJ52MnnRqepoYt2HtFk4ostM846Fot57xuDzwOPGdJIbt5yKy08LUrRhP6pfto63v0L49saenI8ZzWzINN4wYbxghFUAAAhBoGgHEeNNQUhEEIAABCNRKIIsYj6szFMFhCLaI1ddX/zI62E1ztDVnXOqUq7qsgLcC1+ZW6+Fvkp8uYepWZMe1K1748ZfMcpsfXRJdbWaFv80ZV3skv13D1G1YetbT1LOIcelzUr/ktHTJoxcPOTnjtc7iziqPGO+s8cJaCECguwkgxrt7fOkdBCAAgUITaJYYl07aE9OznF6up6nrPeNWjCedLh7nCbft6h3gepq63jMeeuFtWL0+8/kv9PgD3MIc8Wr3jGf1jAujpH6FIez2lHVOUy/0EqrZOMR4zch4AAIQgEDLCCDGW4aWiiEAAQhAoBqBesV4tXr5vnkEuGe8eSyLUBNivAijgA0QgAAE/p0AYpyZAAEIQAACuRFAjOeGvqaGNUdcHpKQ9vBAt5oqo3CuBBDjueKncQhAAAIVBBDjTAgIQAACEMiNAGI8N/Q0XFICiPGSDjzdhgAECkkAMV7IYcEoCEAAAuUggBgvxzjTy+IQQIwXZyywBAIQgABinDkAAQhAAAK5EUCM54aehktKADFe0oGn2xCAQCEJIMYLOSwYBQEIQKAcBBDj5RhnelkcAojx4owFlkAAAhBAjDMHIAABCEAgNwKI8dzQ03BJCSDGSzrwdBsCECgkAcR4IYcFoyAAAQiUg0ArxHh4p7clKaeCDx4xyo0577K6AMfdM64VyXfP3Xuzm3rLEjfk6K9F9Wubx511fuw94tYQe2e4raOasWl2VXs26/f2bnR55vy7H63gKP3c+PCdbtzFV7vRU7/jfjF7mgvve8/aVlw56eNrzzzmTp05121+9D530oVXVXBupO4yPYsYL9No01cIQKDoBBDjRR8h7IMABCDQxQQ6TYynDUU1MZ5lA6BeMd7qKfL6b37lXl/9S3fBPctdz6Avu3/79JDfWBg4dLi/5kz+vXHpXZFAlvLyytLnLLaH9aswn3zt7e5zA3qyVEGZ/0kAMc5UgAAEIFAcAojx4owFlkAAAhAoHYEsYlwE6gsPLXJnXL/IC0F9iSB7et4Vru+tre6YU6dEQlE94wO+ONC99PgPou92bFrnVi2Y6R9Xr6719opH9+y5i/33KjTF0yuvydd9z4tO64Heu/NN9+KyXndwb58bceIpbvwls9yGHyzI7BlXT7LWP2H6jb7dLSt/FnmUBw0bGX0m5aYvX+9Gjp3o7RAvvLyEoYjSP/z8R+6c+fd7RiKGpa/imR5/6Wz3wRuv+r69tOKHUWSACuoTpn03qjOOZ9IGgX4+ceZc98pTy7zd8po0e7773bLeiJu82bNju9u2dmXE3fbdetjteIRjGt5vrnefCw9e2QkgxrOzoiQEIACBVhNAjLeaMPVDAAIQgEAigXrFuAjBZ2+b4cZMu9x7X0WYHejb7QXnB9tfdStmTKkQfl4kzrrVl9MwdevJVtErnl4VxfKM1remd467aPETvh8vPnK3F70ixvVzCSmv5hm3YepSz9bVT0biX73Kh31piFvbe5M7/ZoFPgQ77Je1Q4TzufMfiIS02vXxR3ujcHntl/YlSYwPGXWs5ymMRNyG7aqt1gutYv6ocae5MARfNgP2vbczYq5jI8/Ld7u2bPJ93//+u35DRfohNti+W+96nPAW4R4KdJZadQKI8eqMKAEBCECgXQQQ4+0iTTsQgAAEINCPQJoYD3OU9WHxpA4bfXIkisUTbIXwoX17vJjUkGrrzX7518siMW5FoYhE9aifecMd7vkHFzoRmSL0rWc4FONhO+pZDjsqNieJcStwbVsqpNVzbcWv9N/mp9s+SgSAil3brzTPuNibxEw2HeLEuD4jmxvVxLhuhtg+aAi7bpB89bSzK8S4MgxD1PVzQtXr+4OCGK+PG09BAAIQaAUBxHgrqFInBCAAAQhkIlCvZ1yEsxWPVsSKGLfiMU2Ma9i6Giuh0dMWLvV1qwhOE+NhO7Uc4Kah5NK2hmrbtsRLbr3VVvzGbUaoZ1zEuHql5Rl7oF2SZ1zKSTSBfenhayFPWybpcLrQM67RCCrGNaRd67JpALqhoWkDn31yKFakI8YzLbF+hRDj9XHjKQhAAAKtIIAYbwVV6oQABCAAgUwE6hXj4enhaZ5xK9xDz7gVrWpwmEvdKjEe154N1a7mGVfxrZEBVoxn8YxrqL+EpssryftdLWdcQupDW6uJcd3oSJskWoekDdjD4fQZxHimJYYYrw8TT0EAAhBoCwHEeFsw0wgEIAABCMQRyCLG457LkjOuh52J91ZeaTnjNj9bw9Rb6Rnft/udyHttw7BryRlPEuOSM6552EceP9YfACcvDVMPc+uFU5gzHp6enuU0dWlHmSWJcbHDpgeI11tz/0NvPznjrfmbgWe8NVypFQIQgEA9BBDj9VDjGQhAAAIQaAqBesW4NJ71NHUNd9bDwyQ0Pe40dT29+/Nf6Km4D7wVnnEVyRqurfaoV/69P//BHxiXdpp6khgXT7nNt5cQcBXgKn7f3rzeTbjy/3SfHjwQCWjLM+5+8LR7xsNogjQxLmMXniSv3nkbum/HLe6wNk5Tr28JIsbr48ZTEIAABFpBADHeCqrUCQEIQAACmQg0IsYzNUChipzxTr2Tm3vGmzeREePNY0lNEIAABBolgBhvlCDPQwACEIBA3QQQ43Wjy/ygPcCtU8W4dFZzxE+dOddtfvQ+d9KFV/nr33jVRgAxXhsvSkMAAhBoJQHEeCvpUjcEIAABCKQSQIwzQSDQXgKI8fbypjUIQAACaQQQ48wPCEAAAhDIjQBiPDf0NFxSAojxkg483YYABApJADFeyGHBKAhAAALlIIAYL8c408viEECMF2cssAQCEIAAYpw5AAEIQAACuRFAjOeGnoZLSgAxXtKBp9sQgEAhCSDGCzksGAUBCECgHAQQ4+UYZ3pZHAKI8eKMBZZAAAIQQIwzByAAAQhAIDcCnSbG5URve793K8Dpnd16B7nefy73h8vLfj9p9nx38MM+J2XlPnG9r7uaXfZOcVtW7zuv9rz93t4pHj4n3+3assmdPXex6+ST3GvhUfSyiPGijxD2QQACZSKAGC/TaNNXCEAAAgUj0GlivNX4Du3/0D172ww3Ztrlbsx5l/nm5GqyNb1z3EWLn/BXeUmZFx5a5M64fpH/Xt+rWM9io4jx5+692U29ZUl0PZjUu7b3Jnf6NQtqujIMMZ6FeHHKIMaLMxZYAgEIQAAxzhyAAAQgAIHcCGQR41Z8WsH5u5983218+E5vu3qFQ8+1vWP7g+2vuq2rn3QDvjjQvfT4D5x6nD//hR637r557sjjxrqXf73M9b211amHWEWrtCG2Tr72dveHn//InTP/frd355v96hPPtAhnW4cK6hUzpnhbx118tfcUy0va/fTAfrdt7Uo3ffl6t2/3O27fezv7ebhV8I6/dLYX629vXu+O+Opo13P4YLdry2Y39OsnuG/f+VP3ylPLKuo78vixvg31sksbI8dO9Hd2h2JcPe4nTPuuLyNtrlow09sp9etmgHDfs2O7t1k4ycvaLMylr/LMMRPPcp8ePIBnPLcV1r9hxHiBBgNTIACB0hNAjJd+CgAAAhCAQH4E6hXjVmSL9RuX3uVOuvAq3xEbRh6KcRGJKrRFVMprwvQbvWDdv/tv7oJ7lruPP9obCVX5/ul5V7hz5z8QiVitX8S41CcCV0Wv1iHfSf1hfYOGjfRtDRw6PGpX3ouID8WwHRXph9Ynn6sH+7AvDYne27o1XF37KP+2HnapIxTjVqAf2rcnak82QGw98v5A3+5IYFvPuIa/Cy9lIm0Rpp7fGgtbRowXZyywBAIQgABinDkAAQhAAAK5EUgT4+phDY0TMT14+Fe8VzoUedU84ypoRWBq2bNuuseLzaPGnRaFhsu/B48Y5YaNPrlCtNr6reBWwSrPSHi5Lbdj07qKvGndIDjzhjvc8w8ujNpNE+O2vmpiXPuhIe8ixMXTbevvGXyE32QQD759qec8ZG4FtxXmUs5+Zzc/JEc8/HduE42GIwKIcSYDBCAAgeIQQIwXZyywBAIQgEDpCNTrGVcRqGHUNqw8zTNuBXwoxjU8W+q2YtzWF4pxW58+EyfG1U4dYAmRn7ZwqW9H222WGNf6VIxLSLt9CatwkyGceOEhcvK9pgLYfoZiPDywDTFevCWNGC/emGARBCBQXgKI8fKOPT2HAAQgkDuBRsS4Gh96fK14tuJQcsatZ1xDv1UUq0dZ65N/i2hthhiPywOPE99Jh6HZz+1Ba3Fh6laMJx3IFpczbidDKKpDz7hGAIRiHM947kuqqgGI8aqIKAABCECgbQQQ421DTUMQgAAEIBASyCLG46hZcSii1uaMa453mLMsYlxzvCVsO8wZl3Yk7H3/++9W5Iw3KsZtDrqchq451xqmbj3yWU9TT8sZDz380i8JVbf53BKmHuaMJ4nxzz455A+NE2ZST5pn3IbGkzNezPWOGC/muGAVBCBQTgKI8XKOO72GAAQgUAgC9YrxMIza3o+tp4DLad5y+vgHb7zqRbaI8T/96499v7etfarfqeZykJqezm5PHW9UjEs+uc1/D09xt+JZbKt2z3hWz3hcXeEp8fZqMzshbIi72HvyJbPcjk3PeY4vrfihz6fXq9dCb77t67duf9B9tGuHP4Wee8YLseQcYrwY44AVEIAABIQAYpx5AAEIQAACuRGoV4zXY3BS/nJarnY97fAMBIpMADFe5NHBNghAoGwEEONlG3H6CwEIQKBABBDjBRoMTCkFAcR4KYaZTkIAAh1CADHeIQOFmRCAAAS6kUA7xXg38qNPEKiVAGK8VmKUhwAEINA6Aojx1rGlZghAAAIQqEIAMc4UgUB7CSDG28ub1iAAAQikEUCMMz8gAAEIQCA3Aojx3NDTcEkJIMZLOvB0GwIQKCQBxHghhwWjIAABCJSDAGK8HONML4tDADFenLHAEghAAAKIceYABCAAAQjkRgAxnht6Gi4pAcR4SQeebkMAAoUkgBgv5LBgFAQgAIFyEECMl2Oc6WVxCCDGizMWWAIBCEAAMc4cgAAEIACB3AggxnNDT8MlJYAYL+nA020IQKCQBBDjhRwWjIIABCBQDgKI8XKMM70sDgHEeHHGAksgAAEIIMaZAxCAAAQgkBsBxHhu6Gm4pAQQ4yUdeLoNAQgUkgBivJDDglEQgAAEykEAMV6OcaaXxSGAGC/OWGAJBCAAAcQ4cwACEIAABHIjgBjPDT0Nl5QAYrykA0+3IQCBQhJAjBdyWDAKAhCAQDkIIMbLMc70sjgEEOPFGQssgQAEIIAYZw5AAAIQgEBuBBDjuaGn4ZISQIyXdODpNgQgUEgCiPFCDgtGQQACECgHAcR4OcaZXhaHAGK8OGOBJRCAAAQQ48wBCEAAAhDIjQBiPDf0NFxSAojxkg483YYABApJADFeyGHBKAhAAALlIIAYL8c408viEECMF2cssAQCEIAAYpw5AAEIQAACuRFAjOeGnoZLSgAxXtKBp9sQgEAhCSDGCzksGAUBCECgHAQQ4+UYZ3pZHAKI8eKMBZZAAAIQQIwzByAAAQhAIDcCiPHc0NNwSQkgxks68HQbAhAoJAHEeCGHBaMgAAEIlIOAiPF/+cmacnSWXkKgAAR+Putc949//KMAlmACBCAAAQggxpkDEIAABCCQG4GJk8/IrW0ahkBZCfx+4wtl7Tr9hgAEIFAoAv8/ScQ42Ubawr4AAAAASUVORK5CYII=;" vertex="1" parent="1">
          <mxGeometry width="995" height="843" as="geometry" />
        </mxCell>
        <mxCell id="Vr-pFTC_d2zy_DVTNNrB-3" value="" style="rounded=0;whiteSpace=wrap;html=1;strokeColor=#FFFFFF;" vertex="1" parent="1">
          <mxGeometry x="597" y="23" width="99" height="180" as="geometry" />
        </mxCell>
        <mxCell id="Vr-pFTC_d2zy_DVTNNrB-2" value="" style="endArrow=block;html=1;rounded=0;endFill=0;" edge="1" parent="1">
          <mxGeometry width="50" height="50" relative="1" as="geometry">
            <mxPoint x="590" y="30" as="sourcePoint" />
            <mxPoint x="698" y="100" as="targetPoint" />
          </mxGeometry>
        </mxCell>
        <mxCell id="Vr-pFTC_d2zy_DVTNNrB-4" value="" style="rounded=0;whiteSpace=wrap;html=1;strokeColor=#FFFFFF;" vertex="1" parent="1">
          <mxGeometry x="730" y="138" width="99" height="192" as="geometry" />
        </mxCell>
        <mxCell id="Vr-pFTC_d2zy_DVTNNrB-5" value="" style="rounded=0;whiteSpace=wrap;html=1;strokeColor=#FFFFFF;" vertex="1" parent="1">
          <mxGeometry x="829" y="140" width="131" height="169" as="geometry" />
        </mxCell>
        <mxCell id="Vr-pFTC_d2zy_DVTNNrB-6" value="" style="endArrow=block;html=1;rounded=0;endFill=0;entryX=0;entryY=0;entryDx=0;entryDy=0;" edge="1" parent="1" target="Vr-pFTC_d2zy_DVTNNrB-4">
          <mxGeometry width="50" height="50" relative="1" as="geometry">
            <mxPoint x="620" y="203" as="sourcePoint" />
            <mxPoint x="728" y="273" as="targetPoint" />
          </mxGeometry>
        </mxCell>
        <mxCell id="Vr-pFTC_d2zy_DVTNNrB-7" value="" style="endArrow=block;html=1;rounded=0;endFill=0;entryX=0;entryY=0;entryDx=0;entryDy=0;exitX=0.364;exitY=1.01;exitDx=0;exitDy=0;exitPerimeter=0;" edge="1" parent="1" source="Vr-pFTC_d2zy_DVTNNrB-4">
          <mxGeometry width="50" height="50" relative="1" as="geometry">
            <mxPoint x="680" y="203" as="sourcePoint" />
            <mxPoint x="790" y="138" as="targetPoint" />
          </mxGeometry>
        </mxCell>
        <mxCell id="Vr-pFTC_d2zy_DVTNNrB-8" value="" style="endArrow=block;html=1;rounded=0;endFill=0;entryX=0;entryY=0;entryDx=0;entryDy=0;exitX=0.75;exitY=1;exitDx=0;exitDy=0;" edge="1" parent="1">
          <mxGeometry width="50" height="50" relative="1" as="geometry">
            <mxPoint x="924.25" y="308.0000000000001" as="sourcePoint" />
            <mxPoint x="848" y="136" as="targetPoint" />
          </mxGeometry>
        </mxCell>
      </root>
    </mxGraphModel>
  </diagram>
</mxfile>
